%TF.GenerationSoftware,KiCad,Pcbnew,7.0.7*%
%TF.CreationDate,2023-09-30T12:21:39+02:00*%
%TF.ProjectId,LEDs,4c454473-2e6b-4696-9361-645f70636258,rev?*%
%TF.SameCoordinates,Original*%
%TF.FileFunction,Paste,Top*%
%TF.FilePolarity,Positive*%
%FSLAX46Y46*%
G04 Gerber Fmt 4.6, Leading zero omitted, Abs format (unit mm)*
G04 Created by KiCad (PCBNEW 7.0.7) date 2023-09-30 12:21:39*
%MOMM*%
%LPD*%
G01*
G04 APERTURE LIST*
G04 Aperture macros list*
%AMRoundRect*
0 Rectangle with rounded corners*
0 $1 Rounding radius*
0 $2 $3 $4 $5 $6 $7 $8 $9 X,Y pos of 4 corners*
0 Add a 4 corners polygon primitive as box body*
4,1,4,$2,$3,$4,$5,$6,$7,$8,$9,$2,$3,0*
0 Add four circle primitives for the rounded corners*
1,1,$1+$1,$2,$3*
1,1,$1+$1,$4,$5*
1,1,$1+$1,$6,$7*
1,1,$1+$1,$8,$9*
0 Add four rect primitives between the rounded corners*
20,1,$1+$1,$2,$3,$4,$5,0*
20,1,$1+$1,$4,$5,$6,$7,0*
20,1,$1+$1,$6,$7,$8,$9,0*
20,1,$1+$1,$8,$9,$2,$3,0*%
G04 Aperture macros list end*
%ADD10RoundRect,0.237500X0.250000X0.237500X-0.250000X0.237500X-0.250000X-0.237500X0.250000X-0.237500X0*%
%ADD11RoundRect,0.150000X-0.150000X0.587500X-0.150000X-0.587500X0.150000X-0.587500X0.150000X0.587500X0*%
%ADD12RoundRect,0.237500X0.237500X-0.250000X0.237500X0.250000X-0.237500X0.250000X-0.237500X-0.250000X0*%
%ADD13RoundRect,0.150000X0.512500X0.150000X-0.512500X0.150000X-0.512500X-0.150000X0.512500X-0.150000X0*%
%ADD14RoundRect,0.250000X0.475000X-0.337500X0.475000X0.337500X-0.475000X0.337500X-0.475000X-0.337500X0*%
%ADD15RoundRect,0.155000X-0.212500X-0.155000X0.212500X-0.155000X0.212500X0.155000X-0.212500X0.155000X0*%
%ADD16RoundRect,0.250000X0.337500X0.475000X-0.337500X0.475000X-0.337500X-0.475000X0.337500X-0.475000X0*%
%ADD17RoundRect,0.150000X0.150000X-0.587500X0.150000X0.587500X-0.150000X0.587500X-0.150000X-0.587500X0*%
%ADD18R,0.400000X0.700000*%
%ADD19R,0.400000X0.500000*%
%ADD20R,2.650013X1.940005*%
%ADD21RoundRect,0.050000X0.050000X-0.375000X0.050000X0.375000X-0.050000X0.375000X-0.050000X-0.375000X0*%
%ADD22RoundRect,0.050000X0.275000X-0.050000X0.275000X0.050000X-0.275000X0.050000X-0.275000X-0.050000X0*%
%ADD23RoundRect,0.155000X-0.155000X0.212500X-0.155000X-0.212500X0.155000X-0.212500X0.155000X0.212500X0*%
%ADD24RoundRect,0.237500X-0.237500X0.287500X-0.237500X-0.287500X0.237500X-0.287500X0.237500X0.287500X0*%
%ADD25RoundRect,0.250000X-0.250000X-0.250000X0.250000X-0.250000X0.250000X0.250000X-0.250000X0.250000X0*%
%ADD26R,0.532004X1.072009*%
%ADD27R,2.600000X8.200000*%
%ADD28RoundRect,0.237500X-0.250000X-0.237500X0.250000X-0.237500X0.250000X0.237500X-0.250000X0.237500X0*%
%ADD29RoundRect,0.250000X-0.337500X-0.475000X0.337500X-0.475000X0.337500X0.475000X-0.337500X0.475000X0*%
%ADD30O,1.600000X0.600000*%
%ADD31R,3.000000X3.500000*%
%ADD32R,1.500000X0.900000*%
%ADD33R,0.700000X0.700000*%
%ADD34O,0.629997X1.864999*%
%ADD35RoundRect,0.150000X0.587500X0.150000X-0.587500X0.150000X-0.587500X-0.150000X0.587500X-0.150000X0*%
%ADD36RoundRect,0.155000X0.155000X-0.212500X0.155000X0.212500X-0.155000X0.212500X-0.155000X-0.212500X0*%
%ADD37RoundRect,0.250000X-0.475000X0.337500X-0.475000X-0.337500X0.475000X-0.337500X0.475000X0.337500X0*%
%ADD38RoundRect,0.237500X-0.237500X0.250000X-0.237500X-0.250000X0.237500X-0.250000X0.237500X0.250000X0*%
%ADD39RoundRect,0.237500X0.237500X-0.287500X0.237500X0.287500X-0.237500X0.287500X-0.237500X-0.287500X0*%
%ADD40R,2.000000X1.500000*%
%ADD41R,2.000000X3.800000*%
%ADD42RoundRect,0.150000X-0.512500X-0.150000X0.512500X-0.150000X0.512500X0.150000X-0.512500X0.150000X0*%
%ADD43R,1.300000X0.300000*%
%ADD44RoundRect,0.250000X-1.400000X-2.000000X1.400000X-2.000000X1.400000X2.000000X-1.400000X2.000000X0*%
%ADD45RoundRect,0.237500X0.287500X0.237500X-0.287500X0.237500X-0.287500X-0.237500X0.287500X-0.237500X0*%
%ADD46RoundRect,0.250000X-2.000000X1.400000X-2.000000X-1.400000X2.000000X-1.400000X2.000000X1.400000X0*%
G04 APERTURE END LIST*
D10*
%TO.C,R14*%
X65832500Y-105780000D03*
X64007500Y-105780000D03*
%TD*%
D11*
%TO.C,Q12*%
X69430000Y-111302500D03*
X67530000Y-111302500D03*
X68480000Y-113177500D03*
%TD*%
D12*
%TO.C,R4*%
X68580000Y-101242500D03*
X68580000Y-99417500D03*
%TD*%
D13*
%TO.C,U4*%
X126277500Y-98486000D03*
X126277500Y-97536000D03*
X126277500Y-96586000D03*
X124002500Y-96586000D03*
X124002500Y-97536000D03*
X124002500Y-98486000D03*
%TD*%
D12*
%TO.C,R25*%
X90424000Y-84986500D03*
X90424000Y-83161500D03*
%TD*%
D14*
%TO.C,C12*%
X67410000Y-82147500D03*
X67410000Y-80072500D03*
%TD*%
D15*
%TO.C,C11*%
X66922500Y-83510000D03*
X68057500Y-83510000D03*
%TD*%
D10*
%TO.C,R23*%
X123512500Y-100210000D03*
X121687500Y-100210000D03*
%TD*%
D16*
%TO.C,C7*%
X133817500Y-96040000D03*
X131742500Y-96040000D03*
%TD*%
D17*
%TO.C,Q3*%
X91506000Y-98395000D03*
X93406000Y-98395000D03*
X92456000Y-96520000D03*
%TD*%
D18*
%TO.C,Q2*%
X82694511Y-104018084D03*
X83344498Y-104018084D03*
X83994486Y-104018084D03*
X84644473Y-104018084D03*
D19*
X84644473Y-100918008D03*
X83994486Y-100918008D03*
X83344498Y-100918008D03*
X82694511Y-100918008D03*
D20*
X83669365Y-102108000D03*
%TD*%
D21*
%TO.C,U9*%
X68090000Y-116415000D03*
X68490000Y-116415000D03*
D22*
X69115000Y-116290000D03*
X69115000Y-115890000D03*
X69115000Y-115490000D03*
X69115000Y-115090000D03*
D21*
X68490000Y-114965000D03*
X68090000Y-114965000D03*
D22*
X67465000Y-115090000D03*
X67465000Y-115490000D03*
X67465000Y-115890000D03*
X67465000Y-116290000D03*
%TD*%
D23*
%TO.C,C19*%
X66270000Y-115292500D03*
X66270000Y-116427500D03*
%TD*%
D24*
%TO.C,D6*%
X59436000Y-104916000D03*
X59436000Y-106666000D03*
%TD*%
D25*
%TO.C,D7*%
X64020000Y-103940000D03*
X66520000Y-103940000D03*
%TD*%
D10*
%TO.C,R29*%
X140784500Y-87376000D03*
X138959500Y-87376000D03*
%TD*%
D23*
%TO.C,C1*%
X68834000Y-102810500D03*
X68834000Y-103945500D03*
%TD*%
D26*
%TO.C,U2*%
X87799530Y-104273098D03*
X88749492Y-104273098D03*
X89699454Y-104273098D03*
X89699454Y-101974902D03*
X88749492Y-101974902D03*
X87799530Y-101974902D03*
%TD*%
D27*
%TO.C,L2*%
X119800000Y-91186000D03*
X125400000Y-91186000D03*
%TD*%
D11*
%TO.C,Q9*%
X144378000Y-87962500D03*
X142478000Y-87962500D03*
X143428000Y-89837500D03*
%TD*%
D28*
%TO.C,R30*%
X139803500Y-83566000D03*
X141628500Y-83566000D03*
%TD*%
D14*
%TO.C,C9*%
X96012000Y-84603500D03*
X96012000Y-82528500D03*
%TD*%
D29*
%TO.C,C5*%
X110386500Y-102616000D03*
X112461500Y-102616000D03*
%TD*%
D27*
%TO.C,L1*%
X116510000Y-91186000D03*
X110910000Y-91186000D03*
%TD*%
D28*
%TO.C,R36*%
X105767500Y-78740000D03*
X107592500Y-78740000D03*
%TD*%
D30*
%TO.C,U1*%
X70406000Y-100202996D03*
X70406000Y-101472999D03*
X70406000Y-102743001D03*
X70406000Y-104013004D03*
X76406000Y-104013004D03*
X76406000Y-102743001D03*
X76406000Y-101472999D03*
X76406000Y-100202996D03*
D31*
X73406000Y-102108000D03*
%TD*%
D32*
%TO.C,U5*%
X69708000Y-79822000D03*
X69708000Y-81322000D03*
X69708000Y-82822000D03*
X69708000Y-84322000D03*
X69708000Y-85822000D03*
X69708000Y-87322000D03*
X69708000Y-88822000D03*
X69708000Y-90322000D03*
X69708000Y-91822000D03*
X87208000Y-91822000D03*
X87208000Y-90322000D03*
X87208000Y-88822000D03*
X87208000Y-87322000D03*
X87208000Y-85822000D03*
X87208000Y-84322000D03*
X87208000Y-82822000D03*
X87208000Y-81322000D03*
X87208000Y-79822000D03*
D33*
X78318000Y-84922000D03*
X78318000Y-86022000D03*
X78318000Y-87122000D03*
X79368000Y-84922000D03*
X79368000Y-86022000D03*
X79368000Y-87122000D03*
X80518000Y-84922000D03*
X80518000Y-86022000D03*
X80518000Y-87122000D03*
%TD*%
D28*
%TO.C,R24*%
X118131508Y-104140000D03*
X119956508Y-104140000D03*
%TD*%
D18*
%TO.C,Q1*%
X80834346Y-101319962D03*
X80184359Y-101319962D03*
X79534371Y-101319962D03*
X78884384Y-101319962D03*
D19*
X78884384Y-104420038D03*
X79534371Y-104420038D03*
X80184359Y-104420038D03*
X80834346Y-104420038D03*
D20*
X79859492Y-103230046D03*
%TD*%
D34*
%TO.C,U8*%
X109600996Y-80152499D03*
X110870999Y-80152499D03*
X112141001Y-80152499D03*
X113411004Y-80152499D03*
X113411004Y-74787501D03*
X112141001Y-74787501D03*
X110870999Y-74787501D03*
X109600996Y-74787501D03*
%TD*%
D14*
%TO.C,C8*%
X100756000Y-84222500D03*
X100756000Y-82147500D03*
%TD*%
D16*
%TO.C,C15*%
X141753500Y-85344000D03*
X139678500Y-85344000D03*
%TD*%
D35*
%TO.C,Q6*%
X137922000Y-99314000D03*
X137922000Y-97414000D03*
X136047000Y-98364000D03*
%TD*%
D36*
%TO.C,C17*%
X115316000Y-78037500D03*
X115316000Y-76902500D03*
%TD*%
D28*
%TO.C,R21*%
X139907000Y-98044000D03*
X141732000Y-98044000D03*
%TD*%
D37*
%TO.C,C14*%
X97028000Y-101578500D03*
X97028000Y-103653500D03*
%TD*%
D25*
%TO.C,D5*%
X64012500Y-109020000D03*
X66512500Y-109020000D03*
%TD*%
D17*
%TO.C,Q10*%
X142478000Y-93901500D03*
X144378000Y-93901500D03*
X143428000Y-92026500D03*
%TD*%
D10*
%TO.C,R1*%
X62282500Y-115550000D03*
X60457500Y-115550000D03*
%TD*%
D38*
%TO.C,R26*%
X66040000Y-85193500D03*
X66040000Y-87018500D03*
%TD*%
D28*
%TO.C,R32*%
X67617500Y-118760000D03*
X69442500Y-118760000D03*
%TD*%
D37*
%TO.C,C6*%
X121838000Y-96498500D03*
X121838000Y-98573500D03*
%TD*%
D38*
%TO.C,R34*%
X120650000Y-80367500D03*
X120650000Y-82192500D03*
%TD*%
D37*
%TO.C,C13*%
X108122000Y-101832500D03*
X108122000Y-103907500D03*
%TD*%
D28*
%TO.C,R35*%
X112879500Y-82296000D03*
X114704500Y-82296000D03*
%TD*%
D17*
%TO.C,Q13*%
X67560000Y-124027500D03*
X69460000Y-124027500D03*
X68510000Y-122152500D03*
%TD*%
D12*
%TO.C,R11*%
X97200000Y-99972500D03*
X97200000Y-98147500D03*
%TD*%
D10*
%TO.C,R17*%
X100226500Y-86360000D03*
X98401500Y-86360000D03*
%TD*%
D28*
%TO.C,R2*%
X67597500Y-120390000D03*
X69422500Y-120390000D03*
%TD*%
D10*
%TO.C,R6*%
X88034500Y-100330000D03*
X86209500Y-100330000D03*
%TD*%
D39*
%TO.C,D4*%
X59436000Y-109968000D03*
X59436000Y-108218000D03*
%TD*%
D28*
%TO.C,R13*%
X63997500Y-110770000D03*
X65822500Y-110770000D03*
%TD*%
D15*
%TO.C,C18*%
X139982500Y-99390000D03*
X141117500Y-99390000D03*
%TD*%
D40*
%TO.C,U6*%
X105684000Y-103392000D03*
X105684000Y-101092000D03*
D41*
X99384000Y-101092000D03*
D40*
X105684000Y-98792000D03*
%TD*%
D34*
%TO.C,Q8*%
X116123004Y-101996499D03*
X117393007Y-101996499D03*
X118663009Y-101996499D03*
X119933012Y-101996499D03*
X119933012Y-96631501D03*
X118663009Y-96631501D03*
X117393007Y-96631501D03*
X116123004Y-96631501D03*
%TD*%
D28*
%TO.C,R3*%
X63977500Y-114010000D03*
X65802500Y-114010000D03*
%TD*%
%TO.C,R22*%
X139897000Y-96520000D03*
X141722000Y-96520000D03*
%TD*%
D37*
%TO.C,C4*%
X114218000Y-96498500D03*
X114218000Y-98573500D03*
%TD*%
D28*
%TO.C,R16*%
X63967500Y-112440000D03*
X65792500Y-112440000D03*
%TD*%
D42*
%TO.C,U3*%
X110032500Y-96586000D03*
X110032500Y-97536000D03*
X110032500Y-98486000D03*
X112307500Y-98486000D03*
X112307500Y-97536000D03*
X112307500Y-96586000D03*
%TD*%
D28*
%TO.C,R37*%
X105767500Y-76962000D03*
X107592500Y-76962000D03*
%TD*%
D11*
%TO.C,Q4*%
X92390000Y-87025000D03*
X90490000Y-87025000D03*
X91440000Y-88900000D03*
%TD*%
D10*
%TO.C,R12*%
X65852500Y-107300000D03*
X64027500Y-107300000D03*
%TD*%
D38*
%TO.C,R5*%
X86209492Y-101957500D03*
X86209492Y-103782500D03*
%TD*%
D11*
%TO.C,Q7*%
X123580000Y-102192500D03*
X121680000Y-102192500D03*
X122630000Y-104067500D03*
%TD*%
D10*
%TO.C,R18*%
X92352500Y-90932000D03*
X90527500Y-90932000D03*
%TD*%
D12*
%TO.C,R28*%
X143428000Y-97686500D03*
X143428000Y-95861500D03*
%TD*%
%TO.C,R10*%
X129966000Y-97940500D03*
X129966000Y-96115500D03*
%TD*%
D10*
%TO.C,R27*%
X93622500Y-100330000D03*
X91797500Y-100330000D03*
%TD*%
D28*
%TO.C,R38*%
X109577500Y-82296000D03*
X111402500Y-82296000D03*
%TD*%
D12*
%TO.C,R15*%
X65990000Y-91142500D03*
X65990000Y-89317500D03*
%TD*%
D29*
%TO.C,C10*%
X131782500Y-98140000D03*
X133857500Y-98140000D03*
%TD*%
D43*
%TO.C,J1*%
X65339143Y-118061987D03*
X65339143Y-118862089D03*
X65339143Y-120162064D03*
X65339143Y-121162064D03*
X65339143Y-121661936D03*
X65339143Y-122661682D03*
X65339143Y-123962165D03*
X65339143Y-124762013D03*
X65339143Y-124462038D03*
X65339143Y-123661936D03*
X65339143Y-123162064D03*
X65339143Y-122162064D03*
X65339143Y-120661936D03*
X65339143Y-119661936D03*
X65339143Y-119162064D03*
X65339143Y-118361962D03*
%TD*%
D44*
%TO.C,D1*%
X105328000Y-85770000D03*
X105328000Y-94570000D03*
%TD*%
D35*
%TO.C,Q11*%
X65199500Y-101026000D03*
X65199500Y-99126000D03*
X63324500Y-100076000D03*
%TD*%
D45*
%TO.C,D3*%
X96887000Y-96266000D03*
X95137000Y-96266000D03*
%TD*%
D28*
%TO.C,R31*%
X67667500Y-125840000D03*
X69492500Y-125840000D03*
%TD*%
D38*
%TO.C,R20*%
X92710000Y-82907500D03*
X92710000Y-84732500D03*
%TD*%
D46*
%TO.C,D2*%
X138684000Y-91694000D03*
X129884000Y-91694000D03*
%TD*%
D28*
%TO.C,R7*%
X110257500Y-100584000D03*
X112082500Y-100584000D03*
%TD*%
D38*
%TO.C,R9*%
X128188000Y-96115500D03*
X128188000Y-97940500D03*
%TD*%
D16*
%TO.C,C16*%
X118639500Y-82042000D03*
X116564500Y-82042000D03*
%TD*%
D38*
%TO.C,R8*%
X108376000Y-98147500D03*
X108376000Y-99972500D03*
%TD*%
D15*
%TO.C,C3*%
X89348500Y-100584000D03*
X90483500Y-100584000D03*
%TD*%
D17*
%TO.C,Q5*%
X94300000Y-88821500D03*
X96200000Y-88821500D03*
X95250000Y-86946500D03*
%TD*%
D35*
%TO.C,D8*%
X137922000Y-103058000D03*
X137922000Y-101158000D03*
X136047000Y-102108000D03*
%TD*%
D36*
%TO.C,C2*%
X144526000Y-100135500D03*
X144526000Y-99000500D03*
%TD*%
D12*
%TO.C,R33*%
X67056000Y-100734500D03*
X67056000Y-98909500D03*
%TD*%
M02*
