%TF.GenerationSoftware,KiCad,Pcbnew,7.0.7*%
%TF.CreationDate,2023-09-30T12:21:39+02:00*%
%TF.ProjectId,LEDs,4c454473-2e6b-4696-9361-645f70636258,rev?*%
%TF.SameCoordinates,Original*%
%TF.FileFunction,Legend,Top*%
%TF.FilePolarity,Positive*%
%FSLAX46Y46*%
G04 Gerber Fmt 4.6, Leading zero omitted, Abs format (unit mm)*
G04 Created by KiCad (PCBNEW 7.0.7) date 2023-09-30 12:21:39*
%MOMM*%
%LPD*%
G01*
G04 APERTURE LIST*
G04 Aperture macros list*
%AMRoundRect*
0 Rectangle with rounded corners*
0 $1 Rounding radius*
0 $2 $3 $4 $5 $6 $7 $8 $9 X,Y pos of 4 corners*
0 Add a 4 corners polygon primitive as box body*
4,1,4,$2,$3,$4,$5,$6,$7,$8,$9,$2,$3,0*
0 Add four circle primitives for the rounded corners*
1,1,$1+$1,$2,$3*
1,1,$1+$1,$4,$5*
1,1,$1+$1,$6,$7*
1,1,$1+$1,$8,$9*
0 Add four rect primitives between the rounded corners*
20,1,$1+$1,$2,$3,$4,$5,0*
20,1,$1+$1,$4,$5,$6,$7,0*
20,1,$1+$1,$6,$7,$8,$9,0*
20,1,$1+$1,$8,$9,$2,$3,0*%
G04 Aperture macros list end*
%ADD10C,0.150000*%
%ADD11C,0.200000*%
%ADD12C,0.254000*%
%ADD13C,0.059995*%
%ADD14C,0.120000*%
%ADD15C,0.152400*%
%ADD16C,0.300000*%
%ADD17C,0.203200*%
%ADD18C,0.203000*%
%ADD19C,1.600000*%
%ADD20RoundRect,0.237500X0.250000X0.237500X-0.250000X0.237500X-0.250000X-0.237500X0.250000X-0.237500X0*%
%ADD21RoundRect,0.150000X-0.150000X0.587500X-0.150000X-0.587500X0.150000X-0.587500X0.150000X0.587500X0*%
%ADD22R,1.524003X1.400000*%
%ADD23C,1.400000*%
%ADD24RoundRect,0.237500X0.237500X-0.250000X0.237500X0.250000X-0.237500X0.250000X-0.237500X-0.250000X0*%
%ADD25RoundRect,0.150000X0.512500X0.150000X-0.512500X0.150000X-0.512500X-0.150000X0.512500X-0.150000X0*%
%ADD26RoundRect,0.250000X0.475000X-0.337500X0.475000X0.337500X-0.475000X0.337500X-0.475000X-0.337500X0*%
%ADD27RoundRect,0.155000X-0.212500X-0.155000X0.212500X-0.155000X0.212500X0.155000X-0.212500X0.155000X0*%
%ADD28RoundRect,0.250000X0.337500X0.475000X-0.337500X0.475000X-0.337500X-0.475000X0.337500X-0.475000X0*%
%ADD29RoundRect,0.150000X0.150000X-0.587500X0.150000X0.587500X-0.150000X0.587500X-0.150000X-0.587500X0*%
%ADD30R,0.400000X0.700000*%
%ADD31R,0.400000X0.500000*%
%ADD32R,2.650013X1.940005*%
%ADD33RoundRect,0.050000X0.050000X-0.375000X0.050000X0.375000X-0.050000X0.375000X-0.050000X-0.375000X0*%
%ADD34RoundRect,0.050000X0.275000X-0.050000X0.275000X0.050000X-0.275000X0.050000X-0.275000X-0.050000X0*%
%ADD35RoundRect,0.155000X-0.155000X0.212500X-0.155000X-0.212500X0.155000X-0.212500X0.155000X0.212500X0*%
%ADD36RoundRect,0.237500X-0.237500X0.287500X-0.237500X-0.287500X0.237500X-0.287500X0.237500X0.287500X0*%
%ADD37R,1.050000X1.500000*%
%ADD38O,1.050000X1.500000*%
%ADD39RoundRect,0.250000X-0.250000X-0.250000X0.250000X-0.250000X0.250000X0.250000X-0.250000X0.250000X0*%
%ADD40C,3.200000*%
%ADD41R,0.532004X1.072009*%
%ADD42R,2.600000X8.200000*%
%ADD43RoundRect,0.237500X-0.250000X-0.237500X0.250000X-0.237500X0.250000X0.237500X-0.250000X0.237500X0*%
%ADD44C,5.300000*%
%ADD45RoundRect,0.250000X-0.337500X-0.475000X0.337500X-0.475000X0.337500X0.475000X-0.337500X0.475000X0*%
%ADD46O,1.600000X0.600000*%
%ADD47R,3.000000X3.500000*%
%ADD48R,1.500000X0.900000*%
%ADD49R,0.700000X0.700000*%
%ADD50O,0.629997X1.864999*%
%ADD51RoundRect,0.150000X0.587500X0.150000X-0.587500X0.150000X-0.587500X-0.150000X0.587500X-0.150000X0*%
%ADD52RoundRect,0.155000X0.155000X-0.212500X0.155000X0.212500X-0.155000X0.212500X-0.155000X-0.212500X0*%
%ADD53RoundRect,0.250000X-0.475000X0.337500X-0.475000X-0.337500X0.475000X-0.337500X0.475000X0.337500X0*%
%ADD54C,1.200000*%
%ADD55RoundRect,0.237500X-0.237500X0.250000X-0.237500X-0.250000X0.237500X-0.250000X0.237500X0.250000X0*%
%ADD56RoundRect,0.237500X0.237500X-0.287500X0.237500X0.287500X-0.237500X0.287500X-0.237500X-0.287500X0*%
%ADD57R,2.000000X1.500000*%
%ADD58R,2.000000X3.800000*%
%ADD59RoundRect,0.150000X-0.512500X-0.150000X0.512500X-0.150000X0.512500X0.150000X-0.512500X0.150000X0*%
%ADD60C,0.750013*%
%ADD61O,2.000000X1.200000*%
%ADD62O,1.800000X1.200000*%
%ADD63R,1.300000X0.300000*%
%ADD64RoundRect,0.250000X-1.400000X-2.000000X1.400000X-2.000000X1.400000X2.000000X-1.400000X2.000000X0*%
%ADD65R,1.400000X1.400000*%
%ADD66RoundRect,0.237500X0.287500X0.237500X-0.287500X0.237500X-0.287500X-0.237500X0.287500X-0.237500X0*%
%ADD67RoundRect,0.250000X-2.000000X1.400000X-2.000000X-1.400000X2.000000X-1.400000X2.000000X1.400000X0*%
%ADD68C,1.524003*%
%ADD69R,1.800000X1.574803*%
%ADD70C,1.800000*%
G04 APERTURE END LIST*
D10*
X120588800Y-128937600D02*
X135178800Y-128937600D01*
X135178800Y-131107600D01*
X120588800Y-131107600D01*
X120588800Y-128937600D01*
X72882400Y-129000000D02*
X93000000Y-129000000D01*
X93000000Y-130830000D01*
X72882400Y-130830000D01*
X72882400Y-129000000D01*
X73901541Y-96659819D02*
X74520588Y-96659819D01*
X74520588Y-96659819D02*
X74187255Y-97040771D01*
X74187255Y-97040771D02*
X74330112Y-97040771D01*
X74330112Y-97040771D02*
X74425350Y-97088390D01*
X74425350Y-97088390D02*
X74472969Y-97136009D01*
X74472969Y-97136009D02*
X74520588Y-97231247D01*
X74520588Y-97231247D02*
X74520588Y-97469342D01*
X74520588Y-97469342D02*
X74472969Y-97564580D01*
X74472969Y-97564580D02*
X74425350Y-97612200D01*
X74425350Y-97612200D02*
X74330112Y-97659819D01*
X74330112Y-97659819D02*
X74044398Y-97659819D01*
X74044398Y-97659819D02*
X73949160Y-97612200D01*
X73949160Y-97612200D02*
X73901541Y-97564580D01*
X74949160Y-97564580D02*
X74996779Y-97612200D01*
X74996779Y-97612200D02*
X74949160Y-97659819D01*
X74949160Y-97659819D02*
X74901541Y-97612200D01*
X74901541Y-97612200D02*
X74949160Y-97564580D01*
X74949160Y-97564580D02*
X74949160Y-97659819D01*
X75330112Y-96659819D02*
X75949159Y-96659819D01*
X75949159Y-96659819D02*
X75615826Y-97040771D01*
X75615826Y-97040771D02*
X75758683Y-97040771D01*
X75758683Y-97040771D02*
X75853921Y-97088390D01*
X75853921Y-97088390D02*
X75901540Y-97136009D01*
X75901540Y-97136009D02*
X75949159Y-97231247D01*
X75949159Y-97231247D02*
X75949159Y-97469342D01*
X75949159Y-97469342D02*
X75901540Y-97564580D01*
X75901540Y-97564580D02*
X75853921Y-97612200D01*
X75853921Y-97612200D02*
X75758683Y-97659819D01*
X75758683Y-97659819D02*
X75472969Y-97659819D01*
X75472969Y-97659819D02*
X75377731Y-97612200D01*
X75377731Y-97612200D02*
X75330112Y-97564580D01*
X77092016Y-96612200D02*
X76234874Y-97897914D01*
X77996778Y-97659819D02*
X77663445Y-97183628D01*
X77425350Y-97659819D02*
X77425350Y-96659819D01*
X77425350Y-96659819D02*
X77806302Y-96659819D01*
X77806302Y-96659819D02*
X77901540Y-96707438D01*
X77901540Y-96707438D02*
X77949159Y-96755057D01*
X77949159Y-96755057D02*
X77996778Y-96850295D01*
X77996778Y-96850295D02*
X77996778Y-96993152D01*
X77996778Y-96993152D02*
X77949159Y-97088390D01*
X77949159Y-97088390D02*
X77901540Y-97136009D01*
X77901540Y-97136009D02*
X77806302Y-97183628D01*
X77806302Y-97183628D02*
X77425350Y-97183628D01*
X79139635Y-96612200D02*
X78282493Y-97897914D01*
X79330112Y-96659819D02*
X79901540Y-96659819D01*
X79615826Y-97659819D02*
X79615826Y-96659819D01*
X80949159Y-96612200D02*
X80092017Y-97897914D01*
X81806302Y-96707438D02*
X81711064Y-96659819D01*
X81711064Y-96659819D02*
X81568207Y-96659819D01*
X81568207Y-96659819D02*
X81425350Y-96707438D01*
X81425350Y-96707438D02*
X81330112Y-96802676D01*
X81330112Y-96802676D02*
X81282493Y-96897914D01*
X81282493Y-96897914D02*
X81234874Y-97088390D01*
X81234874Y-97088390D02*
X81234874Y-97231247D01*
X81234874Y-97231247D02*
X81282493Y-97421723D01*
X81282493Y-97421723D02*
X81330112Y-97516961D01*
X81330112Y-97516961D02*
X81425350Y-97612200D01*
X81425350Y-97612200D02*
X81568207Y-97659819D01*
X81568207Y-97659819D02*
X81663445Y-97659819D01*
X81663445Y-97659819D02*
X81806302Y-97612200D01*
X81806302Y-97612200D02*
X81853921Y-97564580D01*
X81853921Y-97564580D02*
X81853921Y-97231247D01*
X81853921Y-97231247D02*
X81663445Y-97231247D01*
X82282493Y-97659819D02*
X82282493Y-96659819D01*
X82282493Y-96659819D02*
X82853921Y-97659819D01*
X82853921Y-97659819D02*
X82853921Y-96659819D01*
X83330112Y-97659819D02*
X83330112Y-96659819D01*
X83330112Y-96659819D02*
X83568207Y-96659819D01*
X83568207Y-96659819D02*
X83711064Y-96707438D01*
X83711064Y-96707438D02*
X83806302Y-96802676D01*
X83806302Y-96802676D02*
X83853921Y-96897914D01*
X83853921Y-96897914D02*
X83901540Y-97088390D01*
X83901540Y-97088390D02*
X83901540Y-97231247D01*
X83901540Y-97231247D02*
X83853921Y-97421723D01*
X83853921Y-97421723D02*
X83806302Y-97516961D01*
X83806302Y-97516961D02*
X83711064Y-97612200D01*
X83711064Y-97612200D02*
X83568207Y-97659819D01*
X83568207Y-97659819D02*
X83330112Y-97659819D01*
X125812779Y-104771819D02*
X125812779Y-103771819D01*
X125812779Y-103771819D02*
X126193731Y-103771819D01*
X126193731Y-103771819D02*
X126288969Y-103819438D01*
X126288969Y-103819438D02*
X126336588Y-103867057D01*
X126336588Y-103867057D02*
X126384207Y-103962295D01*
X126384207Y-103962295D02*
X126384207Y-104105152D01*
X126384207Y-104105152D02*
X126336588Y-104200390D01*
X126336588Y-104200390D02*
X126288969Y-104248009D01*
X126288969Y-104248009D02*
X126193731Y-104295628D01*
X126193731Y-104295628D02*
X125812779Y-104295628D01*
X127003255Y-103771819D02*
X127193731Y-103771819D01*
X127193731Y-103771819D02*
X127288969Y-103819438D01*
X127288969Y-103819438D02*
X127384207Y-103914676D01*
X127384207Y-103914676D02*
X127431826Y-104105152D01*
X127431826Y-104105152D02*
X127431826Y-104438485D01*
X127431826Y-104438485D02*
X127384207Y-104628961D01*
X127384207Y-104628961D02*
X127288969Y-104724200D01*
X127288969Y-104724200D02*
X127193731Y-104771819D01*
X127193731Y-104771819D02*
X127003255Y-104771819D01*
X127003255Y-104771819D02*
X126908017Y-104724200D01*
X126908017Y-104724200D02*
X126812779Y-104628961D01*
X126812779Y-104628961D02*
X126765160Y-104438485D01*
X126765160Y-104438485D02*
X126765160Y-104105152D01*
X126765160Y-104105152D02*
X126812779Y-103914676D01*
X126812779Y-103914676D02*
X126908017Y-103819438D01*
X126908017Y-103819438D02*
X127003255Y-103771819D01*
X127765160Y-103771819D02*
X128003255Y-104771819D01*
X128003255Y-104771819D02*
X128193731Y-104057533D01*
X128193731Y-104057533D02*
X128384207Y-104771819D01*
X128384207Y-104771819D02*
X128622303Y-103771819D01*
X129003255Y-104248009D02*
X129336588Y-104248009D01*
X129479445Y-104771819D02*
X129003255Y-104771819D01*
X129003255Y-104771819D02*
X129003255Y-103771819D01*
X129003255Y-103771819D02*
X129479445Y-103771819D01*
X130479445Y-104771819D02*
X130146112Y-104295628D01*
X129908017Y-104771819D02*
X129908017Y-103771819D01*
X129908017Y-103771819D02*
X130288969Y-103771819D01*
X130288969Y-103771819D02*
X130384207Y-103819438D01*
X130384207Y-103819438D02*
X130431826Y-103867057D01*
X130431826Y-103867057D02*
X130479445Y-103962295D01*
X130479445Y-103962295D02*
X130479445Y-104105152D01*
X130479445Y-104105152D02*
X130431826Y-104200390D01*
X130431826Y-104200390D02*
X130384207Y-104248009D01*
X130384207Y-104248009D02*
X130288969Y-104295628D01*
X130288969Y-104295628D02*
X129908017Y-104295628D01*
X131860398Y-103771819D02*
X132050874Y-103771819D01*
X132050874Y-103771819D02*
X132146112Y-103819438D01*
X132146112Y-103819438D02*
X132241350Y-103914676D01*
X132241350Y-103914676D02*
X132288969Y-104105152D01*
X132288969Y-104105152D02*
X132288969Y-104438485D01*
X132288969Y-104438485D02*
X132241350Y-104628961D01*
X132241350Y-104628961D02*
X132146112Y-104724200D01*
X132146112Y-104724200D02*
X132050874Y-104771819D01*
X132050874Y-104771819D02*
X131860398Y-104771819D01*
X131860398Y-104771819D02*
X131765160Y-104724200D01*
X131765160Y-104724200D02*
X131669922Y-104628961D01*
X131669922Y-104628961D02*
X131622303Y-104438485D01*
X131622303Y-104438485D02*
X131622303Y-104105152D01*
X131622303Y-104105152D02*
X131669922Y-103914676D01*
X131669922Y-103914676D02*
X131765160Y-103819438D01*
X131765160Y-103819438D02*
X131860398Y-103771819D01*
X132717541Y-104771819D02*
X132717541Y-103771819D01*
X132717541Y-103771819D02*
X133288969Y-104771819D01*
X133288969Y-104771819D02*
X133288969Y-103771819D01*
D11*
G36*
X75304891Y-129547240D02*
G01*
X75371964Y-129614313D01*
X75407416Y-129685218D01*
X75449387Y-129853099D01*
X75449387Y-129971337D01*
X75407416Y-130139218D01*
X75371963Y-130210124D01*
X75304892Y-130277197D01*
X75199827Y-130312219D01*
X75077959Y-130312219D01*
X75077959Y-129512219D01*
X75199827Y-129512219D01*
X75304891Y-129547240D01*
G37*
G36*
X78728247Y-129875357D02*
G01*
X78752916Y-129900025D01*
X78782721Y-129959634D01*
X78782721Y-130198135D01*
X78752916Y-130257743D01*
X78728247Y-130282413D01*
X78668638Y-130312219D01*
X78572995Y-130312219D01*
X78513385Y-130282414D01*
X78488718Y-130257746D01*
X78458912Y-130198134D01*
X78458912Y-129959635D01*
X78488717Y-129900025D01*
X78513385Y-129875356D01*
X78572995Y-129845552D01*
X78668638Y-129845552D01*
X78728247Y-129875357D01*
G37*
G36*
X81728248Y-129875357D02*
G01*
X81752917Y-129900025D01*
X81782722Y-129959635D01*
X81782722Y-130198134D01*
X81752917Y-130257743D01*
X81728248Y-130282413D01*
X81668639Y-130312219D01*
X81572996Y-130312219D01*
X81513386Y-130282414D01*
X81488719Y-130257746D01*
X81458913Y-130198134D01*
X81458913Y-129959635D01*
X81488718Y-129900025D01*
X81513386Y-129875356D01*
X81572996Y-129845552D01*
X81668639Y-129845552D01*
X81728248Y-129875357D01*
G37*
G36*
X83665330Y-129867707D02*
G01*
X83682780Y-129902607D01*
X83411295Y-129956904D01*
X83411295Y-129912016D01*
X83433450Y-129867706D01*
X83477759Y-129845552D01*
X83621021Y-129845552D01*
X83665330Y-129867707D01*
G37*
G36*
X89061583Y-129542024D02*
G01*
X89086252Y-129566692D01*
X89121705Y-129637599D01*
X89163676Y-129805480D01*
X89163676Y-130018956D01*
X89121705Y-130186837D01*
X89086252Y-130257743D01*
X89061583Y-130282413D01*
X89001974Y-130312219D01*
X88953950Y-130312219D01*
X88894340Y-130282414D01*
X88869673Y-130257746D01*
X88834218Y-130186837D01*
X88792248Y-130018956D01*
X88792248Y-129805481D01*
X88834218Y-129637599D01*
X88869672Y-129566692D01*
X88894340Y-129542023D01*
X88953950Y-129512219D01*
X89001974Y-129512219D01*
X89061583Y-129542024D01*
G37*
G36*
X90061583Y-129542024D02*
G01*
X90086252Y-129566692D01*
X90116057Y-129626302D01*
X90116057Y-129817182D01*
X90086252Y-129876792D01*
X90061583Y-129901460D01*
X90001974Y-129931266D01*
X89858712Y-129931266D01*
X89799102Y-129901461D01*
X89774434Y-129876792D01*
X89744629Y-129817182D01*
X89744629Y-129626302D01*
X89774434Y-129566692D01*
X89799102Y-129542023D01*
X89858712Y-129512219D01*
X90001974Y-129512219D01*
X90061583Y-129542024D01*
G37*
G36*
X92442535Y-129542024D02*
G01*
X92467204Y-129566692D01*
X92497009Y-129626302D01*
X92497009Y-129817183D01*
X92467204Y-129876792D01*
X92442535Y-129901460D01*
X92382926Y-129931266D01*
X92239664Y-129931266D01*
X92180054Y-129901461D01*
X92155386Y-129876792D01*
X92125581Y-129817182D01*
X92125581Y-129626302D01*
X92155386Y-129566692D01*
X92180054Y-129542023D01*
X92239664Y-129512219D01*
X92382926Y-129512219D01*
X92442535Y-129542024D01*
G37*
G36*
X92839866Y-130655076D02*
G01*
X73020816Y-130655076D01*
X73020816Y-130412219D01*
X73163673Y-130412219D01*
X73168567Y-130427281D01*
X73168567Y-130443121D01*
X73177876Y-130455934D01*
X73182771Y-130470998D01*
X73195584Y-130480307D01*
X73204894Y-130493121D01*
X73219957Y-130498015D01*
X73232771Y-130507325D01*
X73248610Y-130507325D01*
X73263673Y-130512219D01*
X73739863Y-130512219D01*
X73798642Y-130493121D01*
X73834969Y-130443121D01*
X73834969Y-130412219D01*
X73973197Y-130412219D01*
X73978091Y-130427281D01*
X73978091Y-130443121D01*
X73987400Y-130455934D01*
X73992295Y-130470998D01*
X74005108Y-130480307D01*
X74014418Y-130493121D01*
X74029481Y-130498015D01*
X74042295Y-130507325D01*
X74058134Y-130507325D01*
X74073197Y-130512219D01*
X74549387Y-130512219D01*
X74608166Y-130493121D01*
X74644493Y-130443121D01*
X74644493Y-130412219D01*
X74877959Y-130412219D01*
X74882853Y-130427281D01*
X74882853Y-130443121D01*
X74892162Y-130455934D01*
X74897057Y-130470998D01*
X74909870Y-130480307D01*
X74919180Y-130493121D01*
X74934243Y-130498015D01*
X74947057Y-130507325D01*
X74962896Y-130507325D01*
X74977959Y-130512219D01*
X75216054Y-130512219D01*
X75231469Y-130507210D01*
X75247677Y-130507087D01*
X75390533Y-130459468D01*
X75409080Y-130445776D01*
X75429622Y-130435310D01*
X75524860Y-130340071D01*
X75532218Y-130325629D01*
X75543592Y-130314082D01*
X75591211Y-130218845D01*
X75592871Y-130207823D01*
X75598782Y-130198377D01*
X75646401Y-130007901D01*
X75645540Y-129995484D01*
X75649387Y-129983647D01*
X75649387Y-129936028D01*
X75830340Y-129936028D01*
X75837463Y-129957951D01*
X75840897Y-129980749D01*
X75888516Y-130075987D01*
X75889074Y-130076553D01*
X75889205Y-130077340D01*
X75910707Y-130098517D01*
X75931885Y-130120020D01*
X75932671Y-130120150D01*
X75933238Y-130120709D01*
X76028475Y-130168328D01*
X76051273Y-130171761D01*
X76073197Y-130178885D01*
X76192447Y-130178885D01*
X76236756Y-130201040D01*
X76258911Y-130245349D01*
X76258911Y-130245754D01*
X76236756Y-130290063D01*
X76192447Y-130312219D01*
X76049185Y-130312219D01*
X75975061Y-130275157D01*
X75913947Y-130265952D01*
X75859094Y-130294428D01*
X75831455Y-130349707D01*
X75841586Y-130410674D01*
X75885619Y-130454043D01*
X75980856Y-130501662D01*
X76003654Y-130505095D01*
X76025578Y-130512219D01*
X76216054Y-130512219D01*
X76237977Y-130505095D01*
X76260775Y-130501662D01*
X76356013Y-130454043D01*
X76356579Y-130453484D01*
X76357367Y-130453354D01*
X76378560Y-130431835D01*
X76400046Y-130410674D01*
X76400176Y-130409887D01*
X76400735Y-130409321D01*
X76448354Y-130314082D01*
X76451787Y-130291284D01*
X76458911Y-130269361D01*
X76458911Y-130221742D01*
X77401769Y-130221742D01*
X77408892Y-130243665D01*
X77412326Y-130266463D01*
X77459945Y-130361701D01*
X77471318Y-130373248D01*
X77478677Y-130387690D01*
X77526295Y-130435310D01*
X77540738Y-130442669D01*
X77552286Y-130454043D01*
X77647523Y-130501662D01*
X77670321Y-130505095D01*
X77692245Y-130512219D01*
X77882721Y-130512219D01*
X77904644Y-130505095D01*
X77927442Y-130501662D01*
X78022680Y-130454043D01*
X78066713Y-130410674D01*
X78076844Y-130349707D01*
X78049204Y-130294428D01*
X77994352Y-130265952D01*
X77933237Y-130275157D01*
X77859114Y-130312219D01*
X77715852Y-130312219D01*
X77656242Y-130282414D01*
X77631575Y-130257746D01*
X77613573Y-130221742D01*
X78258912Y-130221742D01*
X78266035Y-130243665D01*
X78269469Y-130266463D01*
X78317088Y-130361701D01*
X78328461Y-130373248D01*
X78335820Y-130387690D01*
X78383438Y-130435310D01*
X78397881Y-130442669D01*
X78409429Y-130454043D01*
X78504666Y-130501662D01*
X78527464Y-130505095D01*
X78549388Y-130512219D01*
X78692245Y-130512219D01*
X78714168Y-130505095D01*
X78736966Y-130501662D01*
X78832204Y-130454043D01*
X78843752Y-130442668D01*
X78858194Y-130435310D01*
X78881285Y-130412219D01*
X79211293Y-130412219D01*
X79230391Y-130470998D01*
X79280391Y-130507325D01*
X79342195Y-130507325D01*
X79392195Y-130470998D01*
X79411293Y-130412219D01*
X79411293Y-129882211D01*
X79418147Y-129875356D01*
X79477757Y-129845552D01*
X79573400Y-129845552D01*
X79617709Y-129867707D01*
X79639864Y-129912015D01*
X79639864Y-130412219D01*
X79658962Y-130470998D01*
X79708962Y-130507325D01*
X79770766Y-130507325D01*
X79820766Y-130470998D01*
X79839864Y-130412219D01*
X79839864Y-129888409D01*
X79832740Y-129866485D01*
X79829307Y-129843687D01*
X79795690Y-129776454D01*
X79978092Y-129776454D01*
X80014419Y-129826454D01*
X80073198Y-129845552D01*
X80116055Y-129845552D01*
X80116055Y-130269361D01*
X80123178Y-130291284D01*
X80126612Y-130314082D01*
X80174231Y-130409321D01*
X80174789Y-130409887D01*
X80174920Y-130410674D01*
X80196405Y-130431835D01*
X80217599Y-130453354D01*
X80218386Y-130453484D01*
X80218953Y-130454043D01*
X80314190Y-130501662D01*
X80336988Y-130505095D01*
X80358912Y-130512219D01*
X80454150Y-130512219D01*
X80512929Y-130493121D01*
X80549256Y-130443121D01*
X80549256Y-130412219D01*
X80687484Y-130412219D01*
X80706582Y-130470998D01*
X80756582Y-130507325D01*
X80818386Y-130507325D01*
X80868386Y-130470998D01*
X80887484Y-130412219D01*
X80887484Y-130221742D01*
X81258913Y-130221742D01*
X81266036Y-130243665D01*
X81269470Y-130266463D01*
X81317089Y-130361701D01*
X81328462Y-130373248D01*
X81335821Y-130387690D01*
X81383439Y-130435310D01*
X81397882Y-130442669D01*
X81409430Y-130454043D01*
X81504667Y-130501662D01*
X81527465Y-130505095D01*
X81549389Y-130512219D01*
X81692246Y-130512219D01*
X81714169Y-130505095D01*
X81736967Y-130501662D01*
X81832205Y-130454043D01*
X81843753Y-130442668D01*
X81858195Y-130435310D01*
X81905814Y-130387690D01*
X81913171Y-130373249D01*
X81924546Y-130361701D01*
X81970716Y-130269361D01*
X82211294Y-130269361D01*
X82218417Y-130291284D01*
X82221851Y-130314082D01*
X82269470Y-130409321D01*
X82270028Y-130409887D01*
X82270159Y-130410674D01*
X82291644Y-130431835D01*
X82312838Y-130453354D01*
X82313625Y-130453484D01*
X82314192Y-130454043D01*
X82409429Y-130501662D01*
X82470544Y-130510867D01*
X82525396Y-130482391D01*
X82553036Y-130427112D01*
X82542905Y-130366145D01*
X82498872Y-130322776D01*
X82433448Y-130290064D01*
X82423097Y-130269361D01*
X82735104Y-130269361D01*
X82742227Y-130291284D01*
X82745661Y-130314082D01*
X82793280Y-130409321D01*
X82793838Y-130409887D01*
X82793969Y-130410674D01*
X82815454Y-130431835D01*
X82836648Y-130453354D01*
X82837435Y-130453484D01*
X82838002Y-130454043D01*
X82933239Y-130501662D01*
X82994354Y-130510867D01*
X83049206Y-130482391D01*
X83076846Y-130427112D01*
X83066715Y-130366145D01*
X83022682Y-130322776D01*
X82957258Y-130290064D01*
X82946907Y-130269361D01*
X83211295Y-130269361D01*
X83218418Y-130291284D01*
X83221852Y-130314082D01*
X83269471Y-130409321D01*
X83270029Y-130409887D01*
X83270160Y-130410674D01*
X83291645Y-130431835D01*
X83312839Y-130453354D01*
X83313626Y-130453484D01*
X83314193Y-130454043D01*
X83409430Y-130501662D01*
X83432228Y-130505095D01*
X83454152Y-130512219D01*
X83644628Y-130512219D01*
X83666551Y-130505095D01*
X83689349Y-130501662D01*
X83784587Y-130454043D01*
X83827051Y-130412219D01*
X84116057Y-130412219D01*
X84135155Y-130470998D01*
X84185155Y-130507325D01*
X84246959Y-130507325D01*
X84296959Y-130470998D01*
X84316057Y-130412219D01*
X84316057Y-129959635D01*
X84345862Y-129900025D01*
X84370530Y-129875356D01*
X84430140Y-129845552D01*
X84501771Y-129845552D01*
X84560550Y-129826454D01*
X84596877Y-129776454D01*
X84596877Y-129717408D01*
X85405814Y-129717408D01*
X85407598Y-129779186D01*
X85645693Y-130445852D01*
X85662888Y-130468138D01*
X85678778Y-130491391D01*
X85681610Y-130492402D01*
X85683448Y-130494784D01*
X85710466Y-130502708D01*
X85736981Y-130512178D01*
X85739867Y-130511331D01*
X85742753Y-130512178D01*
X85769267Y-130502708D01*
X85796286Y-130494784D01*
X85798123Y-130492402D01*
X85800956Y-130491391D01*
X85816841Y-130468143D01*
X85834041Y-130445853D01*
X85851640Y-130396576D01*
X86164908Y-130396576D01*
X86168571Y-130419703D01*
X86168571Y-130443121D01*
X86173313Y-130449648D01*
X86174576Y-130457618D01*
X86191132Y-130474174D01*
X86204898Y-130493121D01*
X86212572Y-130495614D01*
X86218278Y-130501320D01*
X86241407Y-130504983D01*
X86263677Y-130512219D01*
X86882724Y-130512219D01*
X86941503Y-130493121D01*
X86977830Y-130443121D01*
X86977830Y-130381317D01*
X86942451Y-130332622D01*
X87117288Y-130332622D01*
X87145347Y-130387690D01*
X87192965Y-130435310D01*
X87207408Y-130442669D01*
X87218956Y-130454043D01*
X87314193Y-130501662D01*
X87336991Y-130505095D01*
X87358915Y-130512219D01*
X87644629Y-130512219D01*
X87666552Y-130505095D01*
X87689350Y-130501662D01*
X87784588Y-130454043D01*
X87796136Y-130442668D01*
X87810578Y-130435310D01*
X87858197Y-130387690D01*
X87865554Y-130373249D01*
X87876929Y-130361701D01*
X87883301Y-130348958D01*
X88117288Y-130348958D01*
X88119766Y-130364602D01*
X88117289Y-130380243D01*
X88124478Y-130394353D01*
X88126957Y-130410000D01*
X88138157Y-130421199D01*
X88145347Y-130435311D01*
X88192966Y-130482929D01*
X88207077Y-130490119D01*
X88218278Y-130501320D01*
X88226247Y-130502582D01*
X88232775Y-130507325D01*
X88240844Y-130507325D01*
X88248033Y-130510988D01*
X88263676Y-130508510D01*
X88279320Y-130510988D01*
X88286509Y-130507325D01*
X88294579Y-130507325D01*
X88301107Y-130502582D01*
X88309076Y-130501320D01*
X88320275Y-130490120D01*
X88334388Y-130482930D01*
X88382006Y-130435311D01*
X88389195Y-130421200D01*
X88400397Y-130410000D01*
X88402874Y-130394354D01*
X88410065Y-130380244D01*
X88407587Y-130364600D01*
X88410065Y-130348958D01*
X88402874Y-130334846D01*
X88400397Y-130319201D01*
X88389196Y-130308000D01*
X88382007Y-130293890D01*
X88334388Y-130246270D01*
X88320275Y-130239079D01*
X88309075Y-130227879D01*
X88301107Y-130226617D01*
X88294579Y-130221874D01*
X88286510Y-130221874D01*
X88279321Y-130218211D01*
X88263676Y-130220688D01*
X88248033Y-130218211D01*
X88240844Y-130221874D01*
X88232775Y-130221874D01*
X88226248Y-130226615D01*
X88218279Y-130227878D01*
X88207077Y-130239079D01*
X88192965Y-130246270D01*
X88145347Y-130293890D01*
X88138156Y-130308001D01*
X88126957Y-130319201D01*
X88124479Y-130334844D01*
X88117288Y-130348958D01*
X87883301Y-130348958D01*
X87924548Y-130266464D01*
X87927981Y-130243665D01*
X87935105Y-130221742D01*
X87935105Y-130031266D01*
X88592248Y-130031266D01*
X88596094Y-130043103D01*
X88595234Y-130055520D01*
X88642853Y-130245995D01*
X88648763Y-130255441D01*
X88650424Y-130266463D01*
X88698043Y-130361701D01*
X88709416Y-130373248D01*
X88716775Y-130387690D01*
X88764393Y-130435310D01*
X88778836Y-130442669D01*
X88790384Y-130454043D01*
X88885621Y-130501662D01*
X88908419Y-130505095D01*
X88930343Y-130512219D01*
X89025581Y-130512219D01*
X89047504Y-130505095D01*
X89070302Y-130501662D01*
X89165540Y-130454043D01*
X89177088Y-130442668D01*
X89191530Y-130435310D01*
X89239149Y-130387690D01*
X89246506Y-130373249D01*
X89257881Y-130361701D01*
X89305500Y-130266464D01*
X89307160Y-130255442D01*
X89313071Y-130245996D01*
X89360690Y-130055520D01*
X89359829Y-130043103D01*
X89363676Y-130031266D01*
X89363676Y-129840790D01*
X89544629Y-129840790D01*
X89551752Y-129862713D01*
X89555186Y-129885511D01*
X89602805Y-129980749D01*
X89614178Y-129992296D01*
X89621537Y-130006739D01*
X89669156Y-130054357D01*
X89683597Y-130061715D01*
X89695146Y-130073090D01*
X89790383Y-130120709D01*
X89813181Y-130124142D01*
X89835105Y-130131266D01*
X90025581Y-130131266D01*
X90047504Y-130124142D01*
X90070302Y-130120709D01*
X90079915Y-130115902D01*
X90075625Y-130133064D01*
X89995488Y-130253269D01*
X89966345Y-130282413D01*
X89906736Y-130312219D01*
X89739867Y-130312219D01*
X89681088Y-130331317D01*
X89644761Y-130381317D01*
X89644761Y-130443121D01*
X89681088Y-130493121D01*
X89739867Y-130512219D01*
X89930343Y-130512219D01*
X89952266Y-130505095D01*
X89975064Y-130501662D01*
X90070302Y-130454043D01*
X90081850Y-130442668D01*
X90096292Y-130435310D01*
X90143911Y-130387690D01*
X90148489Y-130378703D01*
X90156405Y-130372450D01*
X90172066Y-130348958D01*
X90498240Y-130348958D01*
X90500718Y-130364602D01*
X90498241Y-130380243D01*
X90505430Y-130394353D01*
X90507909Y-130410000D01*
X90519109Y-130421199D01*
X90526299Y-130435311D01*
X90573918Y-130482929D01*
X90588029Y-130490119D01*
X90599230Y-130501320D01*
X90607199Y-130502582D01*
X90613727Y-130507325D01*
X90621796Y-130507325D01*
X90628985Y-130510988D01*
X90644628Y-130508510D01*
X90660272Y-130510988D01*
X90667461Y-130507325D01*
X90675531Y-130507325D01*
X90682059Y-130502582D01*
X90690028Y-130501320D01*
X90701227Y-130490120D01*
X90715340Y-130482930D01*
X90762958Y-130435311D01*
X90770147Y-130421200D01*
X90781349Y-130410000D01*
X90783474Y-130396576D01*
X90926812Y-130396576D01*
X90930475Y-130419703D01*
X90930475Y-130443121D01*
X90935217Y-130449648D01*
X90936480Y-130457618D01*
X90953036Y-130474174D01*
X90966802Y-130493121D01*
X90974476Y-130495614D01*
X90980182Y-130501320D01*
X91003311Y-130504983D01*
X91025581Y-130512219D01*
X91644628Y-130512219D01*
X91703407Y-130493121D01*
X91739734Y-130443121D01*
X91739734Y-130381317D01*
X91703407Y-130331317D01*
X91644628Y-130312219D01*
X91267003Y-130312219D01*
X91667720Y-129911501D01*
X91678186Y-129890959D01*
X91691877Y-129872413D01*
X91702418Y-129840790D01*
X91925581Y-129840790D01*
X91932704Y-129862713D01*
X91936138Y-129885511D01*
X91983757Y-129980749D01*
X91995130Y-129992296D01*
X92002489Y-130006739D01*
X92050108Y-130054357D01*
X92064549Y-130061715D01*
X92076098Y-130073090D01*
X92171335Y-130120709D01*
X92194133Y-130124142D01*
X92216057Y-130131266D01*
X92406533Y-130131266D01*
X92428456Y-130124142D01*
X92451254Y-130120709D01*
X92460867Y-130115902D01*
X92456577Y-130133064D01*
X92376440Y-130253269D01*
X92347297Y-130282413D01*
X92287688Y-130312219D01*
X92120819Y-130312219D01*
X92062040Y-130331317D01*
X92025713Y-130381317D01*
X92025713Y-130443121D01*
X92062040Y-130493121D01*
X92120819Y-130512219D01*
X92311295Y-130512219D01*
X92333218Y-130505095D01*
X92356016Y-130501662D01*
X92451254Y-130454043D01*
X92462802Y-130442668D01*
X92477244Y-130435310D01*
X92524863Y-130387690D01*
X92529441Y-130378703D01*
X92537357Y-130372450D01*
X92632595Y-130229593D01*
X92637257Y-130212993D01*
X92646404Y-130198377D01*
X92694023Y-130007901D01*
X92693162Y-129995484D01*
X92697009Y-129983647D01*
X92697009Y-129602695D01*
X92689885Y-129580771D01*
X92686452Y-129557973D01*
X92638833Y-129462736D01*
X92627458Y-129451187D01*
X92620100Y-129436746D01*
X92572482Y-129389127D01*
X92558039Y-129381768D01*
X92546492Y-129370395D01*
X92451254Y-129322776D01*
X92428456Y-129319342D01*
X92406533Y-129312219D01*
X92216057Y-129312219D01*
X92194133Y-129319342D01*
X92171335Y-129322776D01*
X92076098Y-129370395D01*
X92064549Y-129381769D01*
X92050108Y-129389128D01*
X92002489Y-129436746D01*
X91995130Y-129451188D01*
X91983757Y-129462736D01*
X91936138Y-129557974D01*
X91932704Y-129580771D01*
X91925581Y-129602695D01*
X91925581Y-129840790D01*
X91702418Y-129840790D01*
X91739496Y-129729556D01*
X91739619Y-129713348D01*
X91744628Y-129697933D01*
X91744628Y-129602695D01*
X91737504Y-129580771D01*
X91734071Y-129557973D01*
X91686452Y-129462736D01*
X91675077Y-129451187D01*
X91667719Y-129436746D01*
X91620101Y-129389127D01*
X91605658Y-129381768D01*
X91594111Y-129370395D01*
X91498873Y-129322776D01*
X91476075Y-129319342D01*
X91454152Y-129312219D01*
X91216057Y-129312219D01*
X91194133Y-129319342D01*
X91171335Y-129322776D01*
X91076098Y-129370395D01*
X91064549Y-129381769D01*
X91050108Y-129389128D01*
X91002489Y-129436746D01*
X90974431Y-129491814D01*
X90984099Y-129552856D01*
X91027801Y-129596558D01*
X91088843Y-129606226D01*
X91143911Y-129578168D01*
X91180054Y-129542023D01*
X91239664Y-129512219D01*
X91430545Y-129512219D01*
X91490154Y-129542024D01*
X91514823Y-129566692D01*
X91544628Y-129626302D01*
X91544628Y-129681706D01*
X91509606Y-129786770D01*
X90954870Y-130341508D01*
X90944239Y-130362371D01*
X90930475Y-130381317D01*
X90930475Y-130389386D01*
X90926812Y-130396576D01*
X90783474Y-130396576D01*
X90783826Y-130394354D01*
X90791017Y-130380244D01*
X90788539Y-130364600D01*
X90791017Y-130348958D01*
X90783826Y-130334846D01*
X90781349Y-130319201D01*
X90770148Y-130308000D01*
X90762959Y-130293890D01*
X90715340Y-130246270D01*
X90701227Y-130239079D01*
X90690027Y-130227879D01*
X90682059Y-130226617D01*
X90675531Y-130221874D01*
X90667462Y-130221874D01*
X90660273Y-130218211D01*
X90644628Y-130220688D01*
X90628985Y-130218211D01*
X90621796Y-130221874D01*
X90613727Y-130221874D01*
X90607200Y-130226615D01*
X90599231Y-130227878D01*
X90588029Y-130239079D01*
X90573917Y-130246270D01*
X90526299Y-130293890D01*
X90519108Y-130308001D01*
X90507909Y-130319201D01*
X90505431Y-130334844D01*
X90498240Y-130348958D01*
X90172066Y-130348958D01*
X90251643Y-130229593D01*
X90256305Y-130212993D01*
X90265452Y-130198377D01*
X90313071Y-130007901D01*
X90312210Y-129995484D01*
X90316057Y-129983647D01*
X90316057Y-129602695D01*
X90308933Y-129580771D01*
X90305500Y-129557973D01*
X90257881Y-129462736D01*
X90246506Y-129451187D01*
X90239148Y-129436746D01*
X90191530Y-129389127D01*
X90177087Y-129381768D01*
X90165540Y-129370395D01*
X90070302Y-129322776D01*
X90047504Y-129319342D01*
X90025581Y-129312219D01*
X89835105Y-129312219D01*
X89813181Y-129319342D01*
X89790383Y-129322776D01*
X89695146Y-129370395D01*
X89683597Y-129381769D01*
X89669156Y-129389128D01*
X89621537Y-129436746D01*
X89614178Y-129451188D01*
X89602805Y-129462736D01*
X89555186Y-129557974D01*
X89551752Y-129580771D01*
X89544629Y-129602695D01*
X89544629Y-129840790D01*
X89363676Y-129840790D01*
X89363676Y-129793171D01*
X89359829Y-129781333D01*
X89360690Y-129768917D01*
X89313071Y-129578441D01*
X89307160Y-129568994D01*
X89305500Y-129557973D01*
X89257881Y-129462736D01*
X89246506Y-129451187D01*
X89239148Y-129436746D01*
X89191530Y-129389127D01*
X89177087Y-129381768D01*
X89165540Y-129370395D01*
X89070302Y-129322776D01*
X89047504Y-129319342D01*
X89025581Y-129312219D01*
X88930343Y-129312219D01*
X88908419Y-129319342D01*
X88885621Y-129322776D01*
X88790384Y-129370395D01*
X88778835Y-129381769D01*
X88764394Y-129389128D01*
X88716775Y-129436746D01*
X88709416Y-129451188D01*
X88698043Y-129462736D01*
X88650424Y-129557974D01*
X88648763Y-129568995D01*
X88642853Y-129578442D01*
X88595234Y-129768917D01*
X88596094Y-129781333D01*
X88592248Y-129793171D01*
X88592248Y-130031266D01*
X87935105Y-130031266D01*
X87935105Y-129983647D01*
X87927981Y-129961723D01*
X87924548Y-129938925D01*
X87876929Y-129843688D01*
X87865554Y-129832139D01*
X87858196Y-129817698D01*
X87810578Y-129770079D01*
X87796135Y-129762720D01*
X87784588Y-129751347D01*
X87705740Y-129711923D01*
X87910363Y-129478069D01*
X87918324Y-129459481D01*
X87930211Y-129443121D01*
X87930211Y-129431729D01*
X87934696Y-129421258D01*
X87930211Y-129401538D01*
X87930211Y-129381317D01*
X87923515Y-129372101D01*
X87920989Y-129360993D01*
X87905769Y-129347675D01*
X87893884Y-129331317D01*
X87883050Y-129327797D01*
X87874477Y-129320295D01*
X87854334Y-129318467D01*
X87835105Y-129312219D01*
X87216058Y-129312219D01*
X87157279Y-129331317D01*
X87120952Y-129381317D01*
X87120952Y-129443121D01*
X87157279Y-129493121D01*
X87216058Y-129512219D01*
X87614728Y-129512219D01*
X87426514Y-129727321D01*
X87418552Y-129745908D01*
X87406666Y-129762269D01*
X87406666Y-129773660D01*
X87402181Y-129784132D01*
X87406665Y-129803850D01*
X87406666Y-129824073D01*
X87413361Y-129833288D01*
X87415888Y-129844396D01*
X87431106Y-129857712D01*
X87442993Y-129874073D01*
X87453826Y-129877592D01*
X87462400Y-129885095D01*
X87482542Y-129886922D01*
X87501772Y-129893171D01*
X87621022Y-129893171D01*
X87680631Y-129922976D01*
X87705300Y-129947644D01*
X87735105Y-130007254D01*
X87735105Y-130198135D01*
X87705300Y-130257743D01*
X87680631Y-130282413D01*
X87621022Y-130312219D01*
X87382522Y-130312219D01*
X87322912Y-130282414D01*
X87286769Y-130246270D01*
X87231702Y-130218211D01*
X87170660Y-130227878D01*
X87126957Y-130271580D01*
X87117288Y-130332622D01*
X86942451Y-130332622D01*
X86941503Y-130331317D01*
X86882724Y-130312219D01*
X86505099Y-130312219D01*
X86905816Y-129911501D01*
X86916282Y-129890959D01*
X86929973Y-129872413D01*
X86977592Y-129729556D01*
X86977715Y-129713348D01*
X86982724Y-129697933D01*
X86982724Y-129602695D01*
X86975600Y-129580771D01*
X86972167Y-129557973D01*
X86924548Y-129462736D01*
X86913173Y-129451187D01*
X86905815Y-129436746D01*
X86858197Y-129389127D01*
X86843754Y-129381768D01*
X86832207Y-129370395D01*
X86736969Y-129322776D01*
X86714171Y-129319342D01*
X86692248Y-129312219D01*
X86454153Y-129312219D01*
X86432229Y-129319342D01*
X86409431Y-129322776D01*
X86314194Y-129370395D01*
X86302645Y-129381769D01*
X86288204Y-129389128D01*
X86240585Y-129436746D01*
X86212527Y-129491814D01*
X86222195Y-129552856D01*
X86265897Y-129596558D01*
X86326939Y-129606226D01*
X86382007Y-129578168D01*
X86418150Y-129542023D01*
X86477760Y-129512219D01*
X86668641Y-129512219D01*
X86728250Y-129542024D01*
X86752919Y-129566692D01*
X86782724Y-129626301D01*
X86782724Y-129681706D01*
X86747702Y-129786770D01*
X86192966Y-130341508D01*
X86182335Y-130362371D01*
X86168571Y-130381317D01*
X86168571Y-130389386D01*
X86164908Y-130396576D01*
X85851640Y-130396576D01*
X86072136Y-129779186D01*
X86073920Y-129717408D01*
X86039051Y-129666380D01*
X85980848Y-129645593D01*
X85921543Y-129662987D01*
X85883788Y-129711919D01*
X85739867Y-130114897D01*
X85595946Y-129711918D01*
X85558191Y-129662987D01*
X85498886Y-129645593D01*
X85440683Y-129666380D01*
X85405814Y-129717408D01*
X84596877Y-129717408D01*
X84596877Y-129714650D01*
X84560550Y-129664650D01*
X84501771Y-129645552D01*
X84406533Y-129645552D01*
X84384609Y-129652675D01*
X84361811Y-129656109D01*
X84297451Y-129688289D01*
X84296959Y-129686773D01*
X84246959Y-129650446D01*
X84185155Y-129650446D01*
X84135155Y-129686773D01*
X84116057Y-129745552D01*
X84116057Y-130412219D01*
X83827051Y-130412219D01*
X83828620Y-130410674D01*
X83838751Y-130349707D01*
X83811111Y-130294428D01*
X83756259Y-130265952D01*
X83695144Y-130275157D01*
X83621021Y-130312219D01*
X83477759Y-130312219D01*
X83433449Y-130290064D01*
X83411295Y-130245754D01*
X83411295Y-130160865D01*
X83807096Y-130081705D01*
X83812354Y-130078753D01*
X83818387Y-130078753D01*
X83838892Y-130063855D01*
X83860988Y-130051451D01*
X83863507Y-130045971D01*
X83868387Y-130042426D01*
X83876218Y-130018321D01*
X83886804Y-129995297D01*
X83885621Y-129989383D01*
X83887485Y-129983647D01*
X83887485Y-129888409D01*
X83880361Y-129866485D01*
X83876928Y-129843687D01*
X83829309Y-129748450D01*
X83828750Y-129747883D01*
X83828620Y-129747097D01*
X83807117Y-129725919D01*
X83785940Y-129704417D01*
X83785153Y-129704286D01*
X83784587Y-129703728D01*
X83689349Y-129656109D01*
X83666551Y-129652675D01*
X83644628Y-129645552D01*
X83454152Y-129645552D01*
X83432228Y-129652675D01*
X83409430Y-129656109D01*
X83314193Y-129703728D01*
X83313626Y-129704286D01*
X83312840Y-129704417D01*
X83291662Y-129725919D01*
X83270160Y-129747097D01*
X83270029Y-129747883D01*
X83269471Y-129748450D01*
X83221852Y-129843688D01*
X83218418Y-129866485D01*
X83211295Y-129888409D01*
X83211295Y-130269361D01*
X82946907Y-130269361D01*
X82935104Y-130245754D01*
X82935104Y-129412219D01*
X82916006Y-129353440D01*
X82866006Y-129317113D01*
X82804202Y-129317113D01*
X82754202Y-129353440D01*
X82735104Y-129412219D01*
X82735104Y-130269361D01*
X82423097Y-130269361D01*
X82411294Y-130245754D01*
X82411294Y-129412219D01*
X82392196Y-129353440D01*
X82342196Y-129317113D01*
X82280392Y-129317113D01*
X82230392Y-129353440D01*
X82211294Y-129412219D01*
X82211294Y-130269361D01*
X81970716Y-130269361D01*
X81972165Y-130266464D01*
X81975598Y-130243665D01*
X81982722Y-130221742D01*
X81982722Y-129936028D01*
X81975598Y-129914104D01*
X81972165Y-129891306D01*
X81924546Y-129796069D01*
X81913171Y-129784520D01*
X81905813Y-129770079D01*
X81858195Y-129722460D01*
X81843752Y-129715101D01*
X81832205Y-129703728D01*
X81736967Y-129656109D01*
X81714169Y-129652675D01*
X81692246Y-129645552D01*
X81549389Y-129645552D01*
X81527465Y-129652675D01*
X81504667Y-129656109D01*
X81409430Y-129703728D01*
X81397881Y-129715102D01*
X81383440Y-129722461D01*
X81335821Y-129770079D01*
X81328462Y-129784521D01*
X81317089Y-129796069D01*
X81269470Y-129891307D01*
X81266036Y-129914104D01*
X81258913Y-129936028D01*
X81258913Y-130221742D01*
X80887484Y-130221742D01*
X80887484Y-129959635D01*
X80917289Y-129900025D01*
X80941957Y-129875356D01*
X81001567Y-129845552D01*
X81073198Y-129845552D01*
X81131977Y-129826454D01*
X81168304Y-129776454D01*
X81168304Y-129714650D01*
X81131977Y-129664650D01*
X81073198Y-129645552D01*
X80977960Y-129645552D01*
X80956036Y-129652675D01*
X80933238Y-129656109D01*
X80868878Y-129688289D01*
X80868386Y-129686773D01*
X80818386Y-129650446D01*
X80756582Y-129650446D01*
X80706582Y-129686773D01*
X80687484Y-129745552D01*
X80687484Y-130412219D01*
X80549256Y-130412219D01*
X80549256Y-130381317D01*
X80512929Y-130331317D01*
X80454150Y-130312219D01*
X80382519Y-130312219D01*
X80338209Y-130290064D01*
X80316055Y-130245754D01*
X80316055Y-129845552D01*
X80454150Y-129845552D01*
X80512929Y-129826454D01*
X80549256Y-129776454D01*
X80549256Y-129714650D01*
X80512929Y-129664650D01*
X80454150Y-129645552D01*
X80316055Y-129645552D01*
X80316055Y-129412219D01*
X80296957Y-129353440D01*
X80246957Y-129317113D01*
X80185153Y-129317113D01*
X80135153Y-129353440D01*
X80116055Y-129412219D01*
X80116055Y-129645552D01*
X80073198Y-129645552D01*
X80014419Y-129664650D01*
X79978092Y-129714650D01*
X79978092Y-129776454D01*
X79795690Y-129776454D01*
X79781688Y-129748450D01*
X79781129Y-129747883D01*
X79780999Y-129747097D01*
X79759496Y-129725919D01*
X79738319Y-129704417D01*
X79737532Y-129704286D01*
X79736966Y-129703728D01*
X79641728Y-129656109D01*
X79618930Y-129652675D01*
X79597007Y-129645552D01*
X79454150Y-129645552D01*
X79432226Y-129652675D01*
X79409428Y-129656109D01*
X79374219Y-129673713D01*
X79342195Y-129650446D01*
X79280391Y-129650446D01*
X79230391Y-129686773D01*
X79211293Y-129745552D01*
X79211293Y-130412219D01*
X78881285Y-130412219D01*
X78905813Y-130387690D01*
X78913170Y-130373249D01*
X78924545Y-130361701D01*
X78972164Y-130266464D01*
X78975597Y-130243665D01*
X78982721Y-130221742D01*
X78982721Y-129936028D01*
X78975597Y-129914104D01*
X78972164Y-129891306D01*
X78924545Y-129796069D01*
X78913170Y-129784520D01*
X78905812Y-129770079D01*
X78858194Y-129722460D01*
X78843751Y-129715101D01*
X78832204Y-129703728D01*
X78736966Y-129656109D01*
X78714168Y-129652675D01*
X78692245Y-129645552D01*
X78549388Y-129645552D01*
X78527464Y-129652675D01*
X78504666Y-129656109D01*
X78409429Y-129703728D01*
X78397880Y-129715102D01*
X78383439Y-129722461D01*
X78335820Y-129770079D01*
X78328461Y-129784521D01*
X78317088Y-129796069D01*
X78269469Y-129891307D01*
X78266035Y-129914104D01*
X78258912Y-129936028D01*
X78258912Y-130221742D01*
X77613573Y-130221742D01*
X77601769Y-130198134D01*
X77601769Y-129959635D01*
X77631574Y-129900025D01*
X77656242Y-129875356D01*
X77715852Y-129845552D01*
X77859114Y-129845552D01*
X77933237Y-129882614D01*
X77994352Y-129891819D01*
X78049204Y-129863343D01*
X78076844Y-129808064D01*
X78066713Y-129747097D01*
X78022680Y-129703728D01*
X77927442Y-129656109D01*
X77904644Y-129652675D01*
X77882721Y-129645552D01*
X77692245Y-129645552D01*
X77670321Y-129652675D01*
X77647523Y-129656109D01*
X77552286Y-129703728D01*
X77540737Y-129715102D01*
X77526296Y-129722461D01*
X77478677Y-129770079D01*
X77471318Y-129784521D01*
X77459945Y-129796069D01*
X77412326Y-129891307D01*
X77408892Y-129914104D01*
X77401769Y-129936028D01*
X77401769Y-130221742D01*
X76458911Y-130221742D01*
X76451787Y-130199818D01*
X76448354Y-130177020D01*
X76400735Y-130081783D01*
X76400176Y-130081216D01*
X76400046Y-130080430D01*
X76378543Y-130059252D01*
X76357366Y-130037750D01*
X76356579Y-130037619D01*
X76356013Y-130037061D01*
X76260775Y-129989442D01*
X76237977Y-129986008D01*
X76216054Y-129978885D01*
X76096804Y-129978885D01*
X76052495Y-129956730D01*
X76030340Y-129912420D01*
X76030340Y-129912016D01*
X76052495Y-129867706D01*
X76096804Y-129845552D01*
X76192447Y-129845552D01*
X76266570Y-129882614D01*
X76327685Y-129891819D01*
X76382537Y-129863343D01*
X76410177Y-129808064D01*
X76400046Y-129747097D01*
X76356013Y-129703728D01*
X76260775Y-129656109D01*
X76237977Y-129652675D01*
X76216054Y-129645552D01*
X76073197Y-129645552D01*
X76051273Y-129652675D01*
X76028475Y-129656109D01*
X75933238Y-129703728D01*
X75932671Y-129704286D01*
X75931885Y-129704417D01*
X75910707Y-129725919D01*
X75889205Y-129747097D01*
X75889074Y-129747883D01*
X75888516Y-129748450D01*
X75840897Y-129843688D01*
X75837463Y-129866485D01*
X75830340Y-129888409D01*
X75830340Y-129936028D01*
X75649387Y-129936028D01*
X75649387Y-129840790D01*
X75645540Y-129828952D01*
X75646401Y-129816536D01*
X75598782Y-129626060D01*
X75592871Y-129616613D01*
X75591211Y-129605592D01*
X75543592Y-129510355D01*
X75532218Y-129498807D01*
X75524860Y-129484365D01*
X75429622Y-129389127D01*
X75409078Y-129378659D01*
X75390533Y-129364970D01*
X75247677Y-129317351D01*
X75231469Y-129317227D01*
X75216054Y-129312219D01*
X74977959Y-129312219D01*
X74962896Y-129317113D01*
X74947057Y-129317113D01*
X74934243Y-129326422D01*
X74919180Y-129331317D01*
X74909870Y-129344130D01*
X74897057Y-129353440D01*
X74892162Y-129368503D01*
X74882853Y-129381317D01*
X74882853Y-129397156D01*
X74877959Y-129412219D01*
X74877959Y-130412219D01*
X74644493Y-130412219D01*
X74644493Y-130381317D01*
X74608166Y-130331317D01*
X74549387Y-130312219D01*
X74173197Y-130312219D01*
X74173197Y-129988409D01*
X74406530Y-129988409D01*
X74465309Y-129969311D01*
X74501636Y-129919311D01*
X74501636Y-129857507D01*
X74465309Y-129807507D01*
X74406530Y-129788409D01*
X74173197Y-129788409D01*
X74173197Y-129512219D01*
X74549387Y-129512219D01*
X74608166Y-129493121D01*
X74644493Y-129443121D01*
X74644493Y-129381317D01*
X74608166Y-129331317D01*
X74549387Y-129312219D01*
X74073197Y-129312219D01*
X74058134Y-129317113D01*
X74042295Y-129317113D01*
X74029481Y-129326422D01*
X74014418Y-129331317D01*
X74005108Y-129344130D01*
X73992295Y-129353440D01*
X73987400Y-129368503D01*
X73978091Y-129381317D01*
X73978091Y-129397156D01*
X73973197Y-129412219D01*
X73973197Y-130412219D01*
X73834969Y-130412219D01*
X73834969Y-130381317D01*
X73798642Y-130331317D01*
X73739863Y-130312219D01*
X73363673Y-130312219D01*
X73363673Y-129412219D01*
X73344575Y-129353440D01*
X73294575Y-129317113D01*
X73232771Y-129317113D01*
X73182771Y-129353440D01*
X73163673Y-129412219D01*
X73163673Y-130412219D01*
X73020816Y-130412219D01*
X73020816Y-129169362D01*
X92839866Y-129169362D01*
X92839866Y-130655076D01*
G37*
D10*
X144576969Y-101739819D02*
X144100779Y-101739819D01*
X144100779Y-101739819D02*
X144053160Y-102216009D01*
X144053160Y-102216009D02*
X144100779Y-102168390D01*
X144100779Y-102168390D02*
X144196017Y-102120771D01*
X144196017Y-102120771D02*
X144434112Y-102120771D01*
X144434112Y-102120771D02*
X144529350Y-102168390D01*
X144529350Y-102168390D02*
X144576969Y-102216009D01*
X144576969Y-102216009D02*
X144624588Y-102311247D01*
X144624588Y-102311247D02*
X144624588Y-102549342D01*
X144624588Y-102549342D02*
X144576969Y-102644580D01*
X144576969Y-102644580D02*
X144529350Y-102692200D01*
X144529350Y-102692200D02*
X144434112Y-102739819D01*
X144434112Y-102739819D02*
X144196017Y-102739819D01*
X144196017Y-102739819D02*
X144100779Y-102692200D01*
X144100779Y-102692200D02*
X144053160Y-102644580D01*
X145767445Y-101692200D02*
X144910303Y-102977914D01*
X146624588Y-101787438D02*
X146529350Y-101739819D01*
X146529350Y-101739819D02*
X146386493Y-101739819D01*
X146386493Y-101739819D02*
X146243636Y-101787438D01*
X146243636Y-101787438D02*
X146148398Y-101882676D01*
X146148398Y-101882676D02*
X146100779Y-101977914D01*
X146100779Y-101977914D02*
X146053160Y-102168390D01*
X146053160Y-102168390D02*
X146053160Y-102311247D01*
X146053160Y-102311247D02*
X146100779Y-102501723D01*
X146100779Y-102501723D02*
X146148398Y-102596961D01*
X146148398Y-102596961D02*
X146243636Y-102692200D01*
X146243636Y-102692200D02*
X146386493Y-102739819D01*
X146386493Y-102739819D02*
X146481731Y-102739819D01*
X146481731Y-102739819D02*
X146624588Y-102692200D01*
X146624588Y-102692200D02*
X146672207Y-102644580D01*
X146672207Y-102644580D02*
X146672207Y-102311247D01*
X146672207Y-102311247D02*
X146481731Y-102311247D01*
D11*
G36*
X129745782Y-129494241D02*
G01*
X129947587Y-129615324D01*
X130068669Y-129817128D01*
X130108969Y-130018627D01*
X130068669Y-130220128D01*
X129947587Y-130421931D01*
X129745782Y-130543014D01*
X129544282Y-130583314D01*
X129342783Y-130543014D01*
X129140979Y-130421931D01*
X129019897Y-130220128D01*
X128998645Y-130113866D01*
X129110950Y-130113866D01*
X129118073Y-130135789D01*
X129121507Y-130158587D01*
X129169126Y-130253825D01*
X129180499Y-130265372D01*
X129187858Y-130279815D01*
X129283096Y-130375053D01*
X129297538Y-130382411D01*
X129309086Y-130393785D01*
X129404323Y-130441404D01*
X129427121Y-130444837D01*
X129449045Y-130451961D01*
X129639521Y-130451961D01*
X129661444Y-130444837D01*
X129684242Y-130441404D01*
X129779481Y-130393785D01*
X129823514Y-130350417D01*
X129833645Y-130289449D01*
X129806006Y-130234170D01*
X129751153Y-130205694D01*
X129690039Y-130214899D01*
X129615914Y-130251961D01*
X129472652Y-130251961D01*
X129413043Y-130222156D01*
X129340754Y-130149867D01*
X129310949Y-130090258D01*
X129310949Y-129946997D01*
X129340754Y-129887388D01*
X129413044Y-129815098D01*
X129472652Y-129785295D01*
X129615914Y-129785295D01*
X129690039Y-129822357D01*
X129751153Y-129831562D01*
X129806006Y-129803086D01*
X129833645Y-129747807D01*
X129823514Y-129686839D01*
X129779481Y-129643471D01*
X129684242Y-129595852D01*
X129661444Y-129592418D01*
X129639521Y-129585295D01*
X129449045Y-129585295D01*
X129427121Y-129592418D01*
X129404323Y-129595852D01*
X129309086Y-129643471D01*
X129297538Y-129654844D01*
X129283096Y-129662203D01*
X129187858Y-129757441D01*
X129180499Y-129771883D01*
X129169126Y-129783431D01*
X129121507Y-129878669D01*
X129118073Y-129901466D01*
X129110950Y-129923390D01*
X129110950Y-130113866D01*
X128998645Y-130113866D01*
X128979597Y-130018628D01*
X129019897Y-129817129D01*
X129140979Y-129615324D01*
X129342784Y-129494241D01*
X129544282Y-129453941D01*
X129745782Y-129494241D01*
G37*
G36*
X123850699Y-129950307D02*
G01*
X123868149Y-129985207D01*
X123596664Y-130039504D01*
X123596664Y-129994616D01*
X123618819Y-129950306D01*
X123663128Y-129928152D01*
X123806390Y-129928152D01*
X123850699Y-129950307D01*
G37*
G36*
X125850699Y-129950307D02*
G01*
X125868149Y-129985207D01*
X125596664Y-130039504D01*
X125596664Y-129994616D01*
X125618819Y-129950306D01*
X125663128Y-129928152D01*
X125806390Y-129928152D01*
X125850699Y-129950307D01*
G37*
G36*
X132675524Y-129624624D02*
G01*
X132700193Y-129649292D01*
X132735646Y-129720199D01*
X132777616Y-129888080D01*
X132777616Y-130101556D01*
X132735646Y-130269437D01*
X132700193Y-130340343D01*
X132675524Y-130365013D01*
X132615915Y-130394819D01*
X132567891Y-130394819D01*
X132508281Y-130365014D01*
X132483614Y-130340346D01*
X132448159Y-130269437D01*
X132406188Y-130101555D01*
X132406188Y-129888081D01*
X132448159Y-129720199D01*
X132483613Y-129649292D01*
X132508281Y-129624623D01*
X132567891Y-129594819D01*
X132615915Y-129594819D01*
X132675524Y-129624624D01*
G37*
G36*
X135025236Y-130926210D02*
G01*
X120777616Y-130926210D01*
X120777616Y-130494819D01*
X120920473Y-130494819D01*
X120925367Y-130509881D01*
X120925367Y-130525721D01*
X120934676Y-130538534D01*
X120939571Y-130553598D01*
X120952384Y-130562907D01*
X120961694Y-130575721D01*
X120976757Y-130580615D01*
X120989571Y-130589925D01*
X121005410Y-130589925D01*
X121020473Y-130594819D01*
X121496663Y-130594819D01*
X121555442Y-130575721D01*
X121591769Y-130525721D01*
X121591769Y-130463917D01*
X121555442Y-130413917D01*
X121496663Y-130394819D01*
X121120473Y-130394819D01*
X121120473Y-130351961D01*
X121729997Y-130351961D01*
X121737120Y-130373884D01*
X121740554Y-130396682D01*
X121788173Y-130491921D01*
X121788731Y-130492487D01*
X121788862Y-130493274D01*
X121810347Y-130514435D01*
X121831541Y-130535954D01*
X121832328Y-130536084D01*
X121832895Y-130536643D01*
X121928132Y-130584262D01*
X121950930Y-130587695D01*
X121972854Y-130594819D01*
X122115711Y-130594819D01*
X122137634Y-130587695D01*
X122160432Y-130584262D01*
X122195640Y-130566657D01*
X122227666Y-130589925D01*
X122289470Y-130589925D01*
X122339470Y-130553598D01*
X122358568Y-130494819D01*
X122634759Y-130494819D01*
X122653857Y-130553598D01*
X122703857Y-130589925D01*
X122765661Y-130589925D01*
X122815661Y-130553598D01*
X122834759Y-130494819D01*
X122834759Y-130286882D01*
X123035711Y-130554819D01*
X123086257Y-130590384D01*
X123148053Y-130589445D01*
X123197496Y-130552363D01*
X123215700Y-130493301D01*
X123195711Y-130434819D01*
X123133568Y-130351961D01*
X123396664Y-130351961D01*
X123403787Y-130373884D01*
X123407221Y-130396682D01*
X123454840Y-130491921D01*
X123455398Y-130492487D01*
X123455529Y-130493274D01*
X123477014Y-130514435D01*
X123498208Y-130535954D01*
X123498995Y-130536084D01*
X123499562Y-130536643D01*
X123594799Y-130584262D01*
X123617597Y-130587695D01*
X123639521Y-130594819D01*
X123829997Y-130594819D01*
X123851920Y-130587695D01*
X123874718Y-130584262D01*
X123969956Y-130536643D01*
X124012420Y-130494819D01*
X124301426Y-130494819D01*
X124320524Y-130553598D01*
X124370524Y-130589925D01*
X124432328Y-130589925D01*
X124482328Y-130553598D01*
X124501426Y-130494819D01*
X124501426Y-129945575D01*
X124644141Y-130251393D01*
X124657235Y-130265426D01*
X124666537Y-130282219D01*
X124677813Y-130287481D01*
X124686304Y-130296581D01*
X124705151Y-130300238D01*
X124722543Y-130308355D01*
X124734756Y-130305984D01*
X124746975Y-130308356D01*
X124764371Y-130300237D01*
X124783214Y-130296581D01*
X124791702Y-130287483D01*
X124802981Y-130282220D01*
X124812284Y-130265425D01*
X124825377Y-130251393D01*
X124968091Y-129945574D01*
X124968092Y-130494819D01*
X124987190Y-130553598D01*
X125037190Y-130589925D01*
X125098994Y-130589925D01*
X125148994Y-130553598D01*
X125168092Y-130494819D01*
X125168092Y-130351961D01*
X125396664Y-130351961D01*
X125403787Y-130373884D01*
X125407221Y-130396682D01*
X125454840Y-130491921D01*
X125455398Y-130492487D01*
X125455529Y-130493274D01*
X125477014Y-130514435D01*
X125498208Y-130535954D01*
X125498995Y-130536084D01*
X125499562Y-130536643D01*
X125594799Y-130584262D01*
X125617597Y-130587695D01*
X125639521Y-130594819D01*
X125829997Y-130594819D01*
X125851920Y-130587695D01*
X125874718Y-130584262D01*
X125969956Y-130536643D01*
X126013989Y-130493274D01*
X126024120Y-130432307D01*
X125996480Y-130377028D01*
X125941628Y-130348552D01*
X125880513Y-130357757D01*
X125806390Y-130394819D01*
X125663128Y-130394819D01*
X125618818Y-130372664D01*
X125596664Y-130328354D01*
X125596664Y-130304342D01*
X126253807Y-130304342D01*
X126260930Y-130326265D01*
X126264364Y-130349063D01*
X126311983Y-130444301D01*
X126323356Y-130455848D01*
X126330715Y-130470290D01*
X126378333Y-130517910D01*
X126392776Y-130525269D01*
X126404324Y-130536643D01*
X126499561Y-130584262D01*
X126522359Y-130587695D01*
X126544283Y-130594819D01*
X126734759Y-130594819D01*
X126756682Y-130587695D01*
X126779480Y-130584262D01*
X126874718Y-130536643D01*
X126917182Y-130494819D01*
X127158569Y-130494819D01*
X127177667Y-130553598D01*
X127227667Y-130589925D01*
X127289471Y-130589925D01*
X127339471Y-130553598D01*
X127358569Y-130494819D01*
X127358569Y-129964811D01*
X127365423Y-129957956D01*
X127425033Y-129928152D01*
X127520676Y-129928152D01*
X127564985Y-129950307D01*
X127587140Y-129994616D01*
X127587140Y-130494819D01*
X127606238Y-130553598D01*
X127656238Y-130589925D01*
X127718042Y-130589925D01*
X127768042Y-130553598D01*
X127787140Y-130494819D01*
X127787140Y-130038240D01*
X128779559Y-130038240D01*
X128827178Y-130276334D01*
X128835619Y-130291369D01*
X128839487Y-130308172D01*
X128982344Y-130546268D01*
X129000679Y-130562227D01*
X129016643Y-130580568D01*
X129254738Y-130723425D01*
X129271540Y-130727292D01*
X129286576Y-130735734D01*
X129524671Y-130783353D01*
X129544283Y-130781052D01*
X129563895Y-130783353D01*
X129801990Y-130735734D01*
X129817025Y-130727293D01*
X129833829Y-130723425D01*
X130071923Y-130580568D01*
X130087883Y-130562231D01*
X130106223Y-130546268D01*
X130146478Y-130479176D01*
X131207420Y-130479176D01*
X131211083Y-130502303D01*
X131211083Y-130525721D01*
X131215825Y-130532248D01*
X131217088Y-130540218D01*
X131233644Y-130556774D01*
X131247410Y-130575721D01*
X131255084Y-130578214D01*
X131260790Y-130583920D01*
X131283919Y-130587583D01*
X131306189Y-130594819D01*
X131925236Y-130594819D01*
X131984015Y-130575721D01*
X132020342Y-130525721D01*
X132020342Y-130463917D01*
X131984015Y-130413917D01*
X131925236Y-130394819D01*
X131547611Y-130394819D01*
X131828563Y-130113866D01*
X132206189Y-130113866D01*
X132210035Y-130125703D01*
X132209175Y-130138120D01*
X132256794Y-130328595D01*
X132262704Y-130338041D01*
X132264365Y-130349063D01*
X132311984Y-130444301D01*
X132323357Y-130455848D01*
X132330716Y-130470290D01*
X132378334Y-130517910D01*
X132392777Y-130525269D01*
X132404325Y-130536643D01*
X132499562Y-130584262D01*
X132522360Y-130587695D01*
X132544284Y-130594819D01*
X132639522Y-130594819D01*
X132661445Y-130587695D01*
X132684243Y-130584262D01*
X132779481Y-130536643D01*
X132791029Y-130525268D01*
X132805471Y-130517910D01*
X132844204Y-130479176D01*
X133112182Y-130479176D01*
X133115845Y-130502303D01*
X133115845Y-130525721D01*
X133120587Y-130532248D01*
X133121850Y-130540218D01*
X133138406Y-130556774D01*
X133152172Y-130575721D01*
X133159846Y-130578214D01*
X133165552Y-130583920D01*
X133188681Y-130587583D01*
X133210951Y-130594819D01*
X133829998Y-130594819D01*
X133888777Y-130575721D01*
X133925104Y-130525721D01*
X133925104Y-130463917D01*
X133889725Y-130415222D01*
X134064562Y-130415222D01*
X134092621Y-130470290D01*
X134140239Y-130517910D01*
X134154682Y-130525269D01*
X134166230Y-130536643D01*
X134261467Y-130584262D01*
X134284265Y-130587695D01*
X134306189Y-130594819D01*
X134591903Y-130594819D01*
X134613826Y-130587695D01*
X134636624Y-130584262D01*
X134731862Y-130536643D01*
X134743410Y-130525268D01*
X134757852Y-130517910D01*
X134805471Y-130470290D01*
X134812828Y-130455849D01*
X134824203Y-130444301D01*
X134871822Y-130349064D01*
X134875255Y-130326265D01*
X134882379Y-130304342D01*
X134882379Y-130066247D01*
X134875255Y-130044323D01*
X134871822Y-130021525D01*
X134824203Y-129926288D01*
X134812828Y-129914739D01*
X134805470Y-129900298D01*
X134757852Y-129852679D01*
X134743409Y-129845320D01*
X134731862Y-129833947D01*
X134653014Y-129794523D01*
X134857637Y-129560669D01*
X134865598Y-129542081D01*
X134877485Y-129525721D01*
X134877485Y-129514329D01*
X134881970Y-129503858D01*
X134877485Y-129484138D01*
X134877485Y-129463917D01*
X134870789Y-129454701D01*
X134868263Y-129443593D01*
X134853043Y-129430275D01*
X134841158Y-129413917D01*
X134830324Y-129410397D01*
X134821751Y-129402895D01*
X134801608Y-129401067D01*
X134782379Y-129394819D01*
X134163332Y-129394819D01*
X134104553Y-129413917D01*
X134068226Y-129463917D01*
X134068226Y-129525721D01*
X134104553Y-129575721D01*
X134163332Y-129594819D01*
X134562002Y-129594819D01*
X134373788Y-129809921D01*
X134365826Y-129828508D01*
X134353940Y-129844869D01*
X134353940Y-129856260D01*
X134349455Y-129866732D01*
X134353940Y-129886450D01*
X134353940Y-129906673D01*
X134360635Y-129915888D01*
X134363162Y-129926996D01*
X134378380Y-129940312D01*
X134390267Y-129956673D01*
X134401100Y-129960192D01*
X134409674Y-129967695D01*
X134429816Y-129969522D01*
X134449046Y-129975771D01*
X134568296Y-129975771D01*
X134627905Y-130005576D01*
X134652574Y-130030244D01*
X134682379Y-130089854D01*
X134682379Y-130280734D01*
X134652574Y-130340343D01*
X134627905Y-130365013D01*
X134568296Y-130394819D01*
X134329796Y-130394819D01*
X134270186Y-130365014D01*
X134234043Y-130328870D01*
X134178976Y-130300811D01*
X134117934Y-130310478D01*
X134074231Y-130354180D01*
X134064562Y-130415222D01*
X133889725Y-130415222D01*
X133888777Y-130413917D01*
X133829998Y-130394819D01*
X133452373Y-130394819D01*
X133853090Y-129994101D01*
X133863556Y-129973559D01*
X133877247Y-129955013D01*
X133924866Y-129812156D01*
X133924989Y-129795948D01*
X133929998Y-129780533D01*
X133929998Y-129685295D01*
X133922874Y-129663371D01*
X133919441Y-129640573D01*
X133871822Y-129545336D01*
X133860447Y-129533787D01*
X133853089Y-129519346D01*
X133805471Y-129471727D01*
X133791028Y-129464368D01*
X133779481Y-129452995D01*
X133684243Y-129405376D01*
X133661445Y-129401942D01*
X133639522Y-129394819D01*
X133401427Y-129394819D01*
X133379503Y-129401942D01*
X133356705Y-129405376D01*
X133261468Y-129452995D01*
X133249919Y-129464369D01*
X133235478Y-129471728D01*
X133187859Y-129519346D01*
X133159801Y-129574414D01*
X133169469Y-129635456D01*
X133213171Y-129679158D01*
X133274213Y-129688826D01*
X133329281Y-129660768D01*
X133365424Y-129624623D01*
X133425034Y-129594819D01*
X133615915Y-129594819D01*
X133675524Y-129624624D01*
X133700193Y-129649292D01*
X133729998Y-129708901D01*
X133729998Y-129764306D01*
X133694976Y-129869370D01*
X133140240Y-130424108D01*
X133129609Y-130444971D01*
X133115845Y-130463917D01*
X133115845Y-130471986D01*
X133112182Y-130479176D01*
X132844204Y-130479176D01*
X132853090Y-130470290D01*
X132860447Y-130455849D01*
X132871822Y-130444301D01*
X132919441Y-130349064D01*
X132921101Y-130338042D01*
X132927012Y-130328596D01*
X132974631Y-130138120D01*
X132973770Y-130125703D01*
X132977617Y-130113866D01*
X132977617Y-129875771D01*
X132973770Y-129863933D01*
X132974631Y-129851517D01*
X132927012Y-129661041D01*
X132921101Y-129651594D01*
X132919441Y-129640573D01*
X132871822Y-129545336D01*
X132860447Y-129533787D01*
X132853089Y-129519346D01*
X132805471Y-129471727D01*
X132791028Y-129464368D01*
X132779481Y-129452995D01*
X132684243Y-129405376D01*
X132661445Y-129401942D01*
X132639522Y-129394819D01*
X132544284Y-129394819D01*
X132522360Y-129401942D01*
X132499562Y-129405376D01*
X132404325Y-129452995D01*
X132392776Y-129464369D01*
X132378335Y-129471728D01*
X132330716Y-129519346D01*
X132323357Y-129533788D01*
X132311984Y-129545336D01*
X132264365Y-129640574D01*
X132262704Y-129651595D01*
X132256794Y-129661042D01*
X132209175Y-129851517D01*
X132210035Y-129863933D01*
X132206189Y-129875771D01*
X132206189Y-130113866D01*
X131828563Y-130113866D01*
X131948328Y-129994101D01*
X131958794Y-129973559D01*
X131972485Y-129955013D01*
X132020104Y-129812156D01*
X132020227Y-129795948D01*
X132025236Y-129780533D01*
X132025236Y-129685295D01*
X132018112Y-129663371D01*
X132014679Y-129640573D01*
X131967060Y-129545336D01*
X131955685Y-129533787D01*
X131948327Y-129519346D01*
X131900709Y-129471727D01*
X131886266Y-129464368D01*
X131874719Y-129452995D01*
X131779481Y-129405376D01*
X131756683Y-129401942D01*
X131734760Y-129394819D01*
X131496665Y-129394819D01*
X131474741Y-129401942D01*
X131451943Y-129405376D01*
X131356706Y-129452995D01*
X131345157Y-129464369D01*
X131330716Y-129471728D01*
X131283097Y-129519346D01*
X131255039Y-129574414D01*
X131264707Y-129635456D01*
X131308409Y-129679158D01*
X131369451Y-129688826D01*
X131424519Y-129660768D01*
X131460662Y-129624623D01*
X131520272Y-129594819D01*
X131711153Y-129594819D01*
X131770762Y-129624624D01*
X131795431Y-129649292D01*
X131825236Y-129708902D01*
X131825236Y-129764306D01*
X131790214Y-129869370D01*
X131235478Y-130424108D01*
X131224847Y-130444971D01*
X131211083Y-130463917D01*
X131211083Y-130471986D01*
X131207420Y-130479176D01*
X130146478Y-130479176D01*
X130249080Y-130308172D01*
X130252947Y-130291371D01*
X130261389Y-130276335D01*
X130309008Y-130038240D01*
X130306707Y-130018628D01*
X130309008Y-129999016D01*
X130261389Y-129760921D01*
X130252947Y-129745885D01*
X130249080Y-129729083D01*
X130106223Y-129490988D01*
X130087886Y-129475028D01*
X130071924Y-129456689D01*
X129833829Y-129313831D01*
X129817025Y-129309962D01*
X129801990Y-129301522D01*
X129563895Y-129253903D01*
X129544283Y-129256203D01*
X129524671Y-129253903D01*
X129286576Y-129301522D01*
X129271541Y-129309962D01*
X129254738Y-129313831D01*
X129016643Y-129456689D01*
X129000679Y-129475029D01*
X128982344Y-129490989D01*
X128839487Y-129729083D01*
X128835618Y-129745886D01*
X128827178Y-129760922D01*
X128779559Y-129999016D01*
X128781859Y-130018628D01*
X128779559Y-130038240D01*
X127787140Y-130038240D01*
X127787140Y-129971009D01*
X127780016Y-129949085D01*
X127776583Y-129926287D01*
X127728964Y-129831050D01*
X127728405Y-129830483D01*
X127728275Y-129829697D01*
X127706772Y-129808519D01*
X127685595Y-129787017D01*
X127684808Y-129786886D01*
X127684242Y-129786328D01*
X127589004Y-129738709D01*
X127566206Y-129735275D01*
X127544283Y-129728152D01*
X127401426Y-129728152D01*
X127379502Y-129735275D01*
X127358569Y-129738428D01*
X127358569Y-129494819D01*
X127339471Y-129436040D01*
X127289471Y-129399713D01*
X127227667Y-129399713D01*
X127177667Y-129436040D01*
X127158569Y-129494819D01*
X127158569Y-130494819D01*
X126917182Y-130494819D01*
X126918751Y-130493274D01*
X126928882Y-130432307D01*
X126901242Y-130377028D01*
X126846390Y-130348552D01*
X126785275Y-130357757D01*
X126711152Y-130394819D01*
X126567890Y-130394819D01*
X126508280Y-130365014D01*
X126483613Y-130340346D01*
X126453807Y-130280734D01*
X126453807Y-130042235D01*
X126483612Y-129982625D01*
X126508280Y-129957956D01*
X126567890Y-129928152D01*
X126711152Y-129928152D01*
X126785275Y-129965214D01*
X126846390Y-129974419D01*
X126901242Y-129945943D01*
X126928882Y-129890664D01*
X126918751Y-129829697D01*
X126874718Y-129786328D01*
X126779480Y-129738709D01*
X126756682Y-129735275D01*
X126734759Y-129728152D01*
X126544283Y-129728152D01*
X126522359Y-129735275D01*
X126499561Y-129738709D01*
X126404324Y-129786328D01*
X126392775Y-129797702D01*
X126378334Y-129805061D01*
X126330715Y-129852679D01*
X126323356Y-129867121D01*
X126311983Y-129878669D01*
X126264364Y-129973907D01*
X126260930Y-129996704D01*
X126253807Y-130018628D01*
X126253807Y-130304342D01*
X125596664Y-130304342D01*
X125596664Y-130243465D01*
X125992465Y-130164305D01*
X125997723Y-130161353D01*
X126003756Y-130161353D01*
X126024261Y-130146455D01*
X126046357Y-130134051D01*
X126048876Y-130128571D01*
X126053756Y-130125026D01*
X126061587Y-130100921D01*
X126072173Y-130077897D01*
X126070990Y-130071983D01*
X126072854Y-130066247D01*
X126072854Y-129971009D01*
X126065730Y-129949085D01*
X126062297Y-129926287D01*
X126014678Y-129831050D01*
X126014119Y-129830483D01*
X126013989Y-129829697D01*
X125992486Y-129808519D01*
X125971309Y-129787017D01*
X125970522Y-129786886D01*
X125969956Y-129786328D01*
X125874718Y-129738709D01*
X125851920Y-129735275D01*
X125829997Y-129728152D01*
X125639521Y-129728152D01*
X125617597Y-129735275D01*
X125594799Y-129738709D01*
X125499562Y-129786328D01*
X125498995Y-129786886D01*
X125498209Y-129787017D01*
X125477031Y-129808519D01*
X125455529Y-129829697D01*
X125455398Y-129830483D01*
X125454840Y-129831050D01*
X125407221Y-129926288D01*
X125403787Y-129949085D01*
X125396664Y-129971009D01*
X125396664Y-130351961D01*
X125168092Y-130351961D01*
X125168092Y-129494819D01*
X125165063Y-129485496D01*
X125166261Y-129475766D01*
X125155716Y-129456729D01*
X125148994Y-129436040D01*
X125141064Y-129430278D01*
X125136314Y-129421703D01*
X125116595Y-129412500D01*
X125098994Y-129399713D01*
X125089192Y-129399713D01*
X125080308Y-129395567D01*
X125058946Y-129399713D01*
X125037190Y-129399713D01*
X125029260Y-129405474D01*
X125019637Y-129407342D01*
X125004793Y-129423250D01*
X124987190Y-129436040D01*
X124984160Y-129445363D01*
X124977474Y-129452530D01*
X124734758Y-129972633D01*
X124492044Y-129452530D01*
X124485357Y-129445363D01*
X124482328Y-129436040D01*
X124464724Y-129423250D01*
X124449881Y-129407342D01*
X124440258Y-129405474D01*
X124432328Y-129399713D01*
X124410569Y-129399713D01*
X124389210Y-129395568D01*
X124380328Y-129399713D01*
X124370524Y-129399713D01*
X124352919Y-129412503D01*
X124333204Y-129421704D01*
X124328454Y-129430278D01*
X124320524Y-129436040D01*
X124313800Y-129456732D01*
X124303257Y-129475767D01*
X124304454Y-129485497D01*
X124301426Y-129494819D01*
X124301426Y-130494819D01*
X124012420Y-130494819D01*
X124013989Y-130493274D01*
X124024120Y-130432307D01*
X123996480Y-130377028D01*
X123941628Y-130348552D01*
X123880513Y-130357757D01*
X123806390Y-130394819D01*
X123663128Y-130394819D01*
X123618818Y-130372664D01*
X123596664Y-130328354D01*
X123596664Y-130243465D01*
X123992465Y-130164305D01*
X123997723Y-130161353D01*
X124003756Y-130161353D01*
X124024261Y-130146455D01*
X124046357Y-130134051D01*
X124048876Y-130128571D01*
X124053756Y-130125026D01*
X124061587Y-130100921D01*
X124072173Y-130077897D01*
X124070990Y-130071983D01*
X124072854Y-130066247D01*
X124072854Y-129971009D01*
X124065730Y-129949085D01*
X124062297Y-129926287D01*
X124014678Y-129831050D01*
X124014119Y-129830483D01*
X124013989Y-129829697D01*
X123992486Y-129808519D01*
X123971309Y-129787017D01*
X123970522Y-129786886D01*
X123969956Y-129786328D01*
X123874718Y-129738709D01*
X123851920Y-129735275D01*
X123829997Y-129728152D01*
X123639521Y-129728152D01*
X123617597Y-129735275D01*
X123594799Y-129738709D01*
X123499562Y-129786328D01*
X123498995Y-129786886D01*
X123498209Y-129787017D01*
X123477031Y-129808519D01*
X123455529Y-129829697D01*
X123455398Y-129830483D01*
X123454840Y-129831050D01*
X123407221Y-129926288D01*
X123403787Y-129949085D01*
X123396664Y-129971009D01*
X123396664Y-130351961D01*
X123133568Y-130351961D01*
X122962034Y-130123249D01*
X123186421Y-129898863D01*
X123214480Y-129843796D01*
X123204812Y-129782753D01*
X123161110Y-129739051D01*
X123100067Y-129729383D01*
X123045000Y-129757442D01*
X122834759Y-129967682D01*
X122834759Y-129494819D01*
X122815661Y-129436040D01*
X122765661Y-129399713D01*
X122703857Y-129399713D01*
X122653857Y-129436040D01*
X122634759Y-129494819D01*
X122634759Y-130494819D01*
X122358568Y-130494819D01*
X122358568Y-129828152D01*
X122339470Y-129769373D01*
X122289470Y-129733046D01*
X122227666Y-129733046D01*
X122177666Y-129769373D01*
X122158568Y-129828152D01*
X122158568Y-130358159D01*
X122151713Y-130365013D01*
X122092104Y-130394819D01*
X121996461Y-130394819D01*
X121952151Y-130372664D01*
X121929997Y-130328354D01*
X121929997Y-129828152D01*
X121910899Y-129769373D01*
X121860899Y-129733046D01*
X121799095Y-129733046D01*
X121749095Y-129769373D01*
X121729997Y-129828152D01*
X121729997Y-130351961D01*
X121120473Y-130351961D01*
X121120473Y-129494819D01*
X121101375Y-129436040D01*
X121051375Y-129399713D01*
X120989571Y-129399713D01*
X120939571Y-129436040D01*
X120920473Y-129494819D01*
X120920473Y-130494819D01*
X120777616Y-130494819D01*
X120777616Y-129111046D01*
X135025236Y-129111046D01*
X135025236Y-130926210D01*
G37*
D10*
X96707438Y-93119411D02*
X96659819Y-93214649D01*
X96659819Y-93214649D02*
X96659819Y-93357506D01*
X96659819Y-93357506D02*
X96707438Y-93500363D01*
X96707438Y-93500363D02*
X96802676Y-93595601D01*
X96802676Y-93595601D02*
X96897914Y-93643220D01*
X96897914Y-93643220D02*
X97088390Y-93690839D01*
X97088390Y-93690839D02*
X97231247Y-93690839D01*
X97231247Y-93690839D02*
X97421723Y-93643220D01*
X97421723Y-93643220D02*
X97516961Y-93595601D01*
X97516961Y-93595601D02*
X97612200Y-93500363D01*
X97612200Y-93500363D02*
X97659819Y-93357506D01*
X97659819Y-93357506D02*
X97659819Y-93262268D01*
X97659819Y-93262268D02*
X97612200Y-93119411D01*
X97612200Y-93119411D02*
X97564580Y-93071792D01*
X97564580Y-93071792D02*
X97231247Y-93071792D01*
X97231247Y-93071792D02*
X97231247Y-93262268D01*
X97659819Y-92643220D02*
X96659819Y-92643220D01*
X96659819Y-92643220D02*
X96659819Y-92405125D01*
X96659819Y-92405125D02*
X96707438Y-92262268D01*
X96707438Y-92262268D02*
X96802676Y-92167030D01*
X96802676Y-92167030D02*
X96897914Y-92119411D01*
X96897914Y-92119411D02*
X97088390Y-92071792D01*
X97088390Y-92071792D02*
X97231247Y-92071792D01*
X97231247Y-92071792D02*
X97421723Y-92119411D01*
X97421723Y-92119411D02*
X97516961Y-92167030D01*
X97516961Y-92167030D02*
X97612200Y-92262268D01*
X97612200Y-92262268D02*
X97659819Y-92405125D01*
X97659819Y-92405125D02*
X97659819Y-92643220D01*
X96659819Y-91167030D02*
X96659819Y-91643220D01*
X96659819Y-91643220D02*
X97136009Y-91690839D01*
X97136009Y-91690839D02*
X97088390Y-91643220D01*
X97088390Y-91643220D02*
X97040771Y-91547982D01*
X97040771Y-91547982D02*
X97040771Y-91309887D01*
X97040771Y-91309887D02*
X97088390Y-91214649D01*
X97088390Y-91214649D02*
X97136009Y-91167030D01*
X97136009Y-91167030D02*
X97231247Y-91119411D01*
X97231247Y-91119411D02*
X97469342Y-91119411D01*
X97469342Y-91119411D02*
X97564580Y-91167030D01*
X97564580Y-91167030D02*
X97612200Y-91214649D01*
X97612200Y-91214649D02*
X97659819Y-91309887D01*
X97659819Y-91309887D02*
X97659819Y-91547982D01*
X97659819Y-91547982D02*
X97612200Y-91643220D01*
X97612200Y-91643220D02*
X97564580Y-91690839D01*
X96659819Y-90833696D02*
X97659819Y-90500363D01*
X97659819Y-90500363D02*
X96659819Y-90167030D01*
D11*
X102518151Y-118983819D02*
X102518151Y-119698104D01*
X102518151Y-119698104D02*
X102470532Y-119840961D01*
X102470532Y-119840961D02*
X102375294Y-119936200D01*
X102375294Y-119936200D02*
X102232437Y-119983819D01*
X102232437Y-119983819D02*
X102137199Y-119983819D01*
X103470532Y-119983819D02*
X102994342Y-119983819D01*
X102994342Y-119983819D02*
X102994342Y-118983819D01*
X104375294Y-119888580D02*
X104327675Y-119936200D01*
X104327675Y-119936200D02*
X104184818Y-119983819D01*
X104184818Y-119983819D02*
X104089580Y-119983819D01*
X104089580Y-119983819D02*
X103946723Y-119936200D01*
X103946723Y-119936200D02*
X103851485Y-119840961D01*
X103851485Y-119840961D02*
X103803866Y-119745723D01*
X103803866Y-119745723D02*
X103756247Y-119555247D01*
X103756247Y-119555247D02*
X103756247Y-119412390D01*
X103756247Y-119412390D02*
X103803866Y-119221914D01*
X103803866Y-119221914D02*
X103851485Y-119126676D01*
X103851485Y-119126676D02*
X103946723Y-119031438D01*
X103946723Y-119031438D02*
X104089580Y-118983819D01*
X104089580Y-118983819D02*
X104184818Y-118983819D01*
X104184818Y-118983819D02*
X104327675Y-119031438D01*
X104327675Y-119031438D02*
X104375294Y-119079057D01*
X105089580Y-118983819D02*
X105089580Y-119698104D01*
X105089580Y-119698104D02*
X105041961Y-119840961D01*
X105041961Y-119840961D02*
X104946723Y-119936200D01*
X104946723Y-119936200D02*
X104803866Y-119983819D01*
X104803866Y-119983819D02*
X104708628Y-119983819D01*
X106041961Y-119983819D02*
X105565771Y-119983819D01*
X105565771Y-119983819D02*
X105565771Y-118983819D01*
X106946723Y-119888580D02*
X106899104Y-119936200D01*
X106899104Y-119936200D02*
X106756247Y-119983819D01*
X106756247Y-119983819D02*
X106661009Y-119983819D01*
X106661009Y-119983819D02*
X106518152Y-119936200D01*
X106518152Y-119936200D02*
X106422914Y-119840961D01*
X106422914Y-119840961D02*
X106375295Y-119745723D01*
X106375295Y-119745723D02*
X106327676Y-119555247D01*
X106327676Y-119555247D02*
X106327676Y-119412390D01*
X106327676Y-119412390D02*
X106375295Y-119221914D01*
X106375295Y-119221914D02*
X106422914Y-119126676D01*
X106422914Y-119126676D02*
X106518152Y-119031438D01*
X106518152Y-119031438D02*
X106661009Y-118983819D01*
X106661009Y-118983819D02*
X106756247Y-118983819D01*
X106756247Y-118983819D02*
X106899104Y-119031438D01*
X106899104Y-119031438D02*
X106946723Y-119079057D01*
X107661009Y-118983819D02*
X107661009Y-119698104D01*
X107661009Y-119698104D02*
X107613390Y-119840961D01*
X107613390Y-119840961D02*
X107518152Y-119936200D01*
X107518152Y-119936200D02*
X107375295Y-119983819D01*
X107375295Y-119983819D02*
X107280057Y-119983819D01*
X108613390Y-119983819D02*
X108137200Y-119983819D01*
X108137200Y-119983819D02*
X108137200Y-118983819D01*
X109518152Y-119888580D02*
X109470533Y-119936200D01*
X109470533Y-119936200D02*
X109327676Y-119983819D01*
X109327676Y-119983819D02*
X109232438Y-119983819D01*
X109232438Y-119983819D02*
X109089581Y-119936200D01*
X109089581Y-119936200D02*
X108994343Y-119840961D01*
X108994343Y-119840961D02*
X108946724Y-119745723D01*
X108946724Y-119745723D02*
X108899105Y-119555247D01*
X108899105Y-119555247D02*
X108899105Y-119412390D01*
X108899105Y-119412390D02*
X108946724Y-119221914D01*
X108946724Y-119221914D02*
X108994343Y-119126676D01*
X108994343Y-119126676D02*
X109089581Y-119031438D01*
X109089581Y-119031438D02*
X109232438Y-118983819D01*
X109232438Y-118983819D02*
X109327676Y-118983819D01*
X109327676Y-118983819D02*
X109470533Y-119031438D01*
X109470533Y-119031438D02*
X109518152Y-119079057D01*
X110232438Y-118983819D02*
X110232438Y-119698104D01*
X110232438Y-119698104D02*
X110184819Y-119840961D01*
X110184819Y-119840961D02*
X110089581Y-119936200D01*
X110089581Y-119936200D02*
X109946724Y-119983819D01*
X109946724Y-119983819D02*
X109851486Y-119983819D01*
X111184819Y-119983819D02*
X110708629Y-119983819D01*
X110708629Y-119983819D02*
X110708629Y-118983819D01*
X112089581Y-119888580D02*
X112041962Y-119936200D01*
X112041962Y-119936200D02*
X111899105Y-119983819D01*
X111899105Y-119983819D02*
X111803867Y-119983819D01*
X111803867Y-119983819D02*
X111661010Y-119936200D01*
X111661010Y-119936200D02*
X111565772Y-119840961D01*
X111565772Y-119840961D02*
X111518153Y-119745723D01*
X111518153Y-119745723D02*
X111470534Y-119555247D01*
X111470534Y-119555247D02*
X111470534Y-119412390D01*
X111470534Y-119412390D02*
X111518153Y-119221914D01*
X111518153Y-119221914D02*
X111565772Y-119126676D01*
X111565772Y-119126676D02*
X111661010Y-119031438D01*
X111661010Y-119031438D02*
X111803867Y-118983819D01*
X111803867Y-118983819D02*
X111899105Y-118983819D01*
X111899105Y-118983819D02*
X112041962Y-119031438D01*
X112041962Y-119031438D02*
X112089581Y-119079057D01*
D10*
X144434112Y-103740009D02*
X144576969Y-103787628D01*
X144576969Y-103787628D02*
X144624588Y-103835247D01*
X144624588Y-103835247D02*
X144672207Y-103930485D01*
X144672207Y-103930485D02*
X144672207Y-104073342D01*
X144672207Y-104073342D02*
X144624588Y-104168580D01*
X144624588Y-104168580D02*
X144576969Y-104216200D01*
X144576969Y-104216200D02*
X144481731Y-104263819D01*
X144481731Y-104263819D02*
X144100779Y-104263819D01*
X144100779Y-104263819D02*
X144100779Y-103263819D01*
X144100779Y-103263819D02*
X144434112Y-103263819D01*
X144434112Y-103263819D02*
X144529350Y-103311438D01*
X144529350Y-103311438D02*
X144576969Y-103359057D01*
X144576969Y-103359057D02*
X144624588Y-103454295D01*
X144624588Y-103454295D02*
X144624588Y-103549533D01*
X144624588Y-103549533D02*
X144576969Y-103644771D01*
X144576969Y-103644771D02*
X144529350Y-103692390D01*
X144529350Y-103692390D02*
X144434112Y-103740009D01*
X144434112Y-103740009D02*
X144100779Y-103740009D01*
X144957922Y-103263819D02*
X145529350Y-103263819D01*
X145243636Y-104263819D02*
X145243636Y-103263819D01*
X145862684Y-104263819D02*
X145862684Y-103263819D01*
X145862684Y-103263819D02*
X146434112Y-104263819D01*
X146434112Y-104263819D02*
X146434112Y-103263819D01*
X96135819Y-93167030D02*
X96135819Y-93643220D01*
X96135819Y-93643220D02*
X95135819Y-93643220D01*
X95612009Y-92833696D02*
X95612009Y-92500363D01*
X96135819Y-92357506D02*
X96135819Y-92833696D01*
X96135819Y-92833696D02*
X95135819Y-92833696D01*
X95135819Y-92833696D02*
X95135819Y-92357506D01*
X96135819Y-91928934D02*
X95135819Y-91928934D01*
X95135819Y-91928934D02*
X95135819Y-91690839D01*
X95135819Y-91690839D02*
X95183438Y-91547982D01*
X95183438Y-91547982D02*
X95278676Y-91452744D01*
X95278676Y-91452744D02*
X95373914Y-91405125D01*
X95373914Y-91405125D02*
X95564390Y-91357506D01*
X95564390Y-91357506D02*
X95707247Y-91357506D01*
X95707247Y-91357506D02*
X95897723Y-91405125D01*
X95897723Y-91405125D02*
X95992961Y-91452744D01*
X95992961Y-91452744D02*
X96088200Y-91547982D01*
X96088200Y-91547982D02*
X96135819Y-91690839D01*
X96135819Y-91690839D02*
X96135819Y-91928934D01*
X96088200Y-90976553D02*
X96135819Y-90833696D01*
X96135819Y-90833696D02*
X96135819Y-90595601D01*
X96135819Y-90595601D02*
X96088200Y-90500363D01*
X96088200Y-90500363D02*
X96040580Y-90452744D01*
X96040580Y-90452744D02*
X95945342Y-90405125D01*
X95945342Y-90405125D02*
X95850104Y-90405125D01*
X95850104Y-90405125D02*
X95754866Y-90452744D01*
X95754866Y-90452744D02*
X95707247Y-90500363D01*
X95707247Y-90500363D02*
X95659628Y-90595601D01*
X95659628Y-90595601D02*
X95612009Y-90786077D01*
X95612009Y-90786077D02*
X95564390Y-90881315D01*
X95564390Y-90881315D02*
X95516771Y-90928934D01*
X95516771Y-90928934D02*
X95421533Y-90976553D01*
X95421533Y-90976553D02*
X95326295Y-90976553D01*
X95326295Y-90976553D02*
X95231057Y-90928934D01*
X95231057Y-90928934D02*
X95183438Y-90881315D01*
X95183438Y-90881315D02*
X95135819Y-90786077D01*
X95135819Y-90786077D02*
X95135819Y-90547982D01*
X95135819Y-90547982D02*
X95183438Y-90405125D01*
X77552779Y-98183819D02*
X77552779Y-98993342D01*
X77552779Y-98993342D02*
X77600398Y-99088580D01*
X77600398Y-99088580D02*
X77648017Y-99136200D01*
X77648017Y-99136200D02*
X77743255Y-99183819D01*
X77743255Y-99183819D02*
X77933731Y-99183819D01*
X77933731Y-99183819D02*
X78028969Y-99136200D01*
X78028969Y-99136200D02*
X78076588Y-99088580D01*
X78076588Y-99088580D02*
X78124207Y-98993342D01*
X78124207Y-98993342D02*
X78124207Y-98183819D01*
X78552779Y-98898104D02*
X79028969Y-98898104D01*
X78457541Y-99183819D02*
X78790874Y-98183819D01*
X78790874Y-98183819D02*
X79124207Y-99183819D01*
X80028969Y-99183819D02*
X79695636Y-98707628D01*
X79457541Y-99183819D02*
X79457541Y-98183819D01*
X79457541Y-98183819D02*
X79838493Y-98183819D01*
X79838493Y-98183819D02*
X79933731Y-98231438D01*
X79933731Y-98231438D02*
X79981350Y-98279057D01*
X79981350Y-98279057D02*
X80028969Y-98374295D01*
X80028969Y-98374295D02*
X80028969Y-98517152D01*
X80028969Y-98517152D02*
X79981350Y-98612390D01*
X79981350Y-98612390D02*
X79933731Y-98660009D01*
X79933731Y-98660009D02*
X79838493Y-98707628D01*
X79838493Y-98707628D02*
X79457541Y-98707628D01*
X80314684Y-98183819D02*
X80886112Y-98183819D01*
X80600398Y-99183819D02*
X80600398Y-98183819D01*
X61576009Y-97119887D02*
X61576009Y-97453220D01*
X62099819Y-97453220D02*
X61099819Y-97453220D01*
X61099819Y-97453220D02*
X61099819Y-96977030D01*
X62099819Y-96119887D02*
X62099819Y-96596077D01*
X62099819Y-96596077D02*
X61099819Y-96596077D01*
X61814104Y-95834172D02*
X61814104Y-95357982D01*
X62099819Y-95929410D02*
X61099819Y-95596077D01*
X61099819Y-95596077D02*
X62099819Y-95262744D01*
X62052200Y-94977029D02*
X62099819Y-94834172D01*
X62099819Y-94834172D02*
X62099819Y-94596077D01*
X62099819Y-94596077D02*
X62052200Y-94500839D01*
X62052200Y-94500839D02*
X62004580Y-94453220D01*
X62004580Y-94453220D02*
X61909342Y-94405601D01*
X61909342Y-94405601D02*
X61814104Y-94405601D01*
X61814104Y-94405601D02*
X61718866Y-94453220D01*
X61718866Y-94453220D02*
X61671247Y-94500839D01*
X61671247Y-94500839D02*
X61623628Y-94596077D01*
X61623628Y-94596077D02*
X61576009Y-94786553D01*
X61576009Y-94786553D02*
X61528390Y-94881791D01*
X61528390Y-94881791D02*
X61480771Y-94929410D01*
X61480771Y-94929410D02*
X61385533Y-94977029D01*
X61385533Y-94977029D02*
X61290295Y-94977029D01*
X61290295Y-94977029D02*
X61195057Y-94929410D01*
X61195057Y-94929410D02*
X61147438Y-94881791D01*
X61147438Y-94881791D02*
X61099819Y-94786553D01*
X61099819Y-94786553D02*
X61099819Y-94548458D01*
X61099819Y-94548458D02*
X61147438Y-94405601D01*
X62099819Y-93977029D02*
X61099819Y-93977029D01*
X61576009Y-93977029D02*
X61576009Y-93405601D01*
X62099819Y-93405601D02*
X61099819Y-93405601D01*
X67428642Y-106234819D02*
X67095309Y-105758628D01*
X66857214Y-106234819D02*
X66857214Y-105234819D01*
X66857214Y-105234819D02*
X67238166Y-105234819D01*
X67238166Y-105234819D02*
X67333404Y-105282438D01*
X67333404Y-105282438D02*
X67381023Y-105330057D01*
X67381023Y-105330057D02*
X67428642Y-105425295D01*
X67428642Y-105425295D02*
X67428642Y-105568152D01*
X67428642Y-105568152D02*
X67381023Y-105663390D01*
X67381023Y-105663390D02*
X67333404Y-105711009D01*
X67333404Y-105711009D02*
X67238166Y-105758628D01*
X67238166Y-105758628D02*
X66857214Y-105758628D01*
X68381023Y-106234819D02*
X67809595Y-106234819D01*
X68095309Y-106234819D02*
X68095309Y-105234819D01*
X68095309Y-105234819D02*
X68000071Y-105377676D01*
X68000071Y-105377676D02*
X67904833Y-105472914D01*
X67904833Y-105472914D02*
X67809595Y-105520533D01*
X69238166Y-105568152D02*
X69238166Y-106234819D01*
X69000071Y-105187200D02*
X68761976Y-105901485D01*
X68761976Y-105901485D02*
X69381023Y-105901485D01*
X90878819Y-81414857D02*
X90402628Y-81748190D01*
X90878819Y-81986285D02*
X89878819Y-81986285D01*
X89878819Y-81986285D02*
X89878819Y-81605333D01*
X89878819Y-81605333D02*
X89926438Y-81510095D01*
X89926438Y-81510095D02*
X89974057Y-81462476D01*
X89974057Y-81462476D02*
X90069295Y-81414857D01*
X90069295Y-81414857D02*
X90212152Y-81414857D01*
X90212152Y-81414857D02*
X90307390Y-81462476D01*
X90307390Y-81462476D02*
X90355009Y-81510095D01*
X90355009Y-81510095D02*
X90402628Y-81605333D01*
X90402628Y-81605333D02*
X90402628Y-81986285D01*
X89974057Y-81033904D02*
X89926438Y-80986285D01*
X89926438Y-80986285D02*
X89878819Y-80891047D01*
X89878819Y-80891047D02*
X89878819Y-80652952D01*
X89878819Y-80652952D02*
X89926438Y-80557714D01*
X89926438Y-80557714D02*
X89974057Y-80510095D01*
X89974057Y-80510095D02*
X90069295Y-80462476D01*
X90069295Y-80462476D02*
X90164533Y-80462476D01*
X90164533Y-80462476D02*
X90307390Y-80510095D01*
X90307390Y-80510095D02*
X90878819Y-81081523D01*
X90878819Y-81081523D02*
X90878819Y-80462476D01*
X89878819Y-79557714D02*
X89878819Y-80033904D01*
X89878819Y-80033904D02*
X90355009Y-80081523D01*
X90355009Y-80081523D02*
X90307390Y-80033904D01*
X90307390Y-80033904D02*
X90259771Y-79938666D01*
X90259771Y-79938666D02*
X90259771Y-79700571D01*
X90259771Y-79700571D02*
X90307390Y-79605333D01*
X90307390Y-79605333D02*
X90355009Y-79557714D01*
X90355009Y-79557714D02*
X90450247Y-79510095D01*
X90450247Y-79510095D02*
X90688342Y-79510095D01*
X90688342Y-79510095D02*
X90783580Y-79557714D01*
X90783580Y-79557714D02*
X90831200Y-79605333D01*
X90831200Y-79605333D02*
X90878819Y-79700571D01*
X90878819Y-79700571D02*
X90878819Y-79938666D01*
X90878819Y-79938666D02*
X90831200Y-80033904D01*
X90831200Y-80033904D02*
X90783580Y-80081523D01*
X64277142Y-83879580D02*
X64229523Y-83927200D01*
X64229523Y-83927200D02*
X64086666Y-83974819D01*
X64086666Y-83974819D02*
X63991428Y-83974819D01*
X63991428Y-83974819D02*
X63848571Y-83927200D01*
X63848571Y-83927200D02*
X63753333Y-83831961D01*
X63753333Y-83831961D02*
X63705714Y-83736723D01*
X63705714Y-83736723D02*
X63658095Y-83546247D01*
X63658095Y-83546247D02*
X63658095Y-83403390D01*
X63658095Y-83403390D02*
X63705714Y-83212914D01*
X63705714Y-83212914D02*
X63753333Y-83117676D01*
X63753333Y-83117676D02*
X63848571Y-83022438D01*
X63848571Y-83022438D02*
X63991428Y-82974819D01*
X63991428Y-82974819D02*
X64086666Y-82974819D01*
X64086666Y-82974819D02*
X64229523Y-83022438D01*
X64229523Y-83022438D02*
X64277142Y-83070057D01*
X65229523Y-83974819D02*
X64658095Y-83974819D01*
X64943809Y-83974819D02*
X64943809Y-82974819D01*
X64943809Y-82974819D02*
X64848571Y-83117676D01*
X64848571Y-83117676D02*
X64753333Y-83212914D01*
X64753333Y-83212914D02*
X64658095Y-83260533D01*
X66181904Y-83974819D02*
X65610476Y-83974819D01*
X65896190Y-83974819D02*
X65896190Y-82974819D01*
X65896190Y-82974819D02*
X65800952Y-83117676D01*
X65800952Y-83117676D02*
X65705714Y-83212914D01*
X65705714Y-83212914D02*
X65610476Y-83260533D01*
X83544761Y-99720057D02*
X83449523Y-99672438D01*
X83449523Y-99672438D02*
X83354285Y-99577200D01*
X83354285Y-99577200D02*
X83211428Y-99434342D01*
X83211428Y-99434342D02*
X83116190Y-99386723D01*
X83116190Y-99386723D02*
X83020952Y-99386723D01*
X83068571Y-99624819D02*
X82973333Y-99577200D01*
X82973333Y-99577200D02*
X82878095Y-99481961D01*
X82878095Y-99481961D02*
X82830476Y-99291485D01*
X82830476Y-99291485D02*
X82830476Y-98958152D01*
X82830476Y-98958152D02*
X82878095Y-98767676D01*
X82878095Y-98767676D02*
X82973333Y-98672438D01*
X82973333Y-98672438D02*
X83068571Y-98624819D01*
X83068571Y-98624819D02*
X83259047Y-98624819D01*
X83259047Y-98624819D02*
X83354285Y-98672438D01*
X83354285Y-98672438D02*
X83449523Y-98767676D01*
X83449523Y-98767676D02*
X83497142Y-98958152D01*
X83497142Y-98958152D02*
X83497142Y-99291485D01*
X83497142Y-99291485D02*
X83449523Y-99481961D01*
X83449523Y-99481961D02*
X83354285Y-99577200D01*
X83354285Y-99577200D02*
X83259047Y-99624819D01*
X83259047Y-99624819D02*
X83068571Y-99624819D01*
X83878095Y-98720057D02*
X83925714Y-98672438D01*
X83925714Y-98672438D02*
X84020952Y-98624819D01*
X84020952Y-98624819D02*
X84259047Y-98624819D01*
X84259047Y-98624819D02*
X84354285Y-98672438D01*
X84354285Y-98672438D02*
X84401904Y-98720057D01*
X84401904Y-98720057D02*
X84449523Y-98815295D01*
X84449523Y-98815295D02*
X84449523Y-98910533D01*
X84449523Y-98910533D02*
X84401904Y-99053390D01*
X84401904Y-99053390D02*
X83830476Y-99624819D01*
X83830476Y-99624819D02*
X84449523Y-99624819D01*
X61414819Y-106656094D02*
X60414819Y-106656094D01*
X60414819Y-106656094D02*
X60414819Y-106417999D01*
X60414819Y-106417999D02*
X60462438Y-106275142D01*
X60462438Y-106275142D02*
X60557676Y-106179904D01*
X60557676Y-106179904D02*
X60652914Y-106132285D01*
X60652914Y-106132285D02*
X60843390Y-106084666D01*
X60843390Y-106084666D02*
X60986247Y-106084666D01*
X60986247Y-106084666D02*
X61176723Y-106132285D01*
X61176723Y-106132285D02*
X61271961Y-106179904D01*
X61271961Y-106179904D02*
X61367200Y-106275142D01*
X61367200Y-106275142D02*
X61414819Y-106417999D01*
X61414819Y-106417999D02*
X61414819Y-106656094D01*
X60414819Y-105227523D02*
X60414819Y-105417999D01*
X60414819Y-105417999D02*
X60462438Y-105513237D01*
X60462438Y-105513237D02*
X60510057Y-105560856D01*
X60510057Y-105560856D02*
X60652914Y-105656094D01*
X60652914Y-105656094D02*
X60843390Y-105703713D01*
X60843390Y-105703713D02*
X61224342Y-105703713D01*
X61224342Y-105703713D02*
X61319580Y-105656094D01*
X61319580Y-105656094D02*
X61367200Y-105608475D01*
X61367200Y-105608475D02*
X61414819Y-105513237D01*
X61414819Y-105513237D02*
X61414819Y-105322761D01*
X61414819Y-105322761D02*
X61367200Y-105227523D01*
X61367200Y-105227523D02*
X61319580Y-105179904D01*
X61319580Y-105179904D02*
X61224342Y-105132285D01*
X61224342Y-105132285D02*
X60986247Y-105132285D01*
X60986247Y-105132285D02*
X60891009Y-105179904D01*
X60891009Y-105179904D02*
X60843390Y-105227523D01*
X60843390Y-105227523D02*
X60795771Y-105322761D01*
X60795771Y-105322761D02*
X60795771Y-105513237D01*
X60795771Y-105513237D02*
X60843390Y-105608475D01*
X60843390Y-105608475D02*
X60891009Y-105656094D01*
X60891009Y-105656094D02*
X60986247Y-105703713D01*
X67579905Y-104648819D02*
X67579905Y-103648819D01*
X67579905Y-103648819D02*
X67818000Y-103648819D01*
X67818000Y-103648819D02*
X67960857Y-103696438D01*
X67960857Y-103696438D02*
X68056095Y-103791676D01*
X68056095Y-103791676D02*
X68103714Y-103886914D01*
X68103714Y-103886914D02*
X68151333Y-104077390D01*
X68151333Y-104077390D02*
X68151333Y-104220247D01*
X68151333Y-104220247D02*
X68103714Y-104410723D01*
X68103714Y-104410723D02*
X68056095Y-104505961D01*
X68056095Y-104505961D02*
X67960857Y-104601200D01*
X67960857Y-104601200D02*
X67818000Y-104648819D01*
X67818000Y-104648819D02*
X67579905Y-104648819D01*
X68484667Y-103648819D02*
X69151333Y-103648819D01*
X69151333Y-103648819D02*
X68722762Y-104648819D01*
X67923580Y-103290666D02*
X67971200Y-103338285D01*
X67971200Y-103338285D02*
X68018819Y-103481142D01*
X68018819Y-103481142D02*
X68018819Y-103576380D01*
X68018819Y-103576380D02*
X67971200Y-103719237D01*
X67971200Y-103719237D02*
X67875961Y-103814475D01*
X67875961Y-103814475D02*
X67780723Y-103862094D01*
X67780723Y-103862094D02*
X67590247Y-103909713D01*
X67590247Y-103909713D02*
X67447390Y-103909713D01*
X67447390Y-103909713D02*
X67256914Y-103862094D01*
X67256914Y-103862094D02*
X67161676Y-103814475D01*
X67161676Y-103814475D02*
X67066438Y-103719237D01*
X67066438Y-103719237D02*
X67018819Y-103576380D01*
X67018819Y-103576380D02*
X67018819Y-103481142D01*
X67018819Y-103481142D02*
X67066438Y-103338285D01*
X67066438Y-103338285D02*
X67114057Y-103290666D01*
X68018819Y-102338285D02*
X68018819Y-102909713D01*
X68018819Y-102623999D02*
X67018819Y-102623999D01*
X67018819Y-102623999D02*
X67161676Y-102719237D01*
X67161676Y-102719237D02*
X67256914Y-102814475D01*
X67256914Y-102814475D02*
X67304533Y-102909713D01*
X122523333Y-86179819D02*
X122047143Y-86179819D01*
X122047143Y-86179819D02*
X122047143Y-85179819D01*
X122809048Y-85275057D02*
X122856667Y-85227438D01*
X122856667Y-85227438D02*
X122951905Y-85179819D01*
X122951905Y-85179819D02*
X123190000Y-85179819D01*
X123190000Y-85179819D02*
X123285238Y-85227438D01*
X123285238Y-85227438D02*
X123332857Y-85275057D01*
X123332857Y-85275057D02*
X123380476Y-85370295D01*
X123380476Y-85370295D02*
X123380476Y-85465533D01*
X123380476Y-85465533D02*
X123332857Y-85608390D01*
X123332857Y-85608390D02*
X122761429Y-86179819D01*
X122761429Y-86179819D02*
X123380476Y-86179819D01*
X146600057Y-88995238D02*
X146552438Y-89090476D01*
X146552438Y-89090476D02*
X146457200Y-89185714D01*
X146457200Y-89185714D02*
X146314342Y-89328571D01*
X146314342Y-89328571D02*
X146266723Y-89423809D01*
X146266723Y-89423809D02*
X146266723Y-89519047D01*
X146504819Y-89471428D02*
X146457200Y-89566666D01*
X146457200Y-89566666D02*
X146361961Y-89661904D01*
X146361961Y-89661904D02*
X146171485Y-89709523D01*
X146171485Y-89709523D02*
X145838152Y-89709523D01*
X145838152Y-89709523D02*
X145647676Y-89661904D01*
X145647676Y-89661904D02*
X145552438Y-89566666D01*
X145552438Y-89566666D02*
X145504819Y-89471428D01*
X145504819Y-89471428D02*
X145504819Y-89280952D01*
X145504819Y-89280952D02*
X145552438Y-89185714D01*
X145552438Y-89185714D02*
X145647676Y-89090476D01*
X145647676Y-89090476D02*
X145838152Y-89042857D01*
X145838152Y-89042857D02*
X146171485Y-89042857D01*
X146171485Y-89042857D02*
X146361961Y-89090476D01*
X146361961Y-89090476D02*
X146457200Y-89185714D01*
X146457200Y-89185714D02*
X146504819Y-89280952D01*
X146504819Y-89280952D02*
X146504819Y-89471428D01*
X146504819Y-88566666D02*
X146504819Y-88376190D01*
X146504819Y-88376190D02*
X146457200Y-88280952D01*
X146457200Y-88280952D02*
X146409580Y-88233333D01*
X146409580Y-88233333D02*
X146266723Y-88138095D01*
X146266723Y-88138095D02*
X146076247Y-88090476D01*
X146076247Y-88090476D02*
X145695295Y-88090476D01*
X145695295Y-88090476D02*
X145600057Y-88138095D01*
X145600057Y-88138095D02*
X145552438Y-88185714D01*
X145552438Y-88185714D02*
X145504819Y-88280952D01*
X145504819Y-88280952D02*
X145504819Y-88471428D01*
X145504819Y-88471428D02*
X145552438Y-88566666D01*
X145552438Y-88566666D02*
X145600057Y-88614285D01*
X145600057Y-88614285D02*
X145695295Y-88661904D01*
X145695295Y-88661904D02*
X145933390Y-88661904D01*
X145933390Y-88661904D02*
X146028628Y-88614285D01*
X146028628Y-88614285D02*
X146076247Y-88566666D01*
X146076247Y-88566666D02*
X146123866Y-88471428D01*
X146123866Y-88471428D02*
X146123866Y-88280952D01*
X146123866Y-88280952D02*
X146076247Y-88185714D01*
X146076247Y-88185714D02*
X146028628Y-88138095D01*
X146028628Y-88138095D02*
X145933390Y-88090476D01*
X143375142Y-84020819D02*
X143041809Y-83544628D01*
X142803714Y-84020819D02*
X142803714Y-83020819D01*
X142803714Y-83020819D02*
X143184666Y-83020819D01*
X143184666Y-83020819D02*
X143279904Y-83068438D01*
X143279904Y-83068438D02*
X143327523Y-83116057D01*
X143327523Y-83116057D02*
X143375142Y-83211295D01*
X143375142Y-83211295D02*
X143375142Y-83354152D01*
X143375142Y-83354152D02*
X143327523Y-83449390D01*
X143327523Y-83449390D02*
X143279904Y-83497009D01*
X143279904Y-83497009D02*
X143184666Y-83544628D01*
X143184666Y-83544628D02*
X142803714Y-83544628D01*
X143708476Y-83020819D02*
X144327523Y-83020819D01*
X144327523Y-83020819D02*
X143994190Y-83401771D01*
X143994190Y-83401771D02*
X144137047Y-83401771D01*
X144137047Y-83401771D02*
X144232285Y-83449390D01*
X144232285Y-83449390D02*
X144279904Y-83497009D01*
X144279904Y-83497009D02*
X144327523Y-83592247D01*
X144327523Y-83592247D02*
X144327523Y-83830342D01*
X144327523Y-83830342D02*
X144279904Y-83925580D01*
X144279904Y-83925580D02*
X144232285Y-83973200D01*
X144232285Y-83973200D02*
X144137047Y-84020819D01*
X144137047Y-84020819D02*
X143851333Y-84020819D01*
X143851333Y-84020819D02*
X143756095Y-83973200D01*
X143756095Y-83973200D02*
X143708476Y-83925580D01*
X144946571Y-83020819D02*
X145041809Y-83020819D01*
X145041809Y-83020819D02*
X145137047Y-83068438D01*
X145137047Y-83068438D02*
X145184666Y-83116057D01*
X145184666Y-83116057D02*
X145232285Y-83211295D01*
X145232285Y-83211295D02*
X145279904Y-83401771D01*
X145279904Y-83401771D02*
X145279904Y-83639866D01*
X145279904Y-83639866D02*
X145232285Y-83830342D01*
X145232285Y-83830342D02*
X145184666Y-83925580D01*
X145184666Y-83925580D02*
X145137047Y-83973200D01*
X145137047Y-83973200D02*
X145041809Y-84020819D01*
X145041809Y-84020819D02*
X144946571Y-84020819D01*
X144946571Y-84020819D02*
X144851333Y-83973200D01*
X144851333Y-83973200D02*
X144803714Y-83925580D01*
X144803714Y-83925580D02*
X144756095Y-83830342D01*
X144756095Y-83830342D02*
X144708476Y-83639866D01*
X144708476Y-83639866D02*
X144708476Y-83401771D01*
X144708476Y-83401771D02*
X144756095Y-83211295D01*
X144756095Y-83211295D02*
X144803714Y-83116057D01*
X144803714Y-83116057D02*
X144851333Y-83068438D01*
X144851333Y-83068438D02*
X144946571Y-83020819D01*
X98149580Y-83732666D02*
X98197200Y-83780285D01*
X98197200Y-83780285D02*
X98244819Y-83923142D01*
X98244819Y-83923142D02*
X98244819Y-84018380D01*
X98244819Y-84018380D02*
X98197200Y-84161237D01*
X98197200Y-84161237D02*
X98101961Y-84256475D01*
X98101961Y-84256475D02*
X98006723Y-84304094D01*
X98006723Y-84304094D02*
X97816247Y-84351713D01*
X97816247Y-84351713D02*
X97673390Y-84351713D01*
X97673390Y-84351713D02*
X97482914Y-84304094D01*
X97482914Y-84304094D02*
X97387676Y-84256475D01*
X97387676Y-84256475D02*
X97292438Y-84161237D01*
X97292438Y-84161237D02*
X97244819Y-84018380D01*
X97244819Y-84018380D02*
X97244819Y-83923142D01*
X97244819Y-83923142D02*
X97292438Y-83780285D01*
X97292438Y-83780285D02*
X97340057Y-83732666D01*
X98244819Y-83256475D02*
X98244819Y-83065999D01*
X98244819Y-83065999D02*
X98197200Y-82970761D01*
X98197200Y-82970761D02*
X98149580Y-82923142D01*
X98149580Y-82923142D02*
X98006723Y-82827904D01*
X98006723Y-82827904D02*
X97816247Y-82780285D01*
X97816247Y-82780285D02*
X97435295Y-82780285D01*
X97435295Y-82780285D02*
X97340057Y-82827904D01*
X97340057Y-82827904D02*
X97292438Y-82875523D01*
X97292438Y-82875523D02*
X97244819Y-82970761D01*
X97244819Y-82970761D02*
X97244819Y-83161237D01*
X97244819Y-83161237D02*
X97292438Y-83256475D01*
X97292438Y-83256475D02*
X97340057Y-83304094D01*
X97340057Y-83304094D02*
X97435295Y-83351713D01*
X97435295Y-83351713D02*
X97673390Y-83351713D01*
X97673390Y-83351713D02*
X97768628Y-83304094D01*
X97768628Y-83304094D02*
X97816247Y-83256475D01*
X97816247Y-83256475D02*
X97863866Y-83161237D01*
X97863866Y-83161237D02*
X97863866Y-82970761D01*
X97863866Y-82970761D02*
X97816247Y-82875523D01*
X97816247Y-82875523D02*
X97768628Y-82827904D01*
X97768628Y-82827904D02*
X97673390Y-82780285D01*
X111257333Y-104753580D02*
X111209714Y-104801200D01*
X111209714Y-104801200D02*
X111066857Y-104848819D01*
X111066857Y-104848819D02*
X110971619Y-104848819D01*
X110971619Y-104848819D02*
X110828762Y-104801200D01*
X110828762Y-104801200D02*
X110733524Y-104705961D01*
X110733524Y-104705961D02*
X110685905Y-104610723D01*
X110685905Y-104610723D02*
X110638286Y-104420247D01*
X110638286Y-104420247D02*
X110638286Y-104277390D01*
X110638286Y-104277390D02*
X110685905Y-104086914D01*
X110685905Y-104086914D02*
X110733524Y-103991676D01*
X110733524Y-103991676D02*
X110828762Y-103896438D01*
X110828762Y-103896438D02*
X110971619Y-103848819D01*
X110971619Y-103848819D02*
X111066857Y-103848819D01*
X111066857Y-103848819D02*
X111209714Y-103896438D01*
X111209714Y-103896438D02*
X111257333Y-103944057D01*
X112162095Y-103848819D02*
X111685905Y-103848819D01*
X111685905Y-103848819D02*
X111638286Y-104325009D01*
X111638286Y-104325009D02*
X111685905Y-104277390D01*
X111685905Y-104277390D02*
X111781143Y-104229771D01*
X111781143Y-104229771D02*
X112019238Y-104229771D01*
X112019238Y-104229771D02*
X112114476Y-104277390D01*
X112114476Y-104277390D02*
X112162095Y-104325009D01*
X112162095Y-104325009D02*
X112209714Y-104420247D01*
X112209714Y-104420247D02*
X112209714Y-104658342D01*
X112209714Y-104658342D02*
X112162095Y-104753580D01*
X112162095Y-104753580D02*
X112114476Y-104801200D01*
X112114476Y-104801200D02*
X112019238Y-104848819D01*
X112019238Y-104848819D02*
X111781143Y-104848819D01*
X111781143Y-104848819D02*
X111685905Y-104801200D01*
X111685905Y-104801200D02*
X111638286Y-104753580D01*
X113498333Y-86179819D02*
X113022143Y-86179819D01*
X113022143Y-86179819D02*
X113022143Y-85179819D01*
X114355476Y-86179819D02*
X113784048Y-86179819D01*
X114069762Y-86179819D02*
X114069762Y-85179819D01*
X114069762Y-85179819D02*
X113974524Y-85322676D01*
X113974524Y-85322676D02*
X113879286Y-85417914D01*
X113879286Y-85417914D02*
X113784048Y-85465533D01*
X72698095Y-98254819D02*
X72698095Y-99064342D01*
X72698095Y-99064342D02*
X72745714Y-99159580D01*
X72745714Y-99159580D02*
X72793333Y-99207200D01*
X72793333Y-99207200D02*
X72888571Y-99254819D01*
X72888571Y-99254819D02*
X73079047Y-99254819D01*
X73079047Y-99254819D02*
X73174285Y-99207200D01*
X73174285Y-99207200D02*
X73221904Y-99159580D01*
X73221904Y-99159580D02*
X73269523Y-99064342D01*
X73269523Y-99064342D02*
X73269523Y-98254819D01*
X74269523Y-99254819D02*
X73698095Y-99254819D01*
X73983809Y-99254819D02*
X73983809Y-98254819D01*
X73983809Y-98254819D02*
X73888571Y-98397676D01*
X73888571Y-98397676D02*
X73793333Y-98492914D01*
X73793333Y-98492914D02*
X73698095Y-98540533D01*
X73696094Y-75491104D02*
X74172284Y-75491104D01*
X73600856Y-75776819D02*
X73934189Y-74776819D01*
X73934189Y-74776819D02*
X74267522Y-75776819D01*
X74600856Y-75110152D02*
X74600856Y-75776819D01*
X74600856Y-75205390D02*
X74648475Y-75157771D01*
X74648475Y-75157771D02*
X74743713Y-75110152D01*
X74743713Y-75110152D02*
X74886570Y-75110152D01*
X74886570Y-75110152D02*
X74981808Y-75157771D01*
X74981808Y-75157771D02*
X75029427Y-75253009D01*
X75029427Y-75253009D02*
X75029427Y-75776819D01*
X75362761Y-75110152D02*
X75743713Y-75110152D01*
X75505618Y-74776819D02*
X75505618Y-75633961D01*
X75505618Y-75633961D02*
X75553237Y-75729200D01*
X75553237Y-75729200D02*
X75648475Y-75776819D01*
X75648475Y-75776819D02*
X75743713Y-75776819D01*
X76457999Y-75729200D02*
X76362761Y-75776819D01*
X76362761Y-75776819D02*
X76172285Y-75776819D01*
X76172285Y-75776819D02*
X76077047Y-75729200D01*
X76077047Y-75729200D02*
X76029428Y-75633961D01*
X76029428Y-75633961D02*
X76029428Y-75253009D01*
X76029428Y-75253009D02*
X76077047Y-75157771D01*
X76077047Y-75157771D02*
X76172285Y-75110152D01*
X76172285Y-75110152D02*
X76362761Y-75110152D01*
X76362761Y-75110152D02*
X76457999Y-75157771D01*
X76457999Y-75157771D02*
X76505618Y-75253009D01*
X76505618Y-75253009D02*
X76505618Y-75348247D01*
X76505618Y-75348247D02*
X76029428Y-75443485D01*
X76934190Y-75110152D02*
X76934190Y-75776819D01*
X76934190Y-75205390D02*
X76981809Y-75157771D01*
X76981809Y-75157771D02*
X77077047Y-75110152D01*
X77077047Y-75110152D02*
X77219904Y-75110152D01*
X77219904Y-75110152D02*
X77315142Y-75157771D01*
X77315142Y-75157771D02*
X77362761Y-75253009D01*
X77362761Y-75253009D02*
X77362761Y-75776819D01*
X77838952Y-75110152D02*
X77838952Y-75776819D01*
X77838952Y-75205390D02*
X77886571Y-75157771D01*
X77886571Y-75157771D02*
X77981809Y-75110152D01*
X77981809Y-75110152D02*
X78124666Y-75110152D01*
X78124666Y-75110152D02*
X78219904Y-75157771D01*
X78219904Y-75157771D02*
X78267523Y-75253009D01*
X78267523Y-75253009D02*
X78267523Y-75776819D01*
X79172285Y-75776819D02*
X79172285Y-75253009D01*
X79172285Y-75253009D02*
X79124666Y-75157771D01*
X79124666Y-75157771D02*
X79029428Y-75110152D01*
X79029428Y-75110152D02*
X78838952Y-75110152D01*
X78838952Y-75110152D02*
X78743714Y-75157771D01*
X79172285Y-75729200D02*
X79077047Y-75776819D01*
X79077047Y-75776819D02*
X78838952Y-75776819D01*
X78838952Y-75776819D02*
X78743714Y-75729200D01*
X78743714Y-75729200D02*
X78696095Y-75633961D01*
X78696095Y-75633961D02*
X78696095Y-75538723D01*
X78696095Y-75538723D02*
X78743714Y-75443485D01*
X78743714Y-75443485D02*
X78838952Y-75395866D01*
X78838952Y-75395866D02*
X79077047Y-75395866D01*
X79077047Y-75395866D02*
X79172285Y-75348247D01*
X80362762Y-75491104D02*
X80838952Y-75491104D01*
X80267524Y-75776819D02*
X80600857Y-74776819D01*
X80600857Y-74776819D02*
X80934190Y-75776819D01*
X81267524Y-75776819D02*
X81267524Y-75110152D01*
X81267524Y-75300628D02*
X81315143Y-75205390D01*
X81315143Y-75205390D02*
X81362762Y-75157771D01*
X81362762Y-75157771D02*
X81458000Y-75110152D01*
X81458000Y-75110152D02*
X81553238Y-75110152D01*
X82267524Y-75729200D02*
X82172286Y-75776819D01*
X82172286Y-75776819D02*
X81981810Y-75776819D01*
X81981810Y-75776819D02*
X81886572Y-75729200D01*
X81886572Y-75729200D02*
X81838953Y-75633961D01*
X81838953Y-75633961D02*
X81838953Y-75253009D01*
X81838953Y-75253009D02*
X81886572Y-75157771D01*
X81886572Y-75157771D02*
X81981810Y-75110152D01*
X81981810Y-75110152D02*
X82172286Y-75110152D01*
X82172286Y-75110152D02*
X82267524Y-75157771D01*
X82267524Y-75157771D02*
X82315143Y-75253009D01*
X82315143Y-75253009D02*
X82315143Y-75348247D01*
X82315143Y-75348247D02*
X81838953Y-75443485D01*
X83172286Y-75776819D02*
X83172286Y-75253009D01*
X83172286Y-75253009D02*
X83124667Y-75157771D01*
X83124667Y-75157771D02*
X83029429Y-75110152D01*
X83029429Y-75110152D02*
X82838953Y-75110152D01*
X82838953Y-75110152D02*
X82743715Y-75157771D01*
X83172286Y-75729200D02*
X83077048Y-75776819D01*
X83077048Y-75776819D02*
X82838953Y-75776819D01*
X82838953Y-75776819D02*
X82743715Y-75729200D01*
X82743715Y-75729200D02*
X82696096Y-75633961D01*
X82696096Y-75633961D02*
X82696096Y-75538723D01*
X82696096Y-75538723D02*
X82743715Y-75443485D01*
X82743715Y-75443485D02*
X82838953Y-75395866D01*
X82838953Y-75395866D02*
X83077048Y-75395866D01*
X83077048Y-75395866D02*
X83172286Y-75348247D01*
X115181142Y-104594819D02*
X114847809Y-104118628D01*
X114609714Y-104594819D02*
X114609714Y-103594819D01*
X114609714Y-103594819D02*
X114990666Y-103594819D01*
X114990666Y-103594819D02*
X115085904Y-103642438D01*
X115085904Y-103642438D02*
X115133523Y-103690057D01*
X115133523Y-103690057D02*
X115181142Y-103785295D01*
X115181142Y-103785295D02*
X115181142Y-103928152D01*
X115181142Y-103928152D02*
X115133523Y-104023390D01*
X115133523Y-104023390D02*
X115085904Y-104071009D01*
X115085904Y-104071009D02*
X114990666Y-104118628D01*
X114990666Y-104118628D02*
X114609714Y-104118628D01*
X115562095Y-103690057D02*
X115609714Y-103642438D01*
X115609714Y-103642438D02*
X115704952Y-103594819D01*
X115704952Y-103594819D02*
X115943047Y-103594819D01*
X115943047Y-103594819D02*
X116038285Y-103642438D01*
X116038285Y-103642438D02*
X116085904Y-103690057D01*
X116085904Y-103690057D02*
X116133523Y-103785295D01*
X116133523Y-103785295D02*
X116133523Y-103880533D01*
X116133523Y-103880533D02*
X116085904Y-104023390D01*
X116085904Y-104023390D02*
X115514476Y-104594819D01*
X115514476Y-104594819D02*
X116133523Y-104594819D01*
X116990666Y-103928152D02*
X116990666Y-104594819D01*
X116752571Y-103547200D02*
X116514476Y-104261485D01*
X116514476Y-104261485D02*
X117133523Y-104261485D01*
X110744095Y-76924819D02*
X110744095Y-77734342D01*
X110744095Y-77734342D02*
X110791714Y-77829580D01*
X110791714Y-77829580D02*
X110839333Y-77877200D01*
X110839333Y-77877200D02*
X110934571Y-77924819D01*
X110934571Y-77924819D02*
X111125047Y-77924819D01*
X111125047Y-77924819D02*
X111220285Y-77877200D01*
X111220285Y-77877200D02*
X111267904Y-77829580D01*
X111267904Y-77829580D02*
X111315523Y-77734342D01*
X111315523Y-77734342D02*
X111315523Y-76924819D01*
X111934571Y-77353390D02*
X111839333Y-77305771D01*
X111839333Y-77305771D02*
X111791714Y-77258152D01*
X111791714Y-77258152D02*
X111744095Y-77162914D01*
X111744095Y-77162914D02*
X111744095Y-77115295D01*
X111744095Y-77115295D02*
X111791714Y-77020057D01*
X111791714Y-77020057D02*
X111839333Y-76972438D01*
X111839333Y-76972438D02*
X111934571Y-76924819D01*
X111934571Y-76924819D02*
X112125047Y-76924819D01*
X112125047Y-76924819D02*
X112220285Y-76972438D01*
X112220285Y-76972438D02*
X112267904Y-77020057D01*
X112267904Y-77020057D02*
X112315523Y-77115295D01*
X112315523Y-77115295D02*
X112315523Y-77162914D01*
X112315523Y-77162914D02*
X112267904Y-77258152D01*
X112267904Y-77258152D02*
X112220285Y-77305771D01*
X112220285Y-77305771D02*
X112125047Y-77353390D01*
X112125047Y-77353390D02*
X111934571Y-77353390D01*
X111934571Y-77353390D02*
X111839333Y-77401009D01*
X111839333Y-77401009D02*
X111791714Y-77448628D01*
X111791714Y-77448628D02*
X111744095Y-77543866D01*
X111744095Y-77543866D02*
X111744095Y-77734342D01*
X111744095Y-77734342D02*
X111791714Y-77829580D01*
X111791714Y-77829580D02*
X111839333Y-77877200D01*
X111839333Y-77877200D02*
X111934571Y-77924819D01*
X111934571Y-77924819D02*
X112125047Y-77924819D01*
X112125047Y-77924819D02*
X112220285Y-77877200D01*
X112220285Y-77877200D02*
X112267904Y-77829580D01*
X112267904Y-77829580D02*
X112315523Y-77734342D01*
X112315523Y-77734342D02*
X112315523Y-77543866D01*
X112315523Y-77543866D02*
X112267904Y-77448628D01*
X112267904Y-77448628D02*
X112220285Y-77401009D01*
X112220285Y-77401009D02*
X112125047Y-77353390D01*
X99435580Y-83351666D02*
X99483200Y-83399285D01*
X99483200Y-83399285D02*
X99530819Y-83542142D01*
X99530819Y-83542142D02*
X99530819Y-83637380D01*
X99530819Y-83637380D02*
X99483200Y-83780237D01*
X99483200Y-83780237D02*
X99387961Y-83875475D01*
X99387961Y-83875475D02*
X99292723Y-83923094D01*
X99292723Y-83923094D02*
X99102247Y-83970713D01*
X99102247Y-83970713D02*
X98959390Y-83970713D01*
X98959390Y-83970713D02*
X98768914Y-83923094D01*
X98768914Y-83923094D02*
X98673676Y-83875475D01*
X98673676Y-83875475D02*
X98578438Y-83780237D01*
X98578438Y-83780237D02*
X98530819Y-83637380D01*
X98530819Y-83637380D02*
X98530819Y-83542142D01*
X98530819Y-83542142D02*
X98578438Y-83399285D01*
X98578438Y-83399285D02*
X98626057Y-83351666D01*
X98959390Y-82780237D02*
X98911771Y-82875475D01*
X98911771Y-82875475D02*
X98864152Y-82923094D01*
X98864152Y-82923094D02*
X98768914Y-82970713D01*
X98768914Y-82970713D02*
X98721295Y-82970713D01*
X98721295Y-82970713D02*
X98626057Y-82923094D01*
X98626057Y-82923094D02*
X98578438Y-82875475D01*
X98578438Y-82875475D02*
X98530819Y-82780237D01*
X98530819Y-82780237D02*
X98530819Y-82589761D01*
X98530819Y-82589761D02*
X98578438Y-82494523D01*
X98578438Y-82494523D02*
X98626057Y-82446904D01*
X98626057Y-82446904D02*
X98721295Y-82399285D01*
X98721295Y-82399285D02*
X98768914Y-82399285D01*
X98768914Y-82399285D02*
X98864152Y-82446904D01*
X98864152Y-82446904D02*
X98911771Y-82494523D01*
X98911771Y-82494523D02*
X98959390Y-82589761D01*
X98959390Y-82589761D02*
X98959390Y-82780237D01*
X98959390Y-82780237D02*
X99007009Y-82875475D01*
X99007009Y-82875475D02*
X99054628Y-82923094D01*
X99054628Y-82923094D02*
X99149866Y-82970713D01*
X99149866Y-82970713D02*
X99340342Y-82970713D01*
X99340342Y-82970713D02*
X99435580Y-82923094D01*
X99435580Y-82923094D02*
X99483200Y-82875475D01*
X99483200Y-82875475D02*
X99530819Y-82780237D01*
X99530819Y-82780237D02*
X99530819Y-82589761D01*
X99530819Y-82589761D02*
X99483200Y-82494523D01*
X99483200Y-82494523D02*
X99435580Y-82446904D01*
X99435580Y-82446904D02*
X99340342Y-82399285D01*
X99340342Y-82399285D02*
X99149866Y-82399285D01*
X99149866Y-82399285D02*
X99054628Y-82446904D01*
X99054628Y-82446904D02*
X99007009Y-82494523D01*
X99007009Y-82494523D02*
X98959390Y-82589761D01*
X143629142Y-85703580D02*
X143581523Y-85751200D01*
X143581523Y-85751200D02*
X143438666Y-85798819D01*
X143438666Y-85798819D02*
X143343428Y-85798819D01*
X143343428Y-85798819D02*
X143200571Y-85751200D01*
X143200571Y-85751200D02*
X143105333Y-85655961D01*
X143105333Y-85655961D02*
X143057714Y-85560723D01*
X143057714Y-85560723D02*
X143010095Y-85370247D01*
X143010095Y-85370247D02*
X143010095Y-85227390D01*
X143010095Y-85227390D02*
X143057714Y-85036914D01*
X143057714Y-85036914D02*
X143105333Y-84941676D01*
X143105333Y-84941676D02*
X143200571Y-84846438D01*
X143200571Y-84846438D02*
X143343428Y-84798819D01*
X143343428Y-84798819D02*
X143438666Y-84798819D01*
X143438666Y-84798819D02*
X143581523Y-84846438D01*
X143581523Y-84846438D02*
X143629142Y-84894057D01*
X144581523Y-85798819D02*
X144010095Y-85798819D01*
X144295809Y-85798819D02*
X144295809Y-84798819D01*
X144295809Y-84798819D02*
X144200571Y-84941676D01*
X144200571Y-84941676D02*
X144105333Y-85036914D01*
X144105333Y-85036914D02*
X144010095Y-85084533D01*
X145486285Y-84798819D02*
X145010095Y-84798819D01*
X145010095Y-84798819D02*
X144962476Y-85275009D01*
X144962476Y-85275009D02*
X145010095Y-85227390D01*
X145010095Y-85227390D02*
X145105333Y-85179771D01*
X145105333Y-85179771D02*
X145343428Y-85179771D01*
X145343428Y-85179771D02*
X145438666Y-85227390D01*
X145438666Y-85227390D02*
X145486285Y-85275009D01*
X145486285Y-85275009D02*
X145533904Y-85370247D01*
X145533904Y-85370247D02*
X145533904Y-85608342D01*
X145533904Y-85608342D02*
X145486285Y-85703580D01*
X145486285Y-85703580D02*
X145438666Y-85751200D01*
X145438666Y-85751200D02*
X145343428Y-85798819D01*
X145343428Y-85798819D02*
X145105333Y-85798819D01*
X145105333Y-85798819D02*
X145010095Y-85751200D01*
X145010095Y-85751200D02*
X144962476Y-85703580D01*
X137064761Y-96562057D02*
X136969523Y-96514438D01*
X136969523Y-96514438D02*
X136874285Y-96419200D01*
X136874285Y-96419200D02*
X136731428Y-96276342D01*
X136731428Y-96276342D02*
X136636190Y-96228723D01*
X136636190Y-96228723D02*
X136540952Y-96228723D01*
X136588571Y-96466819D02*
X136493333Y-96419200D01*
X136493333Y-96419200D02*
X136398095Y-96323961D01*
X136398095Y-96323961D02*
X136350476Y-96133485D01*
X136350476Y-96133485D02*
X136350476Y-95800152D01*
X136350476Y-95800152D02*
X136398095Y-95609676D01*
X136398095Y-95609676D02*
X136493333Y-95514438D01*
X136493333Y-95514438D02*
X136588571Y-95466819D01*
X136588571Y-95466819D02*
X136779047Y-95466819D01*
X136779047Y-95466819D02*
X136874285Y-95514438D01*
X136874285Y-95514438D02*
X136969523Y-95609676D01*
X136969523Y-95609676D02*
X137017142Y-95800152D01*
X137017142Y-95800152D02*
X137017142Y-96133485D01*
X137017142Y-96133485D02*
X136969523Y-96323961D01*
X136969523Y-96323961D02*
X136874285Y-96419200D01*
X136874285Y-96419200D02*
X136779047Y-96466819D01*
X136779047Y-96466819D02*
X136588571Y-96466819D01*
X137874285Y-95466819D02*
X137683809Y-95466819D01*
X137683809Y-95466819D02*
X137588571Y-95514438D01*
X137588571Y-95514438D02*
X137540952Y-95562057D01*
X137540952Y-95562057D02*
X137445714Y-95704914D01*
X137445714Y-95704914D02*
X137398095Y-95895390D01*
X137398095Y-95895390D02*
X137398095Y-96276342D01*
X137398095Y-96276342D02*
X137445714Y-96371580D01*
X137445714Y-96371580D02*
X137493333Y-96419200D01*
X137493333Y-96419200D02*
X137588571Y-96466819D01*
X137588571Y-96466819D02*
X137779047Y-96466819D01*
X137779047Y-96466819D02*
X137874285Y-96419200D01*
X137874285Y-96419200D02*
X137921904Y-96371580D01*
X137921904Y-96371580D02*
X137969523Y-96276342D01*
X137969523Y-96276342D02*
X137969523Y-96038247D01*
X137969523Y-96038247D02*
X137921904Y-95943009D01*
X137921904Y-95943009D02*
X137874285Y-95895390D01*
X137874285Y-95895390D02*
X137779047Y-95847771D01*
X137779047Y-95847771D02*
X137588571Y-95847771D01*
X137588571Y-95847771D02*
X137493333Y-95895390D01*
X137493333Y-95895390D02*
X137445714Y-95943009D01*
X137445714Y-95943009D02*
X137398095Y-96038247D01*
X115421580Y-80652857D02*
X115469200Y-80700476D01*
X115469200Y-80700476D02*
X115516819Y-80843333D01*
X115516819Y-80843333D02*
X115516819Y-80938571D01*
X115516819Y-80938571D02*
X115469200Y-81081428D01*
X115469200Y-81081428D02*
X115373961Y-81176666D01*
X115373961Y-81176666D02*
X115278723Y-81224285D01*
X115278723Y-81224285D02*
X115088247Y-81271904D01*
X115088247Y-81271904D02*
X114945390Y-81271904D01*
X114945390Y-81271904D02*
X114754914Y-81224285D01*
X114754914Y-81224285D02*
X114659676Y-81176666D01*
X114659676Y-81176666D02*
X114564438Y-81081428D01*
X114564438Y-81081428D02*
X114516819Y-80938571D01*
X114516819Y-80938571D02*
X114516819Y-80843333D01*
X114516819Y-80843333D02*
X114564438Y-80700476D01*
X114564438Y-80700476D02*
X114612057Y-80652857D01*
X115516819Y-79700476D02*
X115516819Y-80271904D01*
X115516819Y-79986190D02*
X114516819Y-79986190D01*
X114516819Y-79986190D02*
X114659676Y-80081428D01*
X114659676Y-80081428D02*
X114754914Y-80176666D01*
X114754914Y-80176666D02*
X114802533Y-80271904D01*
X114516819Y-79367142D02*
X114516819Y-78700476D01*
X114516819Y-78700476D02*
X115516819Y-79129047D01*
X118070476Y-77924819D02*
X118070476Y-76924819D01*
X118070476Y-76924819D02*
X118403809Y-77639104D01*
X118403809Y-77639104D02*
X118737142Y-76924819D01*
X118737142Y-76924819D02*
X118737142Y-77924819D01*
X119213333Y-77924819D02*
X119213333Y-76924819D01*
X119784761Y-77924819D02*
X119356190Y-77353390D01*
X119784761Y-76924819D02*
X119213333Y-77496247D01*
X120737142Y-77924819D02*
X120165714Y-77924819D01*
X120451428Y-77924819D02*
X120451428Y-76924819D01*
X120451428Y-76924819D02*
X120356190Y-77067676D01*
X120356190Y-77067676D02*
X120260952Y-77162914D01*
X120260952Y-77162914D02*
X120165714Y-77210533D01*
X67572405Y-109474819D02*
X67572405Y-108474819D01*
X67572405Y-108474819D02*
X67810500Y-108474819D01*
X67810500Y-108474819D02*
X67953357Y-108522438D01*
X67953357Y-108522438D02*
X68048595Y-108617676D01*
X68048595Y-108617676D02*
X68096214Y-108712914D01*
X68096214Y-108712914D02*
X68143833Y-108903390D01*
X68143833Y-108903390D02*
X68143833Y-109046247D01*
X68143833Y-109046247D02*
X68096214Y-109236723D01*
X68096214Y-109236723D02*
X68048595Y-109331961D01*
X68048595Y-109331961D02*
X67953357Y-109427200D01*
X67953357Y-109427200D02*
X67810500Y-109474819D01*
X67810500Y-109474819D02*
X67572405Y-109474819D01*
X69048595Y-108474819D02*
X68572405Y-108474819D01*
X68572405Y-108474819D02*
X68524786Y-108951009D01*
X68524786Y-108951009D02*
X68572405Y-108903390D01*
X68572405Y-108903390D02*
X68667643Y-108855771D01*
X68667643Y-108855771D02*
X68905738Y-108855771D01*
X68905738Y-108855771D02*
X69000976Y-108903390D01*
X69000976Y-108903390D02*
X69048595Y-108951009D01*
X69048595Y-108951009D02*
X69096214Y-109046247D01*
X69096214Y-109046247D02*
X69096214Y-109284342D01*
X69096214Y-109284342D02*
X69048595Y-109379580D01*
X69048595Y-109379580D02*
X69000976Y-109427200D01*
X69000976Y-109427200D02*
X68905738Y-109474819D01*
X68905738Y-109474819D02*
X68667643Y-109474819D01*
X68667643Y-109474819D02*
X68572405Y-109427200D01*
X68572405Y-109427200D02*
X68524786Y-109379580D01*
X146550057Y-93411428D02*
X146502438Y-93506666D01*
X146502438Y-93506666D02*
X146407200Y-93601904D01*
X146407200Y-93601904D02*
X146264342Y-93744761D01*
X146264342Y-93744761D02*
X146216723Y-93839999D01*
X146216723Y-93839999D02*
X146216723Y-93935237D01*
X146454819Y-93887618D02*
X146407200Y-93982856D01*
X146407200Y-93982856D02*
X146311961Y-94078094D01*
X146311961Y-94078094D02*
X146121485Y-94125713D01*
X146121485Y-94125713D02*
X145788152Y-94125713D01*
X145788152Y-94125713D02*
X145597676Y-94078094D01*
X145597676Y-94078094D02*
X145502438Y-93982856D01*
X145502438Y-93982856D02*
X145454819Y-93887618D01*
X145454819Y-93887618D02*
X145454819Y-93697142D01*
X145454819Y-93697142D02*
X145502438Y-93601904D01*
X145502438Y-93601904D02*
X145597676Y-93506666D01*
X145597676Y-93506666D02*
X145788152Y-93459047D01*
X145788152Y-93459047D02*
X146121485Y-93459047D01*
X146121485Y-93459047D02*
X146311961Y-93506666D01*
X146311961Y-93506666D02*
X146407200Y-93601904D01*
X146407200Y-93601904D02*
X146454819Y-93697142D01*
X146454819Y-93697142D02*
X146454819Y-93887618D01*
X146454819Y-92506666D02*
X146454819Y-93078094D01*
X146454819Y-92792380D02*
X145454819Y-92792380D01*
X145454819Y-92792380D02*
X145597676Y-92887618D01*
X145597676Y-92887618D02*
X145692914Y-92982856D01*
X145692914Y-92982856D02*
X145740533Y-93078094D01*
X145454819Y-91887618D02*
X145454819Y-91792380D01*
X145454819Y-91792380D02*
X145502438Y-91697142D01*
X145502438Y-91697142D02*
X145550057Y-91649523D01*
X145550057Y-91649523D02*
X145645295Y-91601904D01*
X145645295Y-91601904D02*
X145835771Y-91554285D01*
X145835771Y-91554285D02*
X146073866Y-91554285D01*
X146073866Y-91554285D02*
X146264342Y-91601904D01*
X146264342Y-91601904D02*
X146359580Y-91649523D01*
X146359580Y-91649523D02*
X146407200Y-91697142D01*
X146407200Y-91697142D02*
X146454819Y-91792380D01*
X146454819Y-91792380D02*
X146454819Y-91887618D01*
X146454819Y-91887618D02*
X146407200Y-91982856D01*
X146407200Y-91982856D02*
X146359580Y-92030475D01*
X146359580Y-92030475D02*
X146264342Y-92078094D01*
X146264342Y-92078094D02*
X146073866Y-92125713D01*
X146073866Y-92125713D02*
X145835771Y-92125713D01*
X145835771Y-92125713D02*
X145645295Y-92078094D01*
X145645295Y-92078094D02*
X145550057Y-92030475D01*
X145550057Y-92030475D02*
X145502438Y-91982856D01*
X145502438Y-91982856D02*
X145454819Y-91887618D01*
X61203333Y-114480819D02*
X60870000Y-114004628D01*
X60631905Y-114480819D02*
X60631905Y-113480819D01*
X60631905Y-113480819D02*
X61012857Y-113480819D01*
X61012857Y-113480819D02*
X61108095Y-113528438D01*
X61108095Y-113528438D02*
X61155714Y-113576057D01*
X61155714Y-113576057D02*
X61203333Y-113671295D01*
X61203333Y-113671295D02*
X61203333Y-113814152D01*
X61203333Y-113814152D02*
X61155714Y-113909390D01*
X61155714Y-113909390D02*
X61108095Y-113957009D01*
X61108095Y-113957009D02*
X61012857Y-114004628D01*
X61012857Y-114004628D02*
X60631905Y-114004628D01*
X62155714Y-114480819D02*
X61584286Y-114480819D01*
X61870000Y-114480819D02*
X61870000Y-113480819D01*
X61870000Y-113480819D02*
X61774762Y-113623676D01*
X61774762Y-113623676D02*
X61679524Y-113718914D01*
X61679524Y-113718914D02*
X61584286Y-113766533D01*
X68018819Y-86748857D02*
X67542628Y-87082190D01*
X68018819Y-87320285D02*
X67018819Y-87320285D01*
X67018819Y-87320285D02*
X67018819Y-86939333D01*
X67018819Y-86939333D02*
X67066438Y-86844095D01*
X67066438Y-86844095D02*
X67114057Y-86796476D01*
X67114057Y-86796476D02*
X67209295Y-86748857D01*
X67209295Y-86748857D02*
X67352152Y-86748857D01*
X67352152Y-86748857D02*
X67447390Y-86796476D01*
X67447390Y-86796476D02*
X67495009Y-86844095D01*
X67495009Y-86844095D02*
X67542628Y-86939333D01*
X67542628Y-86939333D02*
X67542628Y-87320285D01*
X67114057Y-86367904D02*
X67066438Y-86320285D01*
X67066438Y-86320285D02*
X67018819Y-86225047D01*
X67018819Y-86225047D02*
X67018819Y-85986952D01*
X67018819Y-85986952D02*
X67066438Y-85891714D01*
X67066438Y-85891714D02*
X67114057Y-85844095D01*
X67114057Y-85844095D02*
X67209295Y-85796476D01*
X67209295Y-85796476D02*
X67304533Y-85796476D01*
X67304533Y-85796476D02*
X67447390Y-85844095D01*
X67447390Y-85844095D02*
X68018819Y-86415523D01*
X68018819Y-86415523D02*
X68018819Y-85796476D01*
X67018819Y-84939333D02*
X67018819Y-85129809D01*
X67018819Y-85129809D02*
X67066438Y-85225047D01*
X67066438Y-85225047D02*
X67114057Y-85272666D01*
X67114057Y-85272666D02*
X67256914Y-85367904D01*
X67256914Y-85367904D02*
X67447390Y-85415523D01*
X67447390Y-85415523D02*
X67828342Y-85415523D01*
X67828342Y-85415523D02*
X67923580Y-85367904D01*
X67923580Y-85367904D02*
X67971200Y-85320285D01*
X67971200Y-85320285D02*
X68018819Y-85225047D01*
X68018819Y-85225047D02*
X68018819Y-85034571D01*
X68018819Y-85034571D02*
X67971200Y-84939333D01*
X67971200Y-84939333D02*
X67923580Y-84891714D01*
X67923580Y-84891714D02*
X67828342Y-84844095D01*
X67828342Y-84844095D02*
X67590247Y-84844095D01*
X67590247Y-84844095D02*
X67495009Y-84891714D01*
X67495009Y-84891714D02*
X67447390Y-84939333D01*
X67447390Y-84939333D02*
X67399771Y-85034571D01*
X67399771Y-85034571D02*
X67399771Y-85225047D01*
X67399771Y-85225047D02*
X67447390Y-85320285D01*
X67447390Y-85320285D02*
X67495009Y-85367904D01*
X67495009Y-85367904D02*
X67590247Y-85415523D01*
X122628819Y-81922857D02*
X122152628Y-82256190D01*
X122628819Y-82494285D02*
X121628819Y-82494285D01*
X121628819Y-82494285D02*
X121628819Y-82113333D01*
X121628819Y-82113333D02*
X121676438Y-82018095D01*
X121676438Y-82018095D02*
X121724057Y-81970476D01*
X121724057Y-81970476D02*
X121819295Y-81922857D01*
X121819295Y-81922857D02*
X121962152Y-81922857D01*
X121962152Y-81922857D02*
X122057390Y-81970476D01*
X122057390Y-81970476D02*
X122105009Y-82018095D01*
X122105009Y-82018095D02*
X122152628Y-82113333D01*
X122152628Y-82113333D02*
X122152628Y-82494285D01*
X121628819Y-81589523D02*
X121628819Y-80970476D01*
X121628819Y-80970476D02*
X122009771Y-81303809D01*
X122009771Y-81303809D02*
X122009771Y-81160952D01*
X122009771Y-81160952D02*
X122057390Y-81065714D01*
X122057390Y-81065714D02*
X122105009Y-81018095D01*
X122105009Y-81018095D02*
X122200247Y-80970476D01*
X122200247Y-80970476D02*
X122438342Y-80970476D01*
X122438342Y-80970476D02*
X122533580Y-81018095D01*
X122533580Y-81018095D02*
X122581200Y-81065714D01*
X122581200Y-81065714D02*
X122628819Y-81160952D01*
X122628819Y-81160952D02*
X122628819Y-81446666D01*
X122628819Y-81446666D02*
X122581200Y-81541904D01*
X122581200Y-81541904D02*
X122533580Y-81589523D01*
X121962152Y-80113333D02*
X122628819Y-80113333D01*
X121581200Y-80351428D02*
X122295485Y-80589523D01*
X122295485Y-80589523D02*
X122295485Y-79970476D01*
X96184819Y-99662857D02*
X95708628Y-99996190D01*
X96184819Y-100234285D02*
X95184819Y-100234285D01*
X95184819Y-100234285D02*
X95184819Y-99853333D01*
X95184819Y-99853333D02*
X95232438Y-99758095D01*
X95232438Y-99758095D02*
X95280057Y-99710476D01*
X95280057Y-99710476D02*
X95375295Y-99662857D01*
X95375295Y-99662857D02*
X95518152Y-99662857D01*
X95518152Y-99662857D02*
X95613390Y-99710476D01*
X95613390Y-99710476D02*
X95661009Y-99758095D01*
X95661009Y-99758095D02*
X95708628Y-99853333D01*
X95708628Y-99853333D02*
X95708628Y-100234285D01*
X96184819Y-98710476D02*
X96184819Y-99281904D01*
X96184819Y-98996190D02*
X95184819Y-98996190D01*
X95184819Y-98996190D02*
X95327676Y-99091428D01*
X95327676Y-99091428D02*
X95422914Y-99186666D01*
X95422914Y-99186666D02*
X95470533Y-99281904D01*
X96184819Y-97758095D02*
X96184819Y-98329523D01*
X96184819Y-98043809D02*
X95184819Y-98043809D01*
X95184819Y-98043809D02*
X95327676Y-98139047D01*
X95327676Y-98139047D02*
X95422914Y-98234285D01*
X95422914Y-98234285D02*
X95470533Y-98329523D01*
X61414819Y-109704094D02*
X60414819Y-109704094D01*
X60414819Y-109704094D02*
X60414819Y-109465999D01*
X60414819Y-109465999D02*
X60462438Y-109323142D01*
X60462438Y-109323142D02*
X60557676Y-109227904D01*
X60557676Y-109227904D02*
X60652914Y-109180285D01*
X60652914Y-109180285D02*
X60843390Y-109132666D01*
X60843390Y-109132666D02*
X60986247Y-109132666D01*
X60986247Y-109132666D02*
X61176723Y-109180285D01*
X61176723Y-109180285D02*
X61271961Y-109227904D01*
X61271961Y-109227904D02*
X61367200Y-109323142D01*
X61367200Y-109323142D02*
X61414819Y-109465999D01*
X61414819Y-109465999D02*
X61414819Y-109704094D01*
X60748152Y-108275523D02*
X61414819Y-108275523D01*
X60367200Y-108513618D02*
X61081485Y-108751713D01*
X61081485Y-108751713D02*
X61081485Y-108132666D01*
X94607142Y-76400819D02*
X94273809Y-75924628D01*
X94035714Y-76400819D02*
X94035714Y-75400819D01*
X94035714Y-75400819D02*
X94416666Y-75400819D01*
X94416666Y-75400819D02*
X94511904Y-75448438D01*
X94511904Y-75448438D02*
X94559523Y-75496057D01*
X94559523Y-75496057D02*
X94607142Y-75591295D01*
X94607142Y-75591295D02*
X94607142Y-75734152D01*
X94607142Y-75734152D02*
X94559523Y-75829390D01*
X94559523Y-75829390D02*
X94511904Y-75877009D01*
X94511904Y-75877009D02*
X94416666Y-75924628D01*
X94416666Y-75924628D02*
X94035714Y-75924628D01*
X95559523Y-76400819D02*
X94988095Y-76400819D01*
X95273809Y-76400819D02*
X95273809Y-75400819D01*
X95273809Y-75400819D02*
X95178571Y-75543676D01*
X95178571Y-75543676D02*
X95083333Y-75638914D01*
X95083333Y-75638914D02*
X94988095Y-75686533D01*
X96035714Y-76400819D02*
X96226190Y-76400819D01*
X96226190Y-76400819D02*
X96321428Y-76353200D01*
X96321428Y-76353200D02*
X96369047Y-76305580D01*
X96369047Y-76305580D02*
X96464285Y-76162723D01*
X96464285Y-76162723D02*
X96511904Y-75972247D01*
X96511904Y-75972247D02*
X96511904Y-75591295D01*
X96511904Y-75591295D02*
X96464285Y-75496057D01*
X96464285Y-75496057D02*
X96416666Y-75448438D01*
X96416666Y-75448438D02*
X96321428Y-75400819D01*
X96321428Y-75400819D02*
X96130952Y-75400819D01*
X96130952Y-75400819D02*
X96035714Y-75448438D01*
X96035714Y-75448438D02*
X95988095Y-75496057D01*
X95988095Y-75496057D02*
X95940476Y-75591295D01*
X95940476Y-75591295D02*
X95940476Y-75829390D01*
X95940476Y-75829390D02*
X95988095Y-75924628D01*
X95988095Y-75924628D02*
X96035714Y-75972247D01*
X96035714Y-75972247D02*
X96130952Y-76019866D01*
X96130952Y-76019866D02*
X96321428Y-76019866D01*
X96321428Y-76019866D02*
X96416666Y-75972247D01*
X96416666Y-75972247D02*
X96464285Y-75924628D01*
X96464285Y-75924628D02*
X96511904Y-75829390D01*
X106037142Y-75986819D02*
X105703809Y-75510628D01*
X105465714Y-75986819D02*
X105465714Y-74986819D01*
X105465714Y-74986819D02*
X105846666Y-74986819D01*
X105846666Y-74986819D02*
X105941904Y-75034438D01*
X105941904Y-75034438D02*
X105989523Y-75082057D01*
X105989523Y-75082057D02*
X106037142Y-75177295D01*
X106037142Y-75177295D02*
X106037142Y-75320152D01*
X106037142Y-75320152D02*
X105989523Y-75415390D01*
X105989523Y-75415390D02*
X105941904Y-75463009D01*
X105941904Y-75463009D02*
X105846666Y-75510628D01*
X105846666Y-75510628D02*
X105465714Y-75510628D01*
X106370476Y-74986819D02*
X106989523Y-74986819D01*
X106989523Y-74986819D02*
X106656190Y-75367771D01*
X106656190Y-75367771D02*
X106799047Y-75367771D01*
X106799047Y-75367771D02*
X106894285Y-75415390D01*
X106894285Y-75415390D02*
X106941904Y-75463009D01*
X106941904Y-75463009D02*
X106989523Y-75558247D01*
X106989523Y-75558247D02*
X106989523Y-75796342D01*
X106989523Y-75796342D02*
X106941904Y-75891580D01*
X106941904Y-75891580D02*
X106894285Y-75939200D01*
X106894285Y-75939200D02*
X106799047Y-75986819D01*
X106799047Y-75986819D02*
X106513333Y-75986819D01*
X106513333Y-75986819D02*
X106418095Y-75939200D01*
X106418095Y-75939200D02*
X106370476Y-75891580D01*
X107322857Y-74986819D02*
X107989523Y-74986819D01*
X107989523Y-74986819D02*
X107560952Y-75986819D01*
X67448642Y-107754819D02*
X67115309Y-107278628D01*
X66877214Y-107754819D02*
X66877214Y-106754819D01*
X66877214Y-106754819D02*
X67258166Y-106754819D01*
X67258166Y-106754819D02*
X67353404Y-106802438D01*
X67353404Y-106802438D02*
X67401023Y-106850057D01*
X67401023Y-106850057D02*
X67448642Y-106945295D01*
X67448642Y-106945295D02*
X67448642Y-107088152D01*
X67448642Y-107088152D02*
X67401023Y-107183390D01*
X67401023Y-107183390D02*
X67353404Y-107231009D01*
X67353404Y-107231009D02*
X67258166Y-107278628D01*
X67258166Y-107278628D02*
X66877214Y-107278628D01*
X68401023Y-107754819D02*
X67829595Y-107754819D01*
X68115309Y-107754819D02*
X68115309Y-106754819D01*
X68115309Y-106754819D02*
X68020071Y-106897676D01*
X68020071Y-106897676D02*
X67924833Y-106992914D01*
X67924833Y-106992914D02*
X67829595Y-107040533D01*
X68781976Y-106850057D02*
X68829595Y-106802438D01*
X68829595Y-106802438D02*
X68924833Y-106754819D01*
X68924833Y-106754819D02*
X69162928Y-106754819D01*
X69162928Y-106754819D02*
X69258166Y-106802438D01*
X69258166Y-106802438D02*
X69305785Y-106850057D01*
X69305785Y-106850057D02*
X69353404Y-106945295D01*
X69353404Y-106945295D02*
X69353404Y-107040533D01*
X69353404Y-107040533D02*
X69305785Y-107183390D01*
X69305785Y-107183390D02*
X68734357Y-107754819D01*
X68734357Y-107754819D02*
X69353404Y-107754819D01*
X90797142Y-92816819D02*
X90463809Y-92340628D01*
X90225714Y-92816819D02*
X90225714Y-91816819D01*
X90225714Y-91816819D02*
X90606666Y-91816819D01*
X90606666Y-91816819D02*
X90701904Y-91864438D01*
X90701904Y-91864438D02*
X90749523Y-91912057D01*
X90749523Y-91912057D02*
X90797142Y-92007295D01*
X90797142Y-92007295D02*
X90797142Y-92150152D01*
X90797142Y-92150152D02*
X90749523Y-92245390D01*
X90749523Y-92245390D02*
X90701904Y-92293009D01*
X90701904Y-92293009D02*
X90606666Y-92340628D01*
X90606666Y-92340628D02*
X90225714Y-92340628D01*
X91749523Y-92816819D02*
X91178095Y-92816819D01*
X91463809Y-92816819D02*
X91463809Y-91816819D01*
X91463809Y-91816819D02*
X91368571Y-91959676D01*
X91368571Y-91959676D02*
X91273333Y-92054914D01*
X91273333Y-92054914D02*
X91178095Y-92102533D01*
X92320952Y-92245390D02*
X92225714Y-92197771D01*
X92225714Y-92197771D02*
X92178095Y-92150152D01*
X92178095Y-92150152D02*
X92130476Y-92054914D01*
X92130476Y-92054914D02*
X92130476Y-92007295D01*
X92130476Y-92007295D02*
X92178095Y-91912057D01*
X92178095Y-91912057D02*
X92225714Y-91864438D01*
X92225714Y-91864438D02*
X92320952Y-91816819D01*
X92320952Y-91816819D02*
X92511428Y-91816819D01*
X92511428Y-91816819D02*
X92606666Y-91864438D01*
X92606666Y-91864438D02*
X92654285Y-91912057D01*
X92654285Y-91912057D02*
X92701904Y-92007295D01*
X92701904Y-92007295D02*
X92701904Y-92054914D01*
X92701904Y-92054914D02*
X92654285Y-92150152D01*
X92654285Y-92150152D02*
X92606666Y-92197771D01*
X92606666Y-92197771D02*
X92511428Y-92245390D01*
X92511428Y-92245390D02*
X92320952Y-92245390D01*
X92320952Y-92245390D02*
X92225714Y-92293009D01*
X92225714Y-92293009D02*
X92178095Y-92340628D01*
X92178095Y-92340628D02*
X92130476Y-92435866D01*
X92130476Y-92435866D02*
X92130476Y-92626342D01*
X92130476Y-92626342D02*
X92178095Y-92721580D01*
X92178095Y-92721580D02*
X92225714Y-92769200D01*
X92225714Y-92769200D02*
X92320952Y-92816819D01*
X92320952Y-92816819D02*
X92511428Y-92816819D01*
X92511428Y-92816819D02*
X92606666Y-92769200D01*
X92606666Y-92769200D02*
X92654285Y-92721580D01*
X92654285Y-92721580D02*
X92701904Y-92626342D01*
X92701904Y-92626342D02*
X92701904Y-92435866D01*
X92701904Y-92435866D02*
X92654285Y-92340628D01*
X92654285Y-92340628D02*
X92606666Y-92293009D01*
X92606666Y-92293009D02*
X92511428Y-92245390D01*
X145488819Y-97416857D02*
X145012628Y-97750190D01*
X145488819Y-97988285D02*
X144488819Y-97988285D01*
X144488819Y-97988285D02*
X144488819Y-97607333D01*
X144488819Y-97607333D02*
X144536438Y-97512095D01*
X144536438Y-97512095D02*
X144584057Y-97464476D01*
X144584057Y-97464476D02*
X144679295Y-97416857D01*
X144679295Y-97416857D02*
X144822152Y-97416857D01*
X144822152Y-97416857D02*
X144917390Y-97464476D01*
X144917390Y-97464476D02*
X144965009Y-97512095D01*
X144965009Y-97512095D02*
X145012628Y-97607333D01*
X145012628Y-97607333D02*
X145012628Y-97988285D01*
X144584057Y-97035904D02*
X144536438Y-96988285D01*
X144536438Y-96988285D02*
X144488819Y-96893047D01*
X144488819Y-96893047D02*
X144488819Y-96654952D01*
X144488819Y-96654952D02*
X144536438Y-96559714D01*
X144536438Y-96559714D02*
X144584057Y-96512095D01*
X144584057Y-96512095D02*
X144679295Y-96464476D01*
X144679295Y-96464476D02*
X144774533Y-96464476D01*
X144774533Y-96464476D02*
X144917390Y-96512095D01*
X144917390Y-96512095D02*
X145488819Y-97083523D01*
X145488819Y-97083523D02*
X145488819Y-96464476D01*
X144917390Y-95893047D02*
X144869771Y-95988285D01*
X144869771Y-95988285D02*
X144822152Y-96035904D01*
X144822152Y-96035904D02*
X144726914Y-96083523D01*
X144726914Y-96083523D02*
X144679295Y-96083523D01*
X144679295Y-96083523D02*
X144584057Y-96035904D01*
X144584057Y-96035904D02*
X144536438Y-95988285D01*
X144536438Y-95988285D02*
X144488819Y-95893047D01*
X144488819Y-95893047D02*
X144488819Y-95702571D01*
X144488819Y-95702571D02*
X144536438Y-95607333D01*
X144536438Y-95607333D02*
X144584057Y-95559714D01*
X144584057Y-95559714D02*
X144679295Y-95512095D01*
X144679295Y-95512095D02*
X144726914Y-95512095D01*
X144726914Y-95512095D02*
X144822152Y-95559714D01*
X144822152Y-95559714D02*
X144869771Y-95607333D01*
X144869771Y-95607333D02*
X144917390Y-95702571D01*
X144917390Y-95702571D02*
X144917390Y-95893047D01*
X144917390Y-95893047D02*
X144965009Y-95988285D01*
X144965009Y-95988285D02*
X145012628Y-96035904D01*
X145012628Y-96035904D02*
X145107866Y-96083523D01*
X145107866Y-96083523D02*
X145298342Y-96083523D01*
X145298342Y-96083523D02*
X145393580Y-96035904D01*
X145393580Y-96035904D02*
X145441200Y-95988285D01*
X145441200Y-95988285D02*
X145488819Y-95893047D01*
X145488819Y-95893047D02*
X145488819Y-95702571D01*
X145488819Y-95702571D02*
X145441200Y-95607333D01*
X145441200Y-95607333D02*
X145393580Y-95559714D01*
X145393580Y-95559714D02*
X145298342Y-95512095D01*
X145298342Y-95512095D02*
X145107866Y-95512095D01*
X145107866Y-95512095D02*
X145012628Y-95559714D01*
X145012628Y-95559714D02*
X144965009Y-95607333D01*
X144965009Y-95607333D02*
X144917390Y-95702571D01*
X68194819Y-90922857D02*
X67718628Y-91256190D01*
X68194819Y-91494285D02*
X67194819Y-91494285D01*
X67194819Y-91494285D02*
X67194819Y-91113333D01*
X67194819Y-91113333D02*
X67242438Y-91018095D01*
X67242438Y-91018095D02*
X67290057Y-90970476D01*
X67290057Y-90970476D02*
X67385295Y-90922857D01*
X67385295Y-90922857D02*
X67528152Y-90922857D01*
X67528152Y-90922857D02*
X67623390Y-90970476D01*
X67623390Y-90970476D02*
X67671009Y-91018095D01*
X67671009Y-91018095D02*
X67718628Y-91113333D01*
X67718628Y-91113333D02*
X67718628Y-91494285D01*
X68194819Y-89970476D02*
X68194819Y-90541904D01*
X68194819Y-90256190D02*
X67194819Y-90256190D01*
X67194819Y-90256190D02*
X67337676Y-90351428D01*
X67337676Y-90351428D02*
X67432914Y-90446666D01*
X67432914Y-90446666D02*
X67480533Y-90541904D01*
X67194819Y-89065714D02*
X67194819Y-89541904D01*
X67194819Y-89541904D02*
X67671009Y-89589523D01*
X67671009Y-89589523D02*
X67623390Y-89541904D01*
X67623390Y-89541904D02*
X67575771Y-89446666D01*
X67575771Y-89446666D02*
X67575771Y-89208571D01*
X67575771Y-89208571D02*
X67623390Y-89113333D01*
X67623390Y-89113333D02*
X67671009Y-89065714D01*
X67671009Y-89065714D02*
X67766247Y-89018095D01*
X67766247Y-89018095D02*
X68004342Y-89018095D01*
X68004342Y-89018095D02*
X68099580Y-89065714D01*
X68099580Y-89065714D02*
X68147200Y-89113333D01*
X68147200Y-89113333D02*
X68194819Y-89208571D01*
X68194819Y-89208571D02*
X68194819Y-89446666D01*
X68194819Y-89446666D02*
X68147200Y-89541904D01*
X68147200Y-89541904D02*
X68099580Y-89589523D01*
X105864819Y-82653094D02*
X104864819Y-82653094D01*
X104864819Y-82653094D02*
X104864819Y-82414999D01*
X104864819Y-82414999D02*
X104912438Y-82272142D01*
X104912438Y-82272142D02*
X105007676Y-82176904D01*
X105007676Y-82176904D02*
X105102914Y-82129285D01*
X105102914Y-82129285D02*
X105293390Y-82081666D01*
X105293390Y-82081666D02*
X105436247Y-82081666D01*
X105436247Y-82081666D02*
X105626723Y-82129285D01*
X105626723Y-82129285D02*
X105721961Y-82176904D01*
X105721961Y-82176904D02*
X105817200Y-82272142D01*
X105817200Y-82272142D02*
X105864819Y-82414999D01*
X105864819Y-82414999D02*
X105864819Y-82653094D01*
X105864819Y-81129285D02*
X105864819Y-81700713D01*
X105864819Y-81414999D02*
X104864819Y-81414999D01*
X104864819Y-81414999D02*
X105007676Y-81510237D01*
X105007676Y-81510237D02*
X105102914Y-81605475D01*
X105102914Y-81605475D02*
X105150533Y-81700713D01*
X98101905Y-96774819D02*
X98101905Y-95774819D01*
X98101905Y-95774819D02*
X98340000Y-95774819D01*
X98340000Y-95774819D02*
X98482857Y-95822438D01*
X98482857Y-95822438D02*
X98578095Y-95917676D01*
X98578095Y-95917676D02*
X98625714Y-96012914D01*
X98625714Y-96012914D02*
X98673333Y-96203390D01*
X98673333Y-96203390D02*
X98673333Y-96346247D01*
X98673333Y-96346247D02*
X98625714Y-96536723D01*
X98625714Y-96536723D02*
X98578095Y-96631961D01*
X98578095Y-96631961D02*
X98482857Y-96727200D01*
X98482857Y-96727200D02*
X98340000Y-96774819D01*
X98340000Y-96774819D02*
X98101905Y-96774819D01*
X99006667Y-95774819D02*
X99625714Y-95774819D01*
X99625714Y-95774819D02*
X99292381Y-96155771D01*
X99292381Y-96155771D02*
X99435238Y-96155771D01*
X99435238Y-96155771D02*
X99530476Y-96203390D01*
X99530476Y-96203390D02*
X99578095Y-96251009D01*
X99578095Y-96251009D02*
X99625714Y-96346247D01*
X99625714Y-96346247D02*
X99625714Y-96584342D01*
X99625714Y-96584342D02*
X99578095Y-96679580D01*
X99578095Y-96679580D02*
X99530476Y-96727200D01*
X99530476Y-96727200D02*
X99435238Y-96774819D01*
X99435238Y-96774819D02*
X99149524Y-96774819D01*
X99149524Y-96774819D02*
X99054286Y-96727200D01*
X99054286Y-96727200D02*
X99006667Y-96679580D01*
X94594819Y-84462857D02*
X94118628Y-84796190D01*
X94594819Y-85034285D02*
X93594819Y-85034285D01*
X93594819Y-85034285D02*
X93594819Y-84653333D01*
X93594819Y-84653333D02*
X93642438Y-84558095D01*
X93642438Y-84558095D02*
X93690057Y-84510476D01*
X93690057Y-84510476D02*
X93785295Y-84462857D01*
X93785295Y-84462857D02*
X93928152Y-84462857D01*
X93928152Y-84462857D02*
X94023390Y-84510476D01*
X94023390Y-84510476D02*
X94071009Y-84558095D01*
X94071009Y-84558095D02*
X94118628Y-84653333D01*
X94118628Y-84653333D02*
X94118628Y-85034285D01*
X93690057Y-84081904D02*
X93642438Y-84034285D01*
X93642438Y-84034285D02*
X93594819Y-83939047D01*
X93594819Y-83939047D02*
X93594819Y-83700952D01*
X93594819Y-83700952D02*
X93642438Y-83605714D01*
X93642438Y-83605714D02*
X93690057Y-83558095D01*
X93690057Y-83558095D02*
X93785295Y-83510476D01*
X93785295Y-83510476D02*
X93880533Y-83510476D01*
X93880533Y-83510476D02*
X94023390Y-83558095D01*
X94023390Y-83558095D02*
X94594819Y-84129523D01*
X94594819Y-84129523D02*
X94594819Y-83510476D01*
X93594819Y-82891428D02*
X93594819Y-82796190D01*
X93594819Y-82796190D02*
X93642438Y-82700952D01*
X93642438Y-82700952D02*
X93690057Y-82653333D01*
X93690057Y-82653333D02*
X93785295Y-82605714D01*
X93785295Y-82605714D02*
X93975771Y-82558095D01*
X93975771Y-82558095D02*
X94213866Y-82558095D01*
X94213866Y-82558095D02*
X94404342Y-82605714D01*
X94404342Y-82605714D02*
X94499580Y-82653333D01*
X94499580Y-82653333D02*
X94547200Y-82700952D01*
X94547200Y-82700952D02*
X94594819Y-82796190D01*
X94594819Y-82796190D02*
X94594819Y-82891428D01*
X94594819Y-82891428D02*
X94547200Y-82986666D01*
X94547200Y-82986666D02*
X94499580Y-83034285D01*
X94499580Y-83034285D02*
X94404342Y-83081904D01*
X94404342Y-83081904D02*
X94213866Y-83129523D01*
X94213866Y-83129523D02*
X93975771Y-83129523D01*
X93975771Y-83129523D02*
X93785295Y-83081904D01*
X93785295Y-83081904D02*
X93690057Y-83034285D01*
X93690057Y-83034285D02*
X93642438Y-82986666D01*
X93642438Y-82986666D02*
X93594819Y-82891428D01*
X133373905Y-87830819D02*
X133373905Y-86830819D01*
X133373905Y-86830819D02*
X133612000Y-86830819D01*
X133612000Y-86830819D02*
X133754857Y-86878438D01*
X133754857Y-86878438D02*
X133850095Y-86973676D01*
X133850095Y-86973676D02*
X133897714Y-87068914D01*
X133897714Y-87068914D02*
X133945333Y-87259390D01*
X133945333Y-87259390D02*
X133945333Y-87402247D01*
X133945333Y-87402247D02*
X133897714Y-87592723D01*
X133897714Y-87592723D02*
X133850095Y-87687961D01*
X133850095Y-87687961D02*
X133754857Y-87783200D01*
X133754857Y-87783200D02*
X133612000Y-87830819D01*
X133612000Y-87830819D02*
X133373905Y-87830819D01*
X134326286Y-86926057D02*
X134373905Y-86878438D01*
X134373905Y-86878438D02*
X134469143Y-86830819D01*
X134469143Y-86830819D02*
X134707238Y-86830819D01*
X134707238Y-86830819D02*
X134802476Y-86878438D01*
X134802476Y-86878438D02*
X134850095Y-86926057D01*
X134850095Y-86926057D02*
X134897714Y-87021295D01*
X134897714Y-87021295D02*
X134897714Y-87116533D01*
X134897714Y-87116533D02*
X134850095Y-87259390D01*
X134850095Y-87259390D02*
X134278667Y-87830819D01*
X134278667Y-87830819D02*
X134897714Y-87830819D01*
X113879333Y-101038819D02*
X113546000Y-100562628D01*
X113307905Y-101038819D02*
X113307905Y-100038819D01*
X113307905Y-100038819D02*
X113688857Y-100038819D01*
X113688857Y-100038819D02*
X113784095Y-100086438D01*
X113784095Y-100086438D02*
X113831714Y-100134057D01*
X113831714Y-100134057D02*
X113879333Y-100229295D01*
X113879333Y-100229295D02*
X113879333Y-100372152D01*
X113879333Y-100372152D02*
X113831714Y-100467390D01*
X113831714Y-100467390D02*
X113784095Y-100515009D01*
X113784095Y-100515009D02*
X113688857Y-100562628D01*
X113688857Y-100562628D02*
X113307905Y-100562628D01*
X114212667Y-100038819D02*
X114879333Y-100038819D01*
X114879333Y-100038819D02*
X114450762Y-101038819D01*
X116959142Y-80623580D02*
X116911523Y-80671200D01*
X116911523Y-80671200D02*
X116768666Y-80718819D01*
X116768666Y-80718819D02*
X116673428Y-80718819D01*
X116673428Y-80718819D02*
X116530571Y-80671200D01*
X116530571Y-80671200D02*
X116435333Y-80575961D01*
X116435333Y-80575961D02*
X116387714Y-80480723D01*
X116387714Y-80480723D02*
X116340095Y-80290247D01*
X116340095Y-80290247D02*
X116340095Y-80147390D01*
X116340095Y-80147390D02*
X116387714Y-79956914D01*
X116387714Y-79956914D02*
X116435333Y-79861676D01*
X116435333Y-79861676D02*
X116530571Y-79766438D01*
X116530571Y-79766438D02*
X116673428Y-79718819D01*
X116673428Y-79718819D02*
X116768666Y-79718819D01*
X116768666Y-79718819D02*
X116911523Y-79766438D01*
X116911523Y-79766438D02*
X116959142Y-79814057D01*
X117911523Y-80718819D02*
X117340095Y-80718819D01*
X117625809Y-80718819D02*
X117625809Y-79718819D01*
X117625809Y-79718819D02*
X117530571Y-79861676D01*
X117530571Y-79861676D02*
X117435333Y-79956914D01*
X117435333Y-79956914D02*
X117340095Y-80004533D01*
X118768666Y-79718819D02*
X118578190Y-79718819D01*
X118578190Y-79718819D02*
X118482952Y-79766438D01*
X118482952Y-79766438D02*
X118435333Y-79814057D01*
X118435333Y-79814057D02*
X118340095Y-79956914D01*
X118340095Y-79956914D02*
X118292476Y-80147390D01*
X118292476Y-80147390D02*
X118292476Y-80528342D01*
X118292476Y-80528342D02*
X118340095Y-80623580D01*
X118340095Y-80623580D02*
X118387714Y-80671200D01*
X118387714Y-80671200D02*
X118482952Y-80718819D01*
X118482952Y-80718819D02*
X118673428Y-80718819D01*
X118673428Y-80718819D02*
X118768666Y-80671200D01*
X118768666Y-80671200D02*
X118816285Y-80623580D01*
X118816285Y-80623580D02*
X118863904Y-80528342D01*
X118863904Y-80528342D02*
X118863904Y-80290247D01*
X118863904Y-80290247D02*
X118816285Y-80195009D01*
X118816285Y-80195009D02*
X118768666Y-80147390D01*
X118768666Y-80147390D02*
X118673428Y-80099771D01*
X118673428Y-80099771D02*
X118482952Y-80099771D01*
X118482952Y-80099771D02*
X118387714Y-80147390D01*
X118387714Y-80147390D02*
X118340095Y-80195009D01*
X118340095Y-80195009D02*
X118292476Y-80290247D01*
X89323333Y-99749580D02*
X89275714Y-99797200D01*
X89275714Y-99797200D02*
X89132857Y-99844819D01*
X89132857Y-99844819D02*
X89037619Y-99844819D01*
X89037619Y-99844819D02*
X88894762Y-99797200D01*
X88894762Y-99797200D02*
X88799524Y-99701961D01*
X88799524Y-99701961D02*
X88751905Y-99606723D01*
X88751905Y-99606723D02*
X88704286Y-99416247D01*
X88704286Y-99416247D02*
X88704286Y-99273390D01*
X88704286Y-99273390D02*
X88751905Y-99082914D01*
X88751905Y-99082914D02*
X88799524Y-98987676D01*
X88799524Y-98987676D02*
X88894762Y-98892438D01*
X88894762Y-98892438D02*
X89037619Y-98844819D01*
X89037619Y-98844819D02*
X89132857Y-98844819D01*
X89132857Y-98844819D02*
X89275714Y-98892438D01*
X89275714Y-98892438D02*
X89323333Y-98940057D01*
X89656667Y-98844819D02*
X90275714Y-98844819D01*
X90275714Y-98844819D02*
X89942381Y-99225771D01*
X89942381Y-99225771D02*
X90085238Y-99225771D01*
X90085238Y-99225771D02*
X90180476Y-99273390D01*
X90180476Y-99273390D02*
X90228095Y-99321009D01*
X90228095Y-99321009D02*
X90275714Y-99416247D01*
X90275714Y-99416247D02*
X90275714Y-99654342D01*
X90275714Y-99654342D02*
X90228095Y-99749580D01*
X90228095Y-99749580D02*
X90180476Y-99797200D01*
X90180476Y-99797200D02*
X90085238Y-99844819D01*
X90085238Y-99844819D02*
X89799524Y-99844819D01*
X89799524Y-99844819D02*
X89704286Y-99797200D01*
X89704286Y-99797200D02*
X89656667Y-99749580D01*
X129693200Y-102679332D02*
X129740819Y-102536475D01*
X129740819Y-102536475D02*
X129740819Y-102298380D01*
X129740819Y-102298380D02*
X129693200Y-102203142D01*
X129693200Y-102203142D02*
X129645580Y-102155523D01*
X129645580Y-102155523D02*
X129550342Y-102107904D01*
X129550342Y-102107904D02*
X129455104Y-102107904D01*
X129455104Y-102107904D02*
X129359866Y-102155523D01*
X129359866Y-102155523D02*
X129312247Y-102203142D01*
X129312247Y-102203142D02*
X129264628Y-102298380D01*
X129264628Y-102298380D02*
X129217009Y-102488856D01*
X129217009Y-102488856D02*
X129169390Y-102584094D01*
X129169390Y-102584094D02*
X129121771Y-102631713D01*
X129121771Y-102631713D02*
X129026533Y-102679332D01*
X129026533Y-102679332D02*
X128931295Y-102679332D01*
X128931295Y-102679332D02*
X128836057Y-102631713D01*
X128836057Y-102631713D02*
X128788438Y-102584094D01*
X128788438Y-102584094D02*
X128740819Y-102488856D01*
X128740819Y-102488856D02*
X128740819Y-102250761D01*
X128740819Y-102250761D02*
X128788438Y-102107904D01*
X128740819Y-101774570D02*
X129740819Y-101536475D01*
X129740819Y-101536475D02*
X129026533Y-101345999D01*
X129026533Y-101345999D02*
X129740819Y-101155523D01*
X129740819Y-101155523D02*
X128740819Y-100917428D01*
X128836057Y-100584094D02*
X128788438Y-100536475D01*
X128788438Y-100536475D02*
X128740819Y-100441237D01*
X128740819Y-100441237D02*
X128740819Y-100203142D01*
X128740819Y-100203142D02*
X128788438Y-100107904D01*
X128788438Y-100107904D02*
X128836057Y-100060285D01*
X128836057Y-100060285D02*
X128931295Y-100012666D01*
X128931295Y-100012666D02*
X129026533Y-100012666D01*
X129026533Y-100012666D02*
X129169390Y-100060285D01*
X129169390Y-100060285D02*
X129740819Y-100631713D01*
X129740819Y-100631713D02*
X129740819Y-100012666D01*
X132706824Y-101314286D02*
X132706824Y-101885714D01*
X132706824Y-101600000D02*
X131706824Y-101600000D01*
X131706824Y-101600000D02*
X131849681Y-101695238D01*
X131849681Y-101695238D02*
X131944919Y-101790476D01*
X131944919Y-101790476D02*
X131992538Y-101885714D01*
X136167905Y-104848819D02*
X136167905Y-103848819D01*
X136167905Y-103848819D02*
X136406000Y-103848819D01*
X136406000Y-103848819D02*
X136548857Y-103896438D01*
X136548857Y-103896438D02*
X136644095Y-103991676D01*
X136644095Y-103991676D02*
X136691714Y-104086914D01*
X136691714Y-104086914D02*
X136739333Y-104277390D01*
X136739333Y-104277390D02*
X136739333Y-104420247D01*
X136739333Y-104420247D02*
X136691714Y-104610723D01*
X136691714Y-104610723D02*
X136644095Y-104705961D01*
X136644095Y-104705961D02*
X136548857Y-104801200D01*
X136548857Y-104801200D02*
X136406000Y-104848819D01*
X136406000Y-104848819D02*
X136167905Y-104848819D01*
X137310762Y-104277390D02*
X137215524Y-104229771D01*
X137215524Y-104229771D02*
X137167905Y-104182152D01*
X137167905Y-104182152D02*
X137120286Y-104086914D01*
X137120286Y-104086914D02*
X137120286Y-104039295D01*
X137120286Y-104039295D02*
X137167905Y-103944057D01*
X137167905Y-103944057D02*
X137215524Y-103896438D01*
X137215524Y-103896438D02*
X137310762Y-103848819D01*
X137310762Y-103848819D02*
X137501238Y-103848819D01*
X137501238Y-103848819D02*
X137596476Y-103896438D01*
X137596476Y-103896438D02*
X137644095Y-103944057D01*
X137644095Y-103944057D02*
X137691714Y-104039295D01*
X137691714Y-104039295D02*
X137691714Y-104086914D01*
X137691714Y-104086914D02*
X137644095Y-104182152D01*
X137644095Y-104182152D02*
X137596476Y-104229771D01*
X137596476Y-104229771D02*
X137501238Y-104277390D01*
X137501238Y-104277390D02*
X137310762Y-104277390D01*
X137310762Y-104277390D02*
X137215524Y-104325009D01*
X137215524Y-104325009D02*
X137167905Y-104372628D01*
X137167905Y-104372628D02*
X137120286Y-104467866D01*
X137120286Y-104467866D02*
X137120286Y-104658342D01*
X137120286Y-104658342D02*
X137167905Y-104753580D01*
X137167905Y-104753580D02*
X137215524Y-104801200D01*
X137215524Y-104801200D02*
X137310762Y-104848819D01*
X137310762Y-104848819D02*
X137501238Y-104848819D01*
X137501238Y-104848819D02*
X137596476Y-104801200D01*
X137596476Y-104801200D02*
X137644095Y-104753580D01*
X137644095Y-104753580D02*
X137691714Y-104658342D01*
X137691714Y-104658342D02*
X137691714Y-104467866D01*
X137691714Y-104467866D02*
X137644095Y-104372628D01*
X137644095Y-104372628D02*
X137596476Y-104325009D01*
X137596476Y-104325009D02*
X137501238Y-104277390D01*
X146155580Y-99734666D02*
X146203200Y-99782285D01*
X146203200Y-99782285D02*
X146250819Y-99925142D01*
X146250819Y-99925142D02*
X146250819Y-100020380D01*
X146250819Y-100020380D02*
X146203200Y-100163237D01*
X146203200Y-100163237D02*
X146107961Y-100258475D01*
X146107961Y-100258475D02*
X146012723Y-100306094D01*
X146012723Y-100306094D02*
X145822247Y-100353713D01*
X145822247Y-100353713D02*
X145679390Y-100353713D01*
X145679390Y-100353713D02*
X145488914Y-100306094D01*
X145488914Y-100306094D02*
X145393676Y-100258475D01*
X145393676Y-100258475D02*
X145298438Y-100163237D01*
X145298438Y-100163237D02*
X145250819Y-100020380D01*
X145250819Y-100020380D02*
X145250819Y-99925142D01*
X145250819Y-99925142D02*
X145298438Y-99782285D01*
X145298438Y-99782285D02*
X145346057Y-99734666D01*
X145346057Y-99353713D02*
X145298438Y-99306094D01*
X145298438Y-99306094D02*
X145250819Y-99210856D01*
X145250819Y-99210856D02*
X145250819Y-98972761D01*
X145250819Y-98972761D02*
X145298438Y-98877523D01*
X145298438Y-98877523D02*
X145346057Y-98829904D01*
X145346057Y-98829904D02*
X145441295Y-98782285D01*
X145441295Y-98782285D02*
X145536533Y-98782285D01*
X145536533Y-98782285D02*
X145679390Y-98829904D01*
X145679390Y-98829904D02*
X146250819Y-99401332D01*
X146250819Y-99401332D02*
X146250819Y-98782285D01*
D12*
%TO.C,V1*%
X70461416Y-105282979D02*
X146153568Y-105282979D01*
X70461416Y-126365021D02*
X70461416Y-105282979D01*
X75160426Y-112267993D02*
X75160426Y-119888008D01*
X75160426Y-119888008D02*
X76811429Y-112394993D01*
X76811429Y-112394993D02*
X76811429Y-119126007D01*
X76811429Y-119126007D02*
X78589433Y-113029994D01*
X78589433Y-113029994D02*
X78589433Y-118364005D01*
X78589433Y-118364005D02*
X80367436Y-113791996D01*
X80367436Y-113791996D02*
X80367436Y-117602004D01*
X80367436Y-117602004D02*
X82272440Y-114426997D01*
X82272440Y-114426997D02*
X82272440Y-116713002D01*
X146153568Y-105282979D02*
X146153568Y-126365021D01*
X146153568Y-126365021D02*
X70461416Y-126365021D01*
D13*
X70587401Y-126324127D02*
G75*
G03*
X70587401Y-126324127I-29973J0D01*
G01*
D14*
%TO.C,R14*%
X65174724Y-106302500D02*
X64665276Y-106302500D01*
X65174724Y-105257500D02*
X64665276Y-105257500D01*
%TO.C,Q12*%
X70040000Y-112240000D02*
X70040000Y-110565000D01*
X70040000Y-112240000D02*
X70040000Y-112890000D01*
X66920000Y-112240000D02*
X66920000Y-111590000D01*
X66920000Y-112240000D02*
X66920000Y-112890000D01*
D12*
%TO.C,J2*%
X74788000Y-94504000D02*
X74788000Y-96504000D01*
X74788000Y-96504000D02*
X82788000Y-96504000D01*
X76818988Y-94487998D02*
X76818988Y-96393002D01*
X82788000Y-94504000D02*
X74788000Y-94504000D01*
X82788000Y-96504000D02*
X82788000Y-94504000D01*
D13*
X74817972Y-96504000D02*
G75*
G03*
X74817972Y-96504000I-29972J0D01*
G01*
D14*
%TO.C,R4*%
X68057500Y-100584724D02*
X68057500Y-100075276D01*
X69102500Y-100584724D02*
X69102500Y-100075276D01*
%TO.C,U4*%
X125140000Y-99096000D02*
X126940000Y-99096000D01*
X125140000Y-99096000D02*
X124340000Y-99096000D01*
X125140000Y-95976000D02*
X125940000Y-95976000D01*
X125140000Y-95976000D02*
X124340000Y-95976000D01*
%TO.C,R25*%
X89901500Y-84328724D02*
X89901500Y-83819276D01*
X90946500Y-84328724D02*
X90946500Y-83819276D01*
%TO.C,C12*%
X66675000Y-81371252D02*
X66675000Y-80848748D01*
X68145000Y-81371252D02*
X68145000Y-80848748D01*
%TO.C,C11*%
X67374165Y-83150000D02*
X67605835Y-83150000D01*
X67374165Y-83870000D02*
X67605835Y-83870000D01*
%TO.C,R23*%
X122854724Y-100732500D02*
X122345276Y-100732500D01*
X122854724Y-99687500D02*
X122345276Y-99687500D01*
%TO.C,C7*%
X133041252Y-96775000D02*
X132518748Y-96775000D01*
X133041252Y-95305000D02*
X132518748Y-95305000D01*
%TO.C,Q3*%
X90896000Y-97457500D02*
X90896000Y-99132500D01*
X90896000Y-97457500D02*
X90896000Y-96807500D01*
X94016000Y-97457500D02*
X94016000Y-98107500D01*
X94016000Y-97457500D02*
X94016000Y-96807500D01*
D12*
%TO.C,Q2*%
X82017600Y-100917500D02*
X82017600Y-104018846D01*
X82017600Y-104018846D02*
X82263980Y-104018846D01*
X82263980Y-100917500D02*
X82017600Y-100917500D01*
X85075486Y-104018160D02*
X85269771Y-104018160D01*
X85269771Y-100918110D02*
X85075486Y-100918110D01*
X85269771Y-104018160D02*
X85269771Y-100918110D01*
X82145362Y-104500177D02*
G75*
G03*
X82145362Y-104500177I-127000J0D01*
G01*
D13*
X82124788Y-104118160D02*
G75*
G03*
X82124788Y-104118160I-29972J0D01*
G01*
D14*
%TO.C,U9*%
X69200000Y-116600000D02*
X68850000Y-116600000D01*
X67380000Y-114780000D02*
X67730000Y-114780000D01*
X69200000Y-114780000D02*
X68850000Y-114780000D01*
%TO.C,C19*%
X66630000Y-115744165D02*
X66630000Y-115975835D01*
X65910000Y-115744165D02*
X65910000Y-115975835D01*
%TO.C,D6*%
X60171000Y-104131000D02*
X58701000Y-104131000D01*
X58701000Y-104131000D02*
X58701000Y-106591000D01*
X60171000Y-106591000D02*
X60171000Y-104131000D01*
%TO.C,U7*%
X89176000Y-93243200D02*
X85576000Y-93243200D01*
X87376000Y-97693200D02*
G75*
G03*
X89214478Y-93254722I0J2600000D01*
G01*
X85537522Y-93254722D02*
G75*
G03*
X87376000Y-97693200I1838478J-1838478D01*
G01*
%TO.C,D7*%
X63260000Y-103090000D02*
X63260000Y-104790000D01*
X63260000Y-103090000D02*
X66520000Y-103090000D01*
X63260000Y-104790000D02*
X66520000Y-104790000D01*
%TO.C,R29*%
X140126724Y-87898500D02*
X139617276Y-87898500D01*
X140126724Y-86853500D02*
X139617276Y-86853500D01*
%TO.C,C1*%
X69194000Y-103262165D02*
X69194000Y-103493835D01*
X68474000Y-103262165D02*
X68474000Y-103493835D01*
D15*
%TO.C,U2*%
X87210300Y-104013205D02*
X87210300Y-102234795D01*
X90288684Y-104013205D02*
X90288684Y-102234795D01*
D16*
X87231331Y-104425499D02*
G75*
G03*
X87231331Y-104425499I-150114J0D01*
G01*
D13*
X87316472Y-104524000D02*
G75*
G03*
X87316472Y-104524000I-29998J0D01*
G01*
D14*
%TO.C,L2*%
X121350000Y-95386000D02*
X123850000Y-95386000D01*
X123850000Y-86986000D02*
X121350000Y-86986000D01*
%TO.C,Q9*%
X144988000Y-88900000D02*
X144988000Y-87225000D01*
X144988000Y-88900000D02*
X144988000Y-89550000D01*
X141868000Y-88900000D02*
X141868000Y-88250000D01*
X141868000Y-88900000D02*
X141868000Y-89550000D01*
%TO.C,R30*%
X140461276Y-83043500D02*
X140970724Y-83043500D01*
X140461276Y-84088500D02*
X140970724Y-84088500D01*
%TO.C,C9*%
X95277000Y-83827252D02*
X95277000Y-83304748D01*
X96747000Y-83827252D02*
X96747000Y-83304748D01*
%TO.C,C5*%
X111162748Y-101881000D02*
X111685252Y-101881000D01*
X111162748Y-103351000D02*
X111685252Y-103351000D01*
%TO.C,L1*%
X114960000Y-86986000D02*
X112460000Y-86986000D01*
X112460000Y-95386000D02*
X114960000Y-95386000D01*
%TO.C,R36*%
X106425276Y-78217500D02*
X106934724Y-78217500D01*
X106425276Y-79262500D02*
X106934724Y-79262500D01*
D12*
%TO.C,U1*%
X71455860Y-99607924D02*
X72923272Y-99607924D01*
X71455860Y-104607924D02*
X71455860Y-99607924D01*
X71455860Y-104607924D02*
X75355886Y-104607924D01*
X75355886Y-99607924D02*
X74015474Y-99607924D01*
X75355886Y-104607924D02*
X75355886Y-99607924D01*
D16*
X70967471Y-99415937D02*
G75*
G03*
X70967468Y-99418058I-150010J-848D01*
G01*
D12*
X72923272Y-99608558D02*
G75*
G03*
X74015474Y-99607924I546101J317D01*
G01*
D13*
X70435972Y-99657911D02*
G75*
G03*
X70435972Y-99657911I-29972J0D01*
G01*
D14*
%TO.C,U5*%
X69458000Y-72722000D02*
X69458000Y-79222000D01*
X69458000Y-72722000D02*
X87458000Y-72722000D01*
X69458000Y-92722000D02*
X69458000Y-92472000D01*
X87458000Y-72722000D02*
X87458000Y-79222000D01*
X87458000Y-78722000D02*
X69508000Y-78722000D01*
X87458000Y-92472000D02*
X87458000Y-92722000D01*
X87458000Y-92722000D02*
X69458000Y-92722000D01*
%TO.C,R24*%
X118789284Y-103617500D02*
X119298732Y-103617500D01*
X118789284Y-104662500D02*
X119298732Y-104662500D01*
D12*
%TO.C,Q1*%
X81511257Y-104420546D02*
X81511257Y-101319200D01*
X81511257Y-101319200D02*
X81264877Y-101319200D01*
X81264877Y-104420546D02*
X81511257Y-104420546D01*
X78453371Y-101319886D02*
X78259086Y-101319886D01*
X78259086Y-104419936D02*
X78453371Y-104419936D01*
X78259086Y-101319886D02*
X78259086Y-104419936D01*
X81637495Y-100837869D02*
G75*
G03*
X81637495Y-100837869I-127000J0D01*
G01*
D13*
X81464013Y-101219886D02*
G75*
G03*
X81464013Y-101219886I-29972J0D01*
G01*
D15*
%TO.C,U8*%
X108929800Y-75948588D02*
X114082200Y-75948588D01*
X108929800Y-78991412D02*
X108929800Y-75948588D01*
X114082200Y-75948588D02*
X114082200Y-78991412D01*
X114082200Y-78991412D02*
X108929800Y-78991412D01*
D16*
X108983775Y-80152499D02*
G75*
G03*
X108983775Y-80152499I-150114J0D01*
G01*
D13*
X109085883Y-80470000D02*
G75*
G03*
X109085883Y-80470000I-29972J0D01*
G01*
D16*
X109751110Y-78239114D02*
G75*
G03*
X109751110Y-78239114I-150114J0D01*
G01*
D12*
%TO.C,SW3*%
X68290140Y-94905448D02*
X68290140Y-96102552D01*
X68083815Y-97754140D02*
X63996439Y-97754140D01*
X63996718Y-93254114D02*
X68083536Y-93254114D01*
X63640127Y-96034251D02*
X63640127Y-94973749D01*
D13*
X68722754Y-97754013D02*
G75*
G03*
X68722754Y-97754013I-29998J0D01*
G01*
D12*
X67500884Y-97004000D02*
G75*
G03*
X67500884Y-97004000I-360681J0D01*
G01*
X67500884Y-94004000D02*
G75*
G03*
X67500884Y-94004000I-360681J0D01*
G01*
X66962149Y-95504127D02*
G75*
G03*
X66962149Y-95504127I-922022J0D01*
G01*
X65300732Y-97004000D02*
G75*
G03*
X65300732Y-97004000I-360681J0D01*
G01*
X65300732Y-94004000D02*
G75*
G03*
X65300732Y-94004000I-360681J0D01*
G01*
D14*
%TO.C,C8*%
X100021000Y-83446252D02*
X100021000Y-82923748D01*
X101491000Y-83446252D02*
X101491000Y-82923748D01*
%TO.C,C15*%
X140977252Y-86079000D02*
X140454748Y-86079000D01*
X140977252Y-84609000D02*
X140454748Y-84609000D01*
%TO.C,Q6*%
X136984500Y-99924000D02*
X138659500Y-99924000D01*
X136984500Y-99924000D02*
X136334500Y-99924000D01*
X136984500Y-96804000D02*
X137634500Y-96804000D01*
X136984500Y-96804000D02*
X136334500Y-96804000D01*
%TO.C,C17*%
X114956000Y-77585835D02*
X114956000Y-77354165D01*
X115676000Y-77585835D02*
X115676000Y-77354165D01*
%TO.C,R21*%
X140564776Y-97521500D02*
X141074224Y-97521500D01*
X140564776Y-98566500D02*
X141074224Y-98566500D01*
%TO.C,C14*%
X97763000Y-102354748D02*
X97763000Y-102877252D01*
X96293000Y-102354748D02*
X96293000Y-102877252D01*
D12*
%TO.C,MK1*%
X117983048Y-75962002D02*
X118745050Y-75962002D01*
X122380000Y-75946000D02*
G75*
G03*
X122380000Y-75946000I-3000000J0D01*
G01*
D13*
X122409997Y-72945924D02*
G75*
G03*
X122409997Y-72945924I-29997J0D01*
G01*
D14*
%TO.C,D5*%
X63252500Y-108170000D02*
X63252500Y-109870000D01*
X63252500Y-108170000D02*
X66512500Y-108170000D01*
X63252500Y-109870000D02*
X66512500Y-109870000D01*
%TO.C,Q10*%
X141868000Y-92964000D02*
X141868000Y-94639000D01*
X141868000Y-92964000D02*
X141868000Y-92314000D01*
X144988000Y-92964000D02*
X144988000Y-93614000D01*
X144988000Y-92964000D02*
X144988000Y-92314000D01*
%TO.C,R1*%
X61624724Y-116072500D02*
X61115276Y-116072500D01*
X61624724Y-115027500D02*
X61115276Y-115027500D01*
%TO.C,R26*%
X66562500Y-85851276D02*
X66562500Y-86360724D01*
X65517500Y-85851276D02*
X65517500Y-86360724D01*
%TO.C,R32*%
X68275276Y-118237500D02*
X68784724Y-118237500D01*
X68275276Y-119282500D02*
X68784724Y-119282500D01*
%TO.C,C6*%
X122573000Y-97274748D02*
X122573000Y-97797252D01*
X121103000Y-97274748D02*
X121103000Y-97797252D01*
%TO.C,R34*%
X121172500Y-81025276D02*
X121172500Y-81534724D01*
X120127500Y-81025276D02*
X120127500Y-81534724D01*
%TO.C,C13*%
X108857000Y-102608748D02*
X108857000Y-103131252D01*
X107387000Y-102608748D02*
X107387000Y-103131252D01*
%TO.C,R35*%
X113537276Y-81773500D02*
X114046724Y-81773500D01*
X113537276Y-82818500D02*
X114046724Y-82818500D01*
%TO.C,Q13*%
X66950000Y-123090000D02*
X66950000Y-124765000D01*
X66950000Y-123090000D02*
X66950000Y-122440000D01*
X70070000Y-123090000D02*
X70070000Y-123740000D01*
X70070000Y-123090000D02*
X70070000Y-122440000D01*
%TO.C,R11*%
X96677500Y-99314724D02*
X96677500Y-98805276D01*
X97722500Y-99314724D02*
X97722500Y-98805276D01*
%TO.C,R17*%
X99568724Y-86882500D02*
X99059276Y-86882500D01*
X99568724Y-85837500D02*
X99059276Y-85837500D01*
%TO.C,R2*%
X68255276Y-119867500D02*
X68764724Y-119867500D01*
X68255276Y-120912500D02*
X68764724Y-120912500D01*
%TO.C,R6*%
X87376724Y-100852500D02*
X86867276Y-100852500D01*
X87376724Y-99807500D02*
X86867276Y-99807500D01*
%TO.C,D4*%
X58701000Y-110753000D02*
X60171000Y-110753000D01*
X60171000Y-110753000D02*
X60171000Y-108293000D01*
X58701000Y-108293000D02*
X58701000Y-110753000D01*
%TO.C,R13*%
X64655276Y-110247500D02*
X65164724Y-110247500D01*
X64655276Y-111292500D02*
X65164724Y-111292500D01*
%TO.C,C18*%
X140434165Y-99030000D02*
X140665835Y-99030000D01*
X140434165Y-99750000D02*
X140665835Y-99750000D01*
%TO.C,R19*%
X96396000Y-81094000D02*
X93596000Y-81094000D01*
X96396000Y-76894000D02*
X93596000Y-76894000D01*
X96382036Y-81103241D02*
G75*
G03*
X96396000Y-76894001I-1386036J2109241D01*
G01*
X93609964Y-76884759D02*
G75*
G03*
X93596000Y-81093999I1386036J-2109241D01*
G01*
%TO.C,U6*%
X106634000Y-104502000D02*
X100624000Y-104502000D01*
X104384000Y-97682000D02*
X100624000Y-97682000D01*
X100624000Y-104502000D02*
X100624000Y-103242000D01*
X100624000Y-97682000D02*
X100624000Y-98942000D01*
D15*
%TO.C,Q8*%
X115451808Y-97792588D02*
X120604208Y-97792588D01*
X115451808Y-100835412D02*
X115451808Y-97792588D01*
X120604208Y-97792588D02*
X120604208Y-100835412D01*
X120604208Y-100835412D02*
X115451808Y-100835412D01*
D16*
X115505783Y-101996499D02*
G75*
G03*
X115505783Y-101996499I-150114J0D01*
G01*
D13*
X115607891Y-102314000D02*
G75*
G03*
X115607891Y-102314000I-29972J0D01*
G01*
D16*
X116273118Y-100083114D02*
G75*
G03*
X116273118Y-100083114I-150114J0D01*
G01*
D14*
%TO.C,R3*%
X64635276Y-113487500D02*
X65144724Y-113487500D01*
X64635276Y-114532500D02*
X65144724Y-114532500D01*
%TO.C,R22*%
X140554776Y-95997500D02*
X141064224Y-95997500D01*
X140554776Y-97042500D02*
X141064224Y-97042500D01*
%TO.C,C4*%
X114953000Y-97274748D02*
X114953000Y-97797252D01*
X113483000Y-97274748D02*
X113483000Y-97797252D01*
%TO.C,R16*%
X64625276Y-111917500D02*
X65134724Y-111917500D01*
X64625276Y-112962500D02*
X65134724Y-112962500D01*
%TO.C,U3*%
X111170000Y-95976000D02*
X109370000Y-95976000D01*
X111170000Y-95976000D02*
X111970000Y-95976000D01*
X111170000Y-99096000D02*
X110370000Y-99096000D01*
X111170000Y-99096000D02*
X111970000Y-99096000D01*
%TO.C,R37*%
X106425276Y-76439500D02*
X106934724Y-76439500D01*
X106425276Y-77484500D02*
X106934724Y-77484500D01*
%TO.C,Q4*%
X93000000Y-87962500D02*
X93000000Y-86287500D01*
X93000000Y-87962500D02*
X93000000Y-88612500D01*
X89880000Y-87962500D02*
X89880000Y-87312500D01*
X89880000Y-87962500D02*
X89880000Y-88612500D01*
%TO.C,R12*%
X65194724Y-107822500D02*
X64685276Y-107822500D01*
X65194724Y-106777500D02*
X64685276Y-106777500D01*
%TO.C,R5*%
X86731992Y-102615276D02*
X86731992Y-103124724D01*
X85686992Y-102615276D02*
X85686992Y-103124724D01*
%TO.C,Q7*%
X124190000Y-103130000D02*
X124190000Y-101455000D01*
X124190000Y-103130000D02*
X124190000Y-103780000D01*
X121070000Y-103130000D02*
X121070000Y-102480000D01*
X121070000Y-103130000D02*
X121070000Y-103780000D01*
%TO.C,R18*%
X91694724Y-91454500D02*
X91185276Y-91454500D01*
X91694724Y-90409500D02*
X91185276Y-90409500D01*
%TO.C,R28*%
X142905500Y-97028724D02*
X142905500Y-96519276D01*
X143950500Y-97028724D02*
X143950500Y-96519276D01*
%TO.C,R10*%
X129443500Y-97282724D02*
X129443500Y-96773276D01*
X130488500Y-97282724D02*
X130488500Y-96773276D01*
%TO.C,R27*%
X92964724Y-100852500D02*
X92455276Y-100852500D01*
X92964724Y-99807500D02*
X92455276Y-99807500D01*
%TO.C,R38*%
X110235276Y-81773500D02*
X110744724Y-81773500D01*
X110235276Y-82818500D02*
X110744724Y-82818500D01*
%TO.C,R15*%
X65467500Y-90484724D02*
X65467500Y-89975276D01*
X66512500Y-90484724D02*
X66512500Y-89975276D01*
%TO.C,C10*%
X132558748Y-97405000D02*
X133081252Y-97405000D01*
X132558748Y-98875000D02*
X133081252Y-98875000D01*
D12*
%TO.C,J1*%
X61489333Y-116943013D02*
X63352249Y-116943013D01*
X57770944Y-116943013D02*
X59252249Y-116943013D01*
X61488978Y-125883019D02*
X63352605Y-125883019D01*
X57770944Y-125883019D02*
X57770944Y-116943013D01*
X57770944Y-125883019D02*
X59252605Y-125883019D01*
D13*
X65651158Y-116936968D02*
G75*
G03*
X65651158Y-116936968I-29998J0D01*
G01*
D14*
%TO.C,D1*%
X108578000Y-83260000D02*
X108578000Y-94570000D01*
X102078000Y-83260000D02*
X108578000Y-83260000D01*
X102078000Y-83260000D02*
X102078000Y-94570000D01*
%TO.C,Q11*%
X64262000Y-101636000D02*
X65937000Y-101636000D01*
X64262000Y-101636000D02*
X63612000Y-101636000D01*
X64262000Y-98516000D02*
X64912000Y-98516000D01*
X64262000Y-98516000D02*
X63612000Y-98516000D01*
D12*
%TO.C,SW1*%
X144030000Y-100330000D02*
X139997996Y-100330000D01*
X139997996Y-100330000D02*
X139997996Y-104362004D01*
X142030000Y-100424996D02*
X142030000Y-102330000D01*
X142030000Y-102330000D02*
X140124996Y-102330000D01*
X144030000Y-104362004D02*
X144030000Y-100330000D01*
X139997996Y-104362004D02*
X144030000Y-104362004D01*
D13*
X140059997Y-100330000D02*
G75*
G03*
X140059997Y-100330000I-29997J0D01*
G01*
D14*
%TO.C,D3*%
X97672000Y-97001000D02*
X97672000Y-95531000D01*
X97672000Y-95531000D02*
X95212000Y-95531000D01*
X95212000Y-97001000D02*
X97672000Y-97001000D01*
%TO.C,R31*%
X68325276Y-125317500D02*
X68834724Y-125317500D01*
X68325276Y-126362500D02*
X68834724Y-126362500D01*
%TO.C,R20*%
X93232500Y-83565276D02*
X93232500Y-84074724D01*
X92187500Y-83565276D02*
X92187500Y-84074724D01*
%TO.C,D2*%
X141194000Y-94944000D02*
X129884000Y-94944000D01*
X141194000Y-88444000D02*
X141194000Y-94944000D01*
X141194000Y-88444000D02*
X129884000Y-88444000D01*
%TO.C,R7*%
X110915276Y-100061500D02*
X111424724Y-100061500D01*
X110915276Y-101106500D02*
X111424724Y-101106500D01*
%TO.C,R9*%
X128710500Y-96773276D02*
X128710500Y-97282724D01*
X127665500Y-96773276D02*
X127665500Y-97282724D01*
%TO.C,C16*%
X117863252Y-82777000D02*
X117340748Y-82777000D01*
X117863252Y-81307000D02*
X117340748Y-81307000D01*
%TO.C,R8*%
X108898500Y-98805276D02*
X108898500Y-99314724D01*
X107853500Y-98805276D02*
X107853500Y-99314724D01*
%TO.C,C3*%
X89800165Y-100224000D02*
X90031835Y-100224000D01*
X89800165Y-100944000D02*
X90031835Y-100944000D01*
D12*
%TO.C,SW2*%
X124631990Y-103378004D02*
X134665010Y-103378004D01*
X134665010Y-103378004D02*
X134665010Y-99440996D01*
X124631990Y-99440996D02*
X124631990Y-103378004D01*
X134665010Y-99440996D02*
X124631990Y-99440996D01*
D13*
X134691934Y-99365812D02*
G75*
G03*
X134691934Y-99365812I-29972J0D01*
G01*
D14*
%TO.C,Q5*%
X93690000Y-87884000D02*
X93690000Y-89559000D01*
X93690000Y-87884000D02*
X93690000Y-87234000D01*
X96810000Y-87884000D02*
X96810000Y-88534000D01*
X96810000Y-87884000D02*
X96810000Y-87234000D01*
%TO.C,D8*%
X136984500Y-103668000D02*
X138659500Y-103668000D01*
X136984500Y-103668000D02*
X136334500Y-103668000D01*
X136984500Y-100548000D02*
X137634500Y-100548000D01*
X136984500Y-100548000D02*
X136334500Y-100548000D01*
%TO.C,C2*%
X144166000Y-99683835D02*
X144166000Y-99452165D01*
X144886000Y-99683835D02*
X144886000Y-99452165D01*
%TO.C,R33*%
X66533500Y-100076724D02*
X66533500Y-99567276D01*
X67578500Y-100076724D02*
X67578500Y-99567276D01*
D17*
%TO.C,J3*%
X100584003Y-87375992D02*
X98043997Y-87375992D01*
X98043997Y-87375992D02*
X98043997Y-94996008D01*
X100584003Y-89280996D02*
X100584003Y-87375992D01*
D18*
X100584003Y-94996008D02*
X100584003Y-89280996D01*
D17*
X98043997Y-94996008D02*
X100584003Y-94996008D01*
D13*
X98094011Y-87375992D02*
G75*
G03*
X98094011Y-87375992I-29998J0D01*
G01*
%TD*%
%LPC*%
D19*
%TO.C,V1*%
X73307492Y-115824000D03*
X143307492Y-115824000D03*
%TD*%
D20*
%TO.C,R14*%
X65832500Y-105780000D03*
X64007500Y-105780000D03*
%TD*%
D21*
%TO.C,Q12*%
X69430000Y-111302500D03*
X67530000Y-111302500D03*
X68480000Y-113177500D03*
%TD*%
D22*
%TO.C,J2*%
X75788000Y-95504000D03*
D23*
X77788000Y-95504000D03*
X79788000Y-95504000D03*
X81788000Y-95504000D03*
%TD*%
D24*
%TO.C,R4*%
X68580000Y-101242500D03*
X68580000Y-99417500D03*
%TD*%
D25*
%TO.C,U4*%
X126277500Y-98486000D03*
X126277500Y-97536000D03*
X126277500Y-96586000D03*
X124002500Y-96586000D03*
X124002500Y-97536000D03*
X124002500Y-98486000D03*
%TD*%
D24*
%TO.C,R25*%
X90424000Y-84986500D03*
X90424000Y-83161500D03*
%TD*%
D26*
%TO.C,C12*%
X67410000Y-82147500D03*
X67410000Y-80072500D03*
%TD*%
D27*
%TO.C,C11*%
X66922500Y-83510000D03*
X68057500Y-83510000D03*
%TD*%
D20*
%TO.C,R23*%
X123512500Y-100210000D03*
X121687500Y-100210000D03*
%TD*%
D28*
%TO.C,C7*%
X133817500Y-96040000D03*
X131742500Y-96040000D03*
%TD*%
D29*
%TO.C,Q3*%
X91506000Y-98395000D03*
X93406000Y-98395000D03*
X92456000Y-96520000D03*
%TD*%
D30*
%TO.C,Q2*%
X82694511Y-104018084D03*
X83344498Y-104018084D03*
X83994486Y-104018084D03*
X84644473Y-104018084D03*
D31*
X84644473Y-100918008D03*
X83994486Y-100918008D03*
X83344498Y-100918008D03*
X82694511Y-100918008D03*
D32*
X83669365Y-102108000D03*
%TD*%
D33*
%TO.C,U9*%
X68090000Y-116415000D03*
X68490000Y-116415000D03*
D34*
X69115000Y-116290000D03*
X69115000Y-115890000D03*
X69115000Y-115490000D03*
X69115000Y-115090000D03*
D33*
X68490000Y-114965000D03*
X68090000Y-114965000D03*
D34*
X67465000Y-115090000D03*
X67465000Y-115490000D03*
X67465000Y-115890000D03*
X67465000Y-116290000D03*
%TD*%
D35*
%TO.C,C19*%
X66270000Y-115292500D03*
X66270000Y-116427500D03*
%TD*%
D36*
%TO.C,D6*%
X59436000Y-104916000D03*
X59436000Y-106666000D03*
%TD*%
D37*
%TO.C,U7*%
X88646000Y-95093200D03*
D38*
X87376000Y-95093200D03*
X86106000Y-95093200D03*
%TD*%
D39*
%TO.C,D7*%
X64020000Y-103940000D03*
X66520000Y-103940000D03*
%TD*%
D20*
%TO.C,R29*%
X140784500Y-87376000D03*
X138959500Y-87376000D03*
%TD*%
D40*
%TO.C,H5*%
X93218000Y-103124000D03*
%TD*%
D35*
%TO.C,C1*%
X68834000Y-102810500D03*
X68834000Y-103945500D03*
%TD*%
D41*
%TO.C,U2*%
X87799530Y-104273098D03*
X88749492Y-104273098D03*
X89699454Y-104273098D03*
X89699454Y-101974902D03*
X88749492Y-101974902D03*
X87799530Y-101974902D03*
%TD*%
D42*
%TO.C,L2*%
X119800000Y-91186000D03*
X125400000Y-91186000D03*
%TD*%
D21*
%TO.C,Q9*%
X144378000Y-87962500D03*
X142478000Y-87962500D03*
X143428000Y-89837500D03*
%TD*%
D43*
%TO.C,R30*%
X139803500Y-83566000D03*
X141628500Y-83566000D03*
%TD*%
D44*
%TO.C,H3*%
X143510000Y-75565000D03*
%TD*%
D26*
%TO.C,C9*%
X96012000Y-84603500D03*
X96012000Y-82528500D03*
%TD*%
D45*
%TO.C,C5*%
X110386500Y-102616000D03*
X112461500Y-102616000D03*
%TD*%
D44*
%TO.C,H4*%
X143510000Y-129540000D03*
%TD*%
D42*
%TO.C,L1*%
X116510000Y-91186000D03*
X110910000Y-91186000D03*
%TD*%
D43*
%TO.C,R36*%
X105767500Y-78740000D03*
X107592500Y-78740000D03*
%TD*%
D46*
%TO.C,U1*%
X70406000Y-100202996D03*
X70406000Y-101472999D03*
X70406000Y-102743001D03*
X70406000Y-104013004D03*
X76406000Y-104013004D03*
X76406000Y-102743001D03*
X76406000Y-101472999D03*
X76406000Y-100202996D03*
D47*
X73406000Y-102108000D03*
%TD*%
D48*
%TO.C,U5*%
X69708000Y-79822000D03*
X69708000Y-81322000D03*
X69708000Y-82822000D03*
X69708000Y-84322000D03*
X69708000Y-85822000D03*
X69708000Y-87322000D03*
X69708000Y-88822000D03*
X69708000Y-90322000D03*
X69708000Y-91822000D03*
X87208000Y-91822000D03*
X87208000Y-90322000D03*
X87208000Y-88822000D03*
X87208000Y-87322000D03*
X87208000Y-85822000D03*
X87208000Y-84322000D03*
X87208000Y-82822000D03*
X87208000Y-81322000D03*
X87208000Y-79822000D03*
D49*
X78318000Y-84922000D03*
X78318000Y-86022000D03*
X78318000Y-87122000D03*
X79368000Y-84922000D03*
X79368000Y-86022000D03*
X79368000Y-87122000D03*
X80518000Y-84922000D03*
X80518000Y-86022000D03*
X80518000Y-87122000D03*
%TD*%
D43*
%TO.C,R24*%
X118131508Y-104140000D03*
X119956508Y-104140000D03*
%TD*%
D30*
%TO.C,Q1*%
X80834346Y-101319962D03*
X80184359Y-101319962D03*
X79534371Y-101319962D03*
X78884384Y-101319962D03*
D31*
X78884384Y-104420038D03*
X79534371Y-104420038D03*
X80184359Y-104420038D03*
X80834346Y-104420038D03*
D32*
X79859492Y-103230046D03*
%TD*%
D50*
%TO.C,U8*%
X109600996Y-80152499D03*
X110870999Y-80152499D03*
X112141001Y-80152499D03*
X113411004Y-80152499D03*
X113411004Y-74787501D03*
X112141001Y-74787501D03*
X110870999Y-74787501D03*
X109600996Y-74787501D03*
%TD*%
D19*
%TO.C,SW3*%
X68540000Y-97004000D03*
X63540000Y-97004000D03*
X68540000Y-94004000D03*
X63540000Y-94004000D03*
%TD*%
D26*
%TO.C,C8*%
X100756000Y-84222500D03*
X100756000Y-82147500D03*
%TD*%
D28*
%TO.C,C15*%
X141753500Y-85344000D03*
X139678500Y-85344000D03*
%TD*%
D51*
%TO.C,Q6*%
X137922000Y-99314000D03*
X137922000Y-97414000D03*
X136047000Y-98364000D03*
%TD*%
D52*
%TO.C,C17*%
X115316000Y-78037500D03*
X115316000Y-76902500D03*
%TD*%
D43*
%TO.C,R21*%
X139907000Y-98044000D03*
X141732000Y-98044000D03*
%TD*%
D53*
%TO.C,C14*%
X97028000Y-101578500D03*
X97028000Y-103653500D03*
%TD*%
D54*
%TO.C,MK1*%
X120329962Y-74946000D03*
X118430038Y-74946000D03*
%TD*%
D39*
%TO.C,D5*%
X64012500Y-109020000D03*
X66512500Y-109020000D03*
%TD*%
D29*
%TO.C,Q10*%
X142478000Y-93901500D03*
X144378000Y-93901500D03*
X143428000Y-92026500D03*
%TD*%
D20*
%TO.C,R1*%
X62282500Y-115550000D03*
X60457500Y-115550000D03*
%TD*%
D55*
%TO.C,R26*%
X66040000Y-85193500D03*
X66040000Y-87018500D03*
%TD*%
D43*
%TO.C,R32*%
X67617500Y-118760000D03*
X69442500Y-118760000D03*
%TD*%
D53*
%TO.C,C6*%
X121838000Y-96498500D03*
X121838000Y-98573500D03*
%TD*%
D55*
%TO.C,R34*%
X120650000Y-80367500D03*
X120650000Y-82192500D03*
%TD*%
D53*
%TO.C,C13*%
X108122000Y-101832500D03*
X108122000Y-103907500D03*
%TD*%
D43*
%TO.C,R35*%
X112879500Y-82296000D03*
X114704500Y-82296000D03*
%TD*%
D29*
%TO.C,Q13*%
X67560000Y-124027500D03*
X69460000Y-124027500D03*
X68510000Y-122152500D03*
%TD*%
D24*
%TO.C,R11*%
X97200000Y-99972500D03*
X97200000Y-98147500D03*
%TD*%
D20*
%TO.C,R17*%
X100226500Y-86360000D03*
X98401500Y-86360000D03*
%TD*%
D43*
%TO.C,R2*%
X67597500Y-120390000D03*
X69422500Y-120390000D03*
%TD*%
D20*
%TO.C,R6*%
X88034500Y-100330000D03*
X86209500Y-100330000D03*
%TD*%
D56*
%TO.C,D4*%
X59436000Y-109968000D03*
X59436000Y-108218000D03*
%TD*%
D43*
%TO.C,R13*%
X63997500Y-110770000D03*
X65822500Y-110770000D03*
%TD*%
D27*
%TO.C,C18*%
X139982500Y-99390000D03*
X141117500Y-99390000D03*
%TD*%
D19*
%TO.C,R19*%
X96496000Y-78994000D03*
X93496000Y-78994000D03*
%TD*%
D57*
%TO.C,U6*%
X105684000Y-103392000D03*
X105684000Y-101092000D03*
D58*
X99384000Y-101092000D03*
D57*
X105684000Y-98792000D03*
%TD*%
D50*
%TO.C,Q8*%
X116123004Y-101996499D03*
X117393007Y-101996499D03*
X118663009Y-101996499D03*
X119933012Y-101996499D03*
X119933012Y-96631501D03*
X118663009Y-96631501D03*
X117393007Y-96631501D03*
X116123004Y-96631501D03*
%TD*%
D43*
%TO.C,R3*%
X63977500Y-114010000D03*
X65802500Y-114010000D03*
%TD*%
%TO.C,R22*%
X139897000Y-96520000D03*
X141722000Y-96520000D03*
%TD*%
D53*
%TO.C,C4*%
X114218000Y-96498500D03*
X114218000Y-98573500D03*
%TD*%
D43*
%TO.C,R16*%
X63967500Y-112440000D03*
X65792500Y-112440000D03*
%TD*%
D59*
%TO.C,U3*%
X110032500Y-96586000D03*
X110032500Y-97536000D03*
X110032500Y-98486000D03*
X112307500Y-98486000D03*
X112307500Y-97536000D03*
X112307500Y-96586000D03*
%TD*%
D43*
%TO.C,R37*%
X105767500Y-76962000D03*
X107592500Y-76962000D03*
%TD*%
D21*
%TO.C,Q4*%
X92390000Y-87025000D03*
X90490000Y-87025000D03*
X91440000Y-88900000D03*
%TD*%
D20*
%TO.C,R12*%
X65852500Y-107300000D03*
X64027500Y-107300000D03*
%TD*%
D55*
%TO.C,R5*%
X86209492Y-101957500D03*
X86209492Y-103782500D03*
%TD*%
D21*
%TO.C,Q7*%
X123580000Y-102192500D03*
X121680000Y-102192500D03*
X122630000Y-104067500D03*
%TD*%
D20*
%TO.C,R18*%
X92352500Y-90932000D03*
X90527500Y-90932000D03*
%TD*%
D24*
%TO.C,R28*%
X143428000Y-97686500D03*
X143428000Y-95861500D03*
%TD*%
%TO.C,R10*%
X129966000Y-97940500D03*
X129966000Y-96115500D03*
%TD*%
D20*
%TO.C,R27*%
X93622500Y-100330000D03*
X91797500Y-100330000D03*
%TD*%
D43*
%TO.C,R38*%
X109577500Y-82296000D03*
X111402500Y-82296000D03*
%TD*%
D24*
%TO.C,R15*%
X65990000Y-91142500D03*
X65990000Y-89317500D03*
%TD*%
D45*
%TO.C,C10*%
X131782500Y-98140000D03*
X133857500Y-98140000D03*
%TD*%
D60*
%TO.C,J1*%
X64070664Y-118512076D03*
X64070664Y-124311924D03*
D61*
X64570791Y-117086879D03*
X64570791Y-125737121D03*
D62*
X60390883Y-125737121D03*
X60390883Y-117086879D03*
D63*
X65339143Y-118061987D03*
X65339143Y-118862089D03*
X65339143Y-120162064D03*
X65339143Y-121162064D03*
X65339143Y-121661936D03*
X65339143Y-122661682D03*
X65339143Y-123962165D03*
X65339143Y-124762013D03*
X65339143Y-124462038D03*
X65339143Y-123661936D03*
X65339143Y-123162064D03*
X65339143Y-122162064D03*
X65339143Y-120661936D03*
X65339143Y-119661936D03*
X65339143Y-119162064D03*
X65339143Y-118361962D03*
%TD*%
D64*
%TO.C,D1*%
X105328000Y-85770000D03*
X105328000Y-94570000D03*
%TD*%
D44*
%TO.C,H1*%
X62230000Y-75565000D03*
%TD*%
D51*
%TO.C,Q11*%
X65199500Y-101026000D03*
X65199500Y-99126000D03*
X63324500Y-100076000D03*
%TD*%
D65*
%TO.C,SW1*%
X141030000Y-101330000D03*
D23*
X143030000Y-101330000D03*
X141030000Y-103330000D03*
X143030000Y-103330000D03*
%TD*%
D66*
%TO.C,D3*%
X96887000Y-96266000D03*
X95137000Y-96266000D03*
%TD*%
D43*
%TO.C,R31*%
X67667500Y-125840000D03*
X69492500Y-125840000D03*
%TD*%
D55*
%TO.C,R20*%
X92710000Y-82907500D03*
X92710000Y-84732500D03*
%TD*%
D67*
%TO.C,D2*%
X138684000Y-91694000D03*
X129884000Y-91694000D03*
%TD*%
D43*
%TO.C,R7*%
X110257500Y-100584000D03*
X112082500Y-100584000D03*
%TD*%
D55*
%TO.C,R9*%
X128188000Y-96115500D03*
X128188000Y-97940500D03*
%TD*%
D28*
%TO.C,C16*%
X118639500Y-82042000D03*
X116564500Y-82042000D03*
%TD*%
D55*
%TO.C,R8*%
X108376000Y-98147500D03*
X108376000Y-99972500D03*
%TD*%
D27*
%TO.C,C3*%
X89348500Y-100584000D03*
X90483500Y-100584000D03*
%TD*%
D68*
%TO.C,SW2*%
X133522008Y-101346000D03*
X125901992Y-101346000D03*
%TD*%
D29*
%TO.C,Q5*%
X94300000Y-88821500D03*
X96200000Y-88821500D03*
X95250000Y-86946500D03*
%TD*%
D44*
%TO.C,H2*%
X62230000Y-129540000D03*
%TD*%
D51*
%TO.C,D8*%
X137922000Y-103058000D03*
X137922000Y-101158000D03*
X136047000Y-102108000D03*
%TD*%
D52*
%TO.C,C2*%
X144526000Y-100135500D03*
X144526000Y-99000500D03*
%TD*%
D24*
%TO.C,R33*%
X67056000Y-100734500D03*
X67056000Y-98909500D03*
%TD*%
D69*
%TO.C,J3*%
X99314000Y-88645995D03*
D70*
X99314000Y-91186000D03*
X99314000Y-93726005D03*
%TD*%
%LPD*%
M02*
