M48
; DRILL file {KiCad 7.0.7} date Sun Oct  1 15:31:46 2023
; FORMAT={-:-/ absolute / inch / decimal}
; #@! TF.CreationDate,2023-10-01T15:31:46+02:00
; #@! TF.GenerationSoftware,Kicad,Pcbnew,7.0.7
; #@! TF.FileFunction,Plated,1,2,PTH
FMAT,2
INCH
; #@! TA.AperFunction,Plated,PTH,ViaDrill
T1C0.0118
; #@! TA.AperFunction,Plated,PTH,ComponentDrill
T2C0.0276
; #@! TA.AperFunction,Plated,PTH,ComponentDrill
T3C0.0295
; #@! TA.AperFunction,Plated,PTH,ComponentDrill
T4C0.0315
; #@! TA.AperFunction,Plated,PTH,ComponentDrill
T5C0.0354
; #@! TA.AperFunction,Plated,PTH,ViaDrill
T6C0.0394
; #@! TA.AperFunction,Plated,PTH,ComponentDrill
T7C0.0394
; #@! TA.AperFunction,Plated,PTH,ComponentDrill
T8C0.0402
; #@! TA.AperFunction,Plated,PTH,ComponentDrill
T9C0.0472
%
G90
G05
T1
X2.35Y-4.86
X2.36Y-4.7
X2.4Y-3.97
X2.41Y-3.61
X2.42Y-4.49
X2.43Y-4.39
X2.4327Y-4.0724
X2.44Y-3.45
X2.46Y-3.28
X2.47Y-4.06
X2.47Y-4.4
X2.49Y-3.16
X2.5173Y-4.7141
X2.5321Y-4.5233
X2.5471Y-4.5597
X2.62Y-2.9
X2.62Y-4.01
X2.6228Y-4.6268
X2.6268Y-4.7998
X2.635Y-4.5012
X2.6373Y-4.7214
X2.64Y-4.2269
X2.6413Y-5.0642
X2.6421Y-4.6067
X2.6439Y-4.1562
X2.6447Y-4.0492
X2.6457Y-3.5169
X2.6492Y-3.3634
X2.65Y-3.05
X2.6602Y-4.8264
X2.6703Y-4.498
X2.6742Y-4.0976
X2.6993Y-4.6454
X2.7012Y-4.3354
X2.7219Y-4.6152
X2.7504Y-4.6366
X2.7913Y-4.402
X2.81Y-3.9
X2.8146Y-3.548
X2.8189Y-4.7783
X2.83Y-4.14
X2.8598Y-4.4
X2.8838Y-3.8
X2.91Y-4.14
X2.9173Y-3.7209
X2.95Y-4.3
X2.9699Y-3.9201
X3.03Y-3.9803
X3.0307Y-4.0303
X3.0672Y-3.9368
X3.1122Y-4.8776
X3.15Y-4.16
X3.19Y-4.78
X3.24Y-3.33
X3.2433Y-4.5697
X3.2512Y-3.9397
X3.2714Y-3.5914
X3.2908Y-3.3015
X3.2948Y-3.6745
X3.3279Y-4.2058
X3.3386Y-3.472
X3.3547Y-3.3846
X3.3611Y-3.4314
X3.3612Y-4.1201
X3.3665Y-3.3362
X3.3698Y-3.99
X3.3744Y-3.8996
X3.38Y-3.56
X3.38Y-4.34
X3.38Y-4.83
X3.3975Y-4.1415
X3.4085Y-4.2712
X3.4185Y-3.9024
X3.4459Y-4.3671
X3.45Y-4.66
X3.4811Y-4.3961
X3.5Y-3.32
X3.502Y-3.4252
X3.5024Y-3.3638
X3.5181Y-3.8232
X3.52Y-2.94
X3.524Y-3.6437
X3.53Y-3.55
X3.5438Y-3.69
X3.5654Y-3.628
X3.57Y-3.49
X3.57Y-3.92
X3.58Y-4.38
X3.59Y-3.9958
X3.5998Y-3.3966
X3.6Y-3.4474
X3.6117Y-3.0817
X3.6615Y-3.3823
X3.67Y-3.61
X3.69Y-3.79
X3.72Y-3.8641
X3.72Y-4.85
X3.75Y-4.38
X3.77Y-2.87
X3.78Y-3.56
X3.83Y-4.65
X3.8683Y-3.039
X3.87Y-4.25
X3.9009Y-3.0644
X3.91Y-3.22
X3.93Y-3.1
X4.02Y-4.75
X4.03Y-2.9
X4.0823Y-3.0413
X4.11Y-3.26
X4.1123Y-3.1877
X4.12Y-4.38
X4.123Y-3.0927
X4.15Y-3.25
X4.2Y-3.21
X4.2Y-4.86
X4.28Y-2.97
X4.28Y-3.15
X4.31Y-4.22
X4.37Y-4.61
X4.41Y-2.86
X4.51Y-3.1
X4.55Y-2.93
X4.6Y-4.63
X4.67Y-4.9
X4.85Y-2.88
X4.89Y-3.04
X4.9Y-3.19
X4.9Y-4.1
X4.96Y-4.78
X5.01Y-4.26
X5.03Y-3.93
X5.13Y-3.19
X5.16Y-4.01
X5.18Y-3.01
X5.21Y-4.91
X5.22Y-4.23
X5.24Y-4.39
X5.2492Y-3.924
X5.3Y-4.09
X5.36Y-2.88
X5.36Y-3.3
X5.36Y-3.8015
X5.3698Y-3.7038
X5.41Y-3.13
X5.44Y-3.38
X5.46Y-3.78
X5.46Y-4.32
X5.4748Y-3.7047
X5.48Y-4.78
X5.4854Y-4.1547
X5.53Y-3.73
X5.62Y-3.91
X5.68Y-3.41
X5.69Y-3.18
X5.72Y-4.19
X5.72Y-4.85
X5.75Y-3.41
X5.76Y-3.77
T2
X4.6626Y-2.9506
X4.7374Y-2.9506
T3
X3.39Y-3.7438
X3.44Y-3.7438
X3.49Y-3.7438
T4
X3.6809Y-3.11
X3.7991Y-3.11
T5
X2.9838Y-3.76
X3.0625Y-3.76
X3.1413Y-3.76
X3.22Y-3.76
X5.5524Y-3.9894
X5.5524Y-4.0681
X5.6311Y-3.9894
X5.6311Y-4.0681
T6
X2.89Y-3.19
X3.03Y-4.21
X4.03Y-3.98
X4.43Y-4.35
T7
X2.5016Y-3.7009
X2.5016Y-3.8191
X2.6984Y-3.7009
X2.6984Y-3.8191
X4.9568Y-3.99
X5.2568Y-3.99
T8
X2.8861Y-4.56
X5.642Y-4.56
T9
X3.91Y-3.49
X3.91Y-3.59
X3.91Y-3.69
T4
G00X2.3894Y-4.6097
M15
G01X2.3658Y-4.6097
M16
G05
G00X2.3894Y-4.9503
M15
G01X2.3658Y-4.9503
M16
G05
G00X2.5579Y-4.6097
M15
G01X2.5264Y-4.6097
M16
G05
G00X2.5579Y-4.9503
M15
G01X2.5264Y-4.9503
M16
G05
T0
M30
